SplineFontDB: 3.0
FontName: DavidCLM-BoldItalic
FullName: David CLM Bold Italic
FamilyName: David CLM
Weight: Bold
Copyright: Copyright 2002-2018 by Maxim Iorsh (iorsh@users.sourceforge.net).\nDistributed under the terms of GNU General Public License version 2(http://www.gnu.org/licenses/gpl.html). \nLatin glyphs and part of punctuation copyright 1990 as an unpublished work by Bitstream Inc. \nAll rights reserved.
UComments: "2002-9-22: Created." 
Version: 0.133
ItalicAngle: 10
UnderlinePosition: -100
UnderlineWidth: 50
Ascent: 960
Descent: 240
LayerCount: 2
Layer: 0 0 "Back"  1
Layer: 1 0 "Fore"  0
FSType: 0
OS2Version: 0
OS2_WeightWidthSlopeOnly: 0
OS2_UseTypoMetrics: 0
CreationTime: 1163025784
ModificationTime: 1537994793
PfmFamily: 17
TTFWeight: 700
TTFWidth: 5
LineGap: 90
VLineGap: 0
Panose: 2 0 8 3 0 0 0 0 0 0
OS2TypoAscent: 0
OS2TypoAOffset: 1
OS2TypoDescent: 0
OS2TypoDOffset: 1
OS2TypoLinegap: 0
OS2WinAscent: 0
OS2WinAOffset: 1
OS2WinDescent: 0
OS2WinDOffset: 1
HheadAscent: 0
HheadAOffset: 1
HheadDescent: 0
HheadDOffset: 1
OS2SubXSize: 18848
OS2SubYSize: 28620
OS2SubXOff: 23976
OS2SubYOff: -6695
OS2SupXSize: 1952
OS2SupYSize: 2368
OS2SupXOff: 0
OS2SupYOff: 253
OS2StrikeYSize: 23848
OS2StrikeYPos: -23460
OS2Vendor: 'PfEd'
Lookup: 1 1 0 "AltAyin"  {"AltAyin subtable"  } []
Lookup: 6 1 0 "ccmpAltAyin"  {"ccmpAltAyin contextual 0"  "ccmpAltAyin contextual 1"  "ccmpAltAyin contextual 2"  } ['ccmp' ('hebr' <'dflt' > ) ]
Lookup: 6 1 0 "ccmpVavHolam"  {"ccmpVavHolam subtable"  } ['ccmp' ('hebr' <'dflt' > ) ]
Lookup: 4 1 0 "Ligature Substitution lookup 3"  {"Ligature Substitution lookup 3 subtable"  } []
Lookup: 4 1 0 "ccmpCustomPrecomp"  {"ccmpCustomPrecomp subtable"  } ['ccmp' ('hebr' <'dflt' > ) ]
Lookup: 4 1 0 "ccmpDagesh"  {"ccmpDagesh subtable"  } ['ccmp' ('hebr' <'dflt' > ) ]
Lookup: 4 1 0 "ccmpSinShin"  {"ccmpSinShin subtable"  } ['ccmp' ('hebr' <'dflt' > ) ]
Lookup: 1 1 0 "jaltWideLetters"  {"jaltWideLetters subtable"  } ['jalt' ('hebr' <'dflt' > ) ]

StartChar: exclam
Encoding: 33 33 0
Width: 365
VWidth: 1000
Flags: HMW
LayerCount: 2
Back
SplineSet
207.846 136.51 m 1
 249.382 123.869 276.661 106.154 304.062 78.2412 c 1
 299.749 45.6318 285.299 7.80078 260.112 -18 c 1
 224.152 -12.3525 182.702 9.50684 162 34.7549 c 1
 163.526 70.8613 188.259 118.034 207.846 136.51 c 1
141 653.501 m 1
 152 628.501 152.49 596.346 158 559.501 c 16
 174 452.501 197 363.501 225 258.501 c 1
 221 228.501 217 187.501 177 169.501 c 1
 129 260.501 93 371.501 50 503.501 c 8
 43.1104 524.65 41 537.501 52 560.501 c 1
 74 603.501 106 634.501 141 653.501 c 1
EndSplineSet
Fore
SplineSet
169.253 209.543 m 1
 225.252 185.529 262.889 158.772 305.95 113.826 c 1
 284.444 63.5322 255.325 18.376 222.342 -16.6748 c 1
 168.608 2.99512 120.962 34.9561 81.0664 76.2041 c 1
 101.864 126.072 134.043 178.839 169.253 209.543 c 1
20 630.08 m 1
 54.4688 680.188 108.837 734.895 159.163 762.253 c 1
 186.144 557.827 210.06 440.197 209.39 367.985 c 1
 194.925 335.987 163.094 290.773 137.95 272.124 c 1
 72.0967 351.9 39.6201 501.534 20 630.08 c 1
EndSplineSet
Validated: 33
EndChar

StartChar: quotedbl
Encoding: 34 34 1
Width: 492
VWidth: 1000
Flags: HMW
LayerCount: 2
Back
SplineSet
245.437 768.136 m 5
 250.741 624.031 216.397 493.042 145.434 362.056 c 5
 109.221 343.465 68.2588 335.523 30 336.676 c 5
 65.3252 449.89 87.2168 582.273 68.6357 691.726 c 5
 119.18 737.039 181.699 759.051 245.437 768.136 c 5
332.475 800 m 5
 409.12 677.854 444.873 547.242 448.909 398.323 c 5
 426.844 364.116 395.34 336.758 361.631 318.627 c 5
 335.616 434.335 288.383 559.929 217.565 645.427 c 5
 238.682 709.941 281.818 760.264 332.475 800 c 5
84.9092 800 m 5
 161.555 677.854 197.308 547.242 201.344 398.323 c 5
 179.278 364.116 147.774 336.758 114.065 318.627 c 5
 88.0508 434.335 40.8174 559.929 -30 645.427 c 5
 -8.88379 709.941 34.2529 760.264 84.9092 800 c 5
493.002 768.135 m 1
 498.306 624.031 463.963 493.041 392.999 362.056 c 1
 356.786 343.464 315.824 335.523 277.565 336.676 c 1
 312.89 449.89 334.782 582.273 316.201 691.726 c 1
 366.746 737.038 429.264 759.051 493.002 768.135 c 1
245.437 768.136 m 1
 250.741 624.031 216.397 493.041 145.434 362.056 c 1
 109.221 343.465 68.2578 335.523 30 336.677 c 1
 65.3252 449.89 87.2168 582.273 68.6357 691.726 c 1
 119.18 737.039 181.699 759.051 245.437 768.136 c 1
EndSplineSet
Fore
SplineSet
337.57 796.476 m 5
 391.841 662.876 404.37 528.04 382.485 380.683 c 5
 354.815 350.827 319.039 329.355 282.694 317.354 c 5
 277.167 435.82 252.46 567.709 197.564 664.205 c 5
 229.563 724.072 280.783 766.14 337.57 796.476 c 5
90.0049 796.476 m 5
 144.275 662.876 156.805 528.04 134.92 380.683 c 5
 107.249 350.827 71.4736 329.355 35.1279 317.354 c 5
 29.6016 435.82 4.89453 567.709 -50 664.205 c 5
 -18.002 724.072 33.2178 766.14 90.0049 796.476 c 5
EndSplineSet
Validated: 33
EndChar

StartChar: numbersign
Encoding: 35 35 2
Width: 681
VWidth: 1000
Flags: HMW
LayerCount: 2
Back
SplineSet
35.2686 296.8 m 5
 605.269 296.8 l 5
 603.395 252.158 596.812 212.67 585 179.2 c 5
 15 179.2 l 5
 16.5576 220.855 21.8115 260.725 35.2686 296.8 c 5
51.1865 546.8 m 5
 621.188 546.8 l 5
 619.312 502.158 612.729 462.67 600.918 429.2 c 5
 30.918 429.2 l 5
 32.4756 470.855 37.7305 510.725 51.1865 546.8 c 5
403.075 737.503 m 5
 445.627 746.207 501.642 746.109 554.275 737.503 c 5
 492.767 435.503 492.89 287 481.467 -25 c 5
 433.678 -32.2578 389.35 -33.8184 331.667 -25 c 5
 389.753 257 397.661 456.503 403.075 737.503 c 5
159.887 737.503 m 5
 202.437 746.207 258.452 746.109 311.086 737.503 c 5
 249.578 435.503 249.701 287 238.279 -25 c 5
 190.49 -32.2578 146.162 -33.8184 88.4785 -25 c 5
 146.564 257 154.474 456.503 159.887 737.503 c 5
EndSplineSet
Fore
SplineSet
159.887 737.503 m 1
 202.437 746.207 258.452 746.109 311.086 737.503 c 1
 296.705 666.895 285.694 604.678 277.116 546.8 c 1
 398.079 546.8 l 1
 400.329 607.179 401.774 669.989 403.075 737.503 c 1
 445.627 746.207 501.642 746.109 554.275 737.503 c 1
 539.894 666.895 528.883 604.678 520.305 546.8 c 1
 621.188 546.8 l 1
 619.312 502.158 612.729 462.67 600.918 429.2 c 1
 505.438 429.2 l 1
 500.811 384.82 497.392 341.446 494.655 296.8 c 1
 605.269 296.8 l 1
 603.395 252.158 596.812 212.67 585 179.2 c 1
 488.846 179.2 l 1
 486.363 117.82 484.26 51.2991 481.467 -25 c 1
 433.678 -32.2578 389.35 -33.8184 331.667 -25 c 1
 346.621 47.6019 358.25 114.736 367.366 179.2 c 1
 245.658 179.2 l 1
 243.175 117.82 241.072 51.2991 238.279 -25 c 1
 190.49 -32.2578 146.162 -33.8184 88.4785 -25 c 1
 103.433 47.6019 115.061 114.736 124.178 179.2 c 1
 15 179.2 l 1
 16.5576 220.855 21.8115 260.725 35.2686 296.8 c 1
 138.442 296.8 l 1
 142.933 341.07 146.407 384.867 149.158 429.2 c 1
 30.918 429.2 l 1
 32.4756 470.855 37.7305 510.725 51.1865 546.8 c 1
 154.892 546.8 l 1
 157.142 607.179 158.586 669.989 159.887 737.503 c 1
392.346 429.2 m 1
 262.25 429.2 l 1
 257.622 384.82 254.203 341.446 251.466 296.8 c 1
 381.631 296.8 l 1
 386.121 341.07 389.595 384.867 392.346 429.2 c 1
EndSplineSet
Validated: 33
EndChar

StartChar: dollar
Encoding: 36 36 3
Width: 624
VWidth: 1000
Flags: HMW
LayerCount: 2
Back
SplineSet
264.818 719.738 m 1
 247.454 809.97 l 1
 218.376 788.41 194.783 762.44 179.674 732.06 c 1
 184.792 705.751 l 1
 183.077 705.271 l 2
 112.833 685.526 48.8301 645.019 32.5596 561.54 c 0
 24.3467 519.4 32.9922 446.086 101.926 394.94 c 0
 144.407 363.421 201.504 344.514 258.025 329.338 c 1
 292.996 149.592 l 1
 255.414 142.68 217.257 139.128 170.639 138.286 c 1
 144.37 92.1201 123.166 35.2803 112.451 -24.5 c 1
 186.751 -21.5879 256.799 -14.2646 321.064 5.31836 c 1
 337.259 -77.9102 l 1
 365.317 -61.25 387.896 -39.2002 405.498 -11.2695 c 1
 396.443 35.7773 l 1
 467.391 72.5117 513.021 122.116 534.231 193.06 c 0
 555.423 263.931 545.846 352.311 476.988 402.78 c 0
 434.661 433.804 376.477 448.807 314.351 462.358 c 1
 290.505 586.269 l 1
 334.705 582.481 375.885 572.887 408.948 561.54 c 1
 429.215 604.66 438.36 645.33 436.969 694.33 c 1
 379.588 718.613 318.814 724.021 264.818 719.738 c 1
370.868 168.677 m 1
 344.193 307.28 l 1
 376.548 298.711 405.566 289.781 427.541 278.32 c 0
 459.479 261.66 470.804 243.847 462.353 226.38 c 0
 450.773 202.446 419.882 184.06 370.868 168.677 c 1
207.961 586.665 m 1
 228.467 481.269 l 1
 193.67 489.649 159.314 499.591 127.387 513.52 c 0
 91.4434 529.2 88.5312 553.7 123.632 569.87 c 0
 142.595 578.606 171.771 584.257 207.961 586.665 c 1
EndSplineSet
Fore
SplineSet
264.818 719.738 m 5
 318.814 724.021 379.588 718.613 436.969 694.33 c 5
 438.36 645.33 429.215 604.66 408.948 561.54 c 5
 375.885 572.887 334.705 582.481 290.505 586.269 c 5
 314.351 462.358 l 5
 376.477 448.807 434.661 433.804 476.988 402.78 c 4
 545.846 352.311 555.423 263.931 534.231 193.06 c 4
 513.021 122.116 467.391 72.5117 396.443 35.7773 c 5
 405.498 -11.2695 l 5
 387.896 -39.2002 365.317 -61.25 337.259 -77.9102 c 5
 321.064 5.31836 l 5
 256.799 -14.2646 186.751 -21.5879 112.451 -24.5 c 5
 123.166 35.2803 144.37 92.1201 170.639 138.286 c 5
 217.257 139.128 255.414 142.68 292.996 149.592 c 5
 258.025 329.338 l 5
 201.504 344.514 144.407 363.421 101.926 394.94 c 4
 32.9922 446.086 24.3467 519.4 32.5596 561.54 c 4
 48.8301 645.019 112.833 685.526 183.077 705.271 c 6
 184.792 705.751 l 5
 179.674 732.06 l 5
 194.783 762.44 218.376 788.41 247.454 809.97 c 5
 264.818 719.738 l 5
370.889 168.678 m 5
 415 184.061 442.803 202.447 453.225 226.381 c 4
 460.83 243.848 450.639 261.661 421.895 278.321 c 4
 402.117 289.782 373.6 299.2 344.171 307.281 c 5
 370.889 168.678 l 5
208.044 586.665 m 5
 175.474 584.257 153.556 580.222 132.148 569.87 c 4
 100.199 554.42 103.907 530.621 135.527 513.52 c 4
 164.222 498 197.165 489.648 228.482 481.268 c 5
 208.044 586.665 l 5
EndSplineSet
Validated: 33
EndChar

StartChar: percent
Encoding: 37 37 4
Width: 829
VWidth: 1000
Flags: HMW
LayerCount: 2
Back
SplineSet
456 737.503 m 1
 509.044 746.115 564.75 746.213 615 737.503 c 1
 457 435.503 401 287 275 -25 c 1
 225.796 -34.8701 171.514 -33.9561 117 -25 c 5
 265 257 346 456.503 456 737.503 c 1
550.871 305.258 m 0
 545.696 290.384 574.333 230.412 597.297 185.852 c 24
 614.099 153.246 637.293 113.985 651.273 110.427 c 0
 659.31 108.378 665.539 118.158 669.045 128.88 c 24
 673.441 142.323 673.285 156.816 670.416 168.97 c 0
 666.255 186.599 648.523 226.57 628.916 252.257 c 0
 611.86 274.601 587.642 295.689 560.36 303.981 c 0
 555.102 305.578 551.349 306.628 550.871 305.258 c 0
548.166 429.467 m 0
 573.273 431.369 646.06 403.203 686.078 367.392 c 0
 728.497 329.427 749.37 277.747 758.426 220.757 c 0
 766.737 168.438 751.688 119.724 732.92 85.1748 c 8
 702.566 29.293 648.194 -14.4102 602.777 -17.6396 c 0
 575.885 -19.5508 563.365 -0.196289 549.148 23.6904 c 0
 533.511 49.9678 520.166 83.0361 508.969 114.396 c 0
 483.983 184.383 469.672 253.231 473.714 305.533 c 0
 477.479 354.255 507.583 426.391 548.166 429.467 c 0
89.9033 591.908 m 0
 84.7275 577.034 113.364 517.062 136.328 472.501 c 24
 153.13 439.896 176.324 400.636 190.305 397.076 c 0
 198.342 395.028 204.57 404.809 208.076 415.53 c 24
 212.473 428.974 212.316 443.467 209.447 455.62 c 0
 205.286 473.249 187.555 513.22 167.947 538.907 c 0
 150.892 561.251 126.674 582.34 99.3906 590.631 c 0
 94.1328 592.228 90.3799 593.278 89.9033 591.908 c 0
87.1982 716.116 m 0
 112.305 718.02 185.092 689.854 225.109 654.041 c 0
 267.529 616.077 288.402 564.396 297.457 507.407 c 0
 305.769 455.088 290.72 406.374 271.951 371.825 c 8
 241.598 315.943 187.226 272.24 141.809 269.01 c 0
 114.916 267.099 102.396 286.454 88.1807 310.341 c 0
 72.542 336.617 59.1973 369.686 48 401.047 c 0
 23.0156 471.033 8.70312 539.881 12.7451 592.184 c 0
 16.5107 640.905 46.6143 713.04 87.1982 716.116 c 0
448.361 712.336 m 1
 503.574 715.4 556.557 710.5 611.508 696.78 c 1
 465.02 422.38 407.319 271.95 296.861 -9.52246 c 1
 236.933 -18.6201 181.95 -13.7197 130.5 0 c 1
 267.941 261.66 349.46 449.82 448.361 712.336 c 1
EndSplineSet
Fore
SplineSet
466.931 712.398 m 1
 518.934 716.4 568.133 712.4 616.93 700.401 c 1
 461.934 399 427.934 301 301.934 -11 c 1
 250.934 -16 202.434 -13.5 150.934 0 c 1
 299.934 283.5 356.931 431.398 466.931 712.398 c 1
564.804 305.258 m 0
 559.629 290.384 588.267 230.412 611.23 185.852 c 24
 628.032 153.246 651.227 113.985 665.206 110.427 c 0
 673.243 108.378 679.472 118.158 682.979 128.88 c 24
 687.374 142.323 687.218 156.816 684.35 168.97 c 0
 680.188 186.599 662.456 226.57 642.85 252.257 c 0
 625.793 274.601 601.575 295.689 574.293 303.981 c 0
 569.035 305.578 565.282 306.628 564.804 305.258 c 0
562.099 429.467 m 0
 587.206 431.369 659.993 403.203 700.011 367.392 c 0
 742.43 329.427 763.303 277.747 772.359 220.757 c 0
 780.67 168.438 765.621 119.724 746.854 85.1748 c 8
 716.499 29.293 662.127 -14.4102 616.71 -17.6396 c 0
 589.818 -19.5508 577.298 -0.196289 563.081 23.6904 c 0
 547.444 49.9678 534.099 83.0361 522.902 114.396 c 0
 497.916 184.383 483.605 253.231 487.647 305.533 c 0
 491.412 354.255 521.517 426.391 562.099 429.467 c 0
103.836 591.908 m 0
 98.6602 577.034 127.298 517.062 150.261 472.501 c 24
 167.063 439.896 190.257 400.636 204.238 397.076 c 0
 212.275 395.028 218.503 404.809 222.009 415.53 c 24
 226.406 428.974 226.249 443.467 223.38 455.62 c 0
 219.219 473.249 201.488 513.22 181.88 538.907 c 0
 164.825 561.251 140.606 582.34 113.323 590.631 c 0
 108.066 592.229 104.313 593.278 103.836 591.908 c 0
101.131 716.116 m 0
 126.238 718.02 199.025 689.854 239.042 654.041 c 0
 281.462 616.077 302.335 564.396 311.39 507.407 c 0
 319.702 455.088 304.653 406.374 285.884 371.825 c 8
 255.531 315.943 201.159 272.24 155.742 269.01 c 0
 128.85 267.099 116.33 286.454 102.114 310.341 c 0
 86.4756 336.617 73.1309 369.686 61.9336 401.047 c 0
 36.9482 471.033 22.6357 539.881 26.6777 592.184 c 0
 30.4434 640.905 60.5479 713.04 101.131 716.116 c 0
EndSplineSet
Validated: 33
EndChar

StartChar: ampersand
Encoding: 38 38 5
Width: 741
VWidth: 1000
Flags: MW
LayerCount: 2
Fore
SplineSet
317 396 m 1
 366 433 388 469 388 521 c 0
 388 587 355 627 304 627 c 0
 258 627 223 592 223 543 c 0
 223 495 257 452 317 396 c 1
355 361 m 1
 512 196 l 1
 540 232 558 270 567 309 c 1
 555 326 l 1
 502 335 l 1
 502 381 l 1
 711 381 l 1
 711 335 l 1
 641 322 l 1
 619 256 589 201 550 155 c 1
 641 55 l 1
 724 48 l 1
 724 0 l 1
 514 0 l 1
 514 24 l 1
 472 72 l 1
 408 16 339 -12 263 -12 c 0
 139 -12 53 73 53 185 c 0
 53 269 99 327 192 357 c 1
 131 406 101 457 101 515 c 0
 101 612 185 684 311 684 c 0
 430 684 504 618 504 530 c 0
 504 448 456 394 355 361 c 1
233 324 m 1
 198 297 179 263 179 225 c 0
 179 132 239 69 326 69 c 0
 365 69 400 83 433 112 c 1
 233 324 l 1
EndSplineSet
Validated: 1
EndChar

StartChar: quotesingle
Encoding: 39 39 6
Width: 245
VWidth: 1000
Flags: HMW
LayerCount: 2
Back
SplineSet
90.0049 796.476 m 5
 144.276 662.876 156.804 528.04 134.92 380.683 c 5
 107.249 350.827 71.4736 329.355 35.1279 317.354 c 5
 29.6016 435.82 4.89453 567.709 -50 664.205 c 5
 -18.002 724.072 33.2178 766.14 90.0049 796.476 c 5
EndSplineSet
Fore
SplineSet
90.0049 796.476 m 5
 144.276 662.876 156.804 528.04 134.92 380.683 c 5
 107.249 350.827 71.4736 329.355 35.1279 317.354 c 5
 29.6016 435.82 4.89453 567.709 -50 664.205 c 5
 -18.002 724.072 33.2178 766.14 90.0049 796.476 c 5
EndSplineSet
Validated: 33
EndChar

StartChar: parenleft
Encoding: 40 40 7
Width: 422
VWidth: 1000
Flags: HMW
LayerCount: 2
Back
SplineSet
197.937 720 m 5
 227.831 722 263.198 715 286.723 705 c 5
 231.125 621 144.628 516 150.069 374 c 4
 156.687 201.348 300.415 35 366.98 -25 c 5
 349.024 -64 327.701 -96 293.83 -122 c 5
 171.194 -10 95.2773 113.198 80.8389 283 c 4
 65.957 458 104.854 588 197.937 720 c 5
EndSplineSet
Fore
SplineSet
169.026 734.5 m 5
 223.104 730.42 271.145 717.16 312.982 694.72 c 5
 263.185 617.608 185.636 521.219 190.938 390.861 c 4
 197.386 232.367 327.215 79.6602 387.295 24.5801 c 5
 359.469 -31.5195 321.624 -81.5 267.588 -124.34 c 5
 144.597 -10.0996 68.29 115.562 53.3135 288.76 c 4
 37.877 467.26 76.3613 599.86 169.026 734.5 c 5
EndSplineSet
Validated: 33
EndChar

StartChar: parenright
Encoding: 41 41 8
Width: 407
VWidth: 1000
Flags: HMW
LayerCount: 2
Back
SplineSet
245.524 -121 m 1
 191.313 -120.781 142.523 -111.161 99.3223 -92.1289 c 1
 160.417 -12 233.595 89.374 219.794 216.521 c 0
 203.013 371.114 63.5303 511.439 0 561.129 c 1
 24.0957 617.948 58.585 669.479 109.692 715.156 c 1
 239.843 611.983 324.169 494.381 350.417 326 c 0
 377.47 152.465 331.417 11 245.524 -121 c 1
EndSplineSet
Fore
SplineSet
190.685 -110.729 m 5
 136.474 -110.505 87.6523 -100.693 44.3916 -81.2812 c 5
 105.232 0.450195 178.09 103.853 163.885 233.543 c 4
 146.615 391.228 6.6875 534.359 -57 585.042 c 5
 -33.085 642.998 1.24121 695.56 52.2041 742.15 c 5
 182.683 636.914 267.38 516.959 294.161 345.211 c 4
 321.765 168.205 276.159 23.9102 190.685 -110.729 c 5
EndSplineSet
Validated: 33
EndChar

StartChar: asterisk
Encoding: 42 42 9
Width: 573
VWidth: 980
Flags: HMW
LayerCount: 2
Back
SplineSet
491.657 504.391 m 5
 520.103 476.873 542.422 418.302 535.695 355.612 c 5
 368.002 335.85 l 5
 487.154 213.845 l 5
 462.78 175.972 412.136 142.47 364.595 127.762 c 5
 291.32 267.5 l 5
 220.4 126.047 l 5
 174.08 142.546 122.572 175.605 97.9932 213.845 c 5
 218.752 336.009 l 5
 50.5928 355.612 l 5
 46.2734 415.897 66.0254 476.954 94.6338 504.312 c 5
 240.922 438.728 l 5
 214.844 598.827 l 5
 259.406 621.88 327.206 623.002 371.731 598.905 c 5
 345.788 441.027 l 5
 491.657 504.391 l 5
EndSplineSet
Fore
SplineSet
440.14 503.382 m 1
 473.436 475.864 506.085 417.293 510.412 354.603 c 1
 346.204 334.841 l 1
 486.868 212.836 l 1
 469.173 174.963 424.434 141.461 379.486 126.753 c 1
 281.574 266.491 l 1
 235.595 125.038 l 1
 186.366 141.537 129.028 174.596 97.708 212.836 c 1
 196.925 335 l 1
 25.3096 354.603 l 1
 10.3604 414.888 19.3467 475.945 43.1309 503.304 c 1
 200.981 437.719 l 1
 146.675 597.818 l 1
 187.173 620.871 254.773 621.993 303.549 597.896 c 1
 305.443 440.018 l 1
 440.14 503.382 l 1
EndSplineSet
Validated: 33
EndChar

StartChar: plus
Encoding: 43 43 10
Width: 733
VWidth: 1068
Flags: HMW
LayerCount: 2
Back
SplineSet
469.531 95.2812 m 5
 431.577 85 390.832 81.667 348.057 85.5 c 5
 316.34 265.37 l 5
 100 265.37 l 5
 108.799 311.191 116.517 355.047 142.781 394.729 c 5
 293.53 394.729 l 5
 263.381 565.719 l 5
 302.569 574.667 342.374 577.667 384.943 575 c 5
 416.73 394.729 l 5
 633.5 394.729 l 5
 623.755 345.624 612.551 302.185 589.219 265.37 c 5
 439.54 265.37 l 5
 469.531 95.2812 l 5
EndSplineSet
Fore
SplineSet
444.531 110.281 m 5
 406.577 100 365.832 96.667 323.057 100.5 c 5
 291.34 280.37 l 5
 75 280.37 l 5
 83.7988 326.191 91.5166 370.047 117.781 409.729 c 5
 268.53 409.729 l 5
 238.381 580.719 l 5
 277.569 589.667 317.374 592.667 359.943 590 c 5
 391.73 409.729 l 5
 608.5 409.729 l 5
 598.755 360.624 587.551 317.185 564.219 280.37 c 5
 414.54 280.37 l 5
 444.531 110.281 l 5
EndSplineSet
Validated: 33
Substitution2: "saltMiscSAlt subtable" uniFB29
EndChar

StartChar: comma
Encoding: 44 44 11
Width: 299
VWidth: 1000
Flags: HMW
LayerCount: 2
Back
SplineSet
176.153 213.641 m 1
 218.572 75.8193 219.303 -59.5967 184.658 -204.485 c 1
 154.491 -231.815 126.827 -248.351 89.5752 -257.141 c 1
 94.3945 -138.643 81.2764 -5.10254 35 95.8115 c 1
 72.0947 152.661 116.938 188.369 176.153 213.641 c 1
EndSplineSet
Fore
SplineSet
211.153 211.141 m 5
 253.572 73.3193 254.303 -62.0967 219.658 -206.985 c 5
 189.491 -234.315 166.827 -248.351 129.575 -257.141 c 1
 134.395 -138.643 121.276 -5.10254 75 95.8115 c 1
 112.095 152.661 151.938 185.869 211.153 211.141 c 5
EndSplineSet
Validated: 33
EndChar

StartChar: hyphen
Encoding: 45 45 12
Width: 486
VWidth: 1000
Flags: HMW
LayerCount: 2
Back
SplineSet
71 270 m 5
 77.4404 307.704 95.0791 342.893 120.585 374 c 5
 193.357 379.679 311.904 369.308 398.387 336.646 c 5
 392.079 301.893 386.44 274.704 367.219 248.1 c 5
 201.165 277.685 182.586 283.326 71 270 c 5
27.7969 217.4 m 1
 37.0908 272.647 55.499 322.335 90.2031 377.6 c 1
 421.203 377.6 l 1
 410.325 317.454 387.889 260.451 356.797 217.4 c 1
 27.7969 217.4 l 1
EndSplineSet
Fore
SplineSet
50 247.5 m 1
 65 311 85 360 120.417 407.766 c 1
 188.874 407.866 298.374 395.866 441 348 c 1
 427 299 406 256 378 216 c 1
 253.159 243.54 165.5 250.5 50 247.5 c 1
EndSplineSet
Validated: 33
EndChar

StartChar: period
Encoding: 46 46 13
Width: 339
VWidth: 1000
Flags: HMW
LayerCount: 2
Back
SplineSet
120 142 m 5
 158 121 181 98 202 65 c 5
 191 34 169 0 139 -20 c 5
 105 -7 69 23 54 52 c 5
 63 87 97 128 120 142 c 5
EndSplineSet
Fore
SplineSet
158.187 208.718 m 1
 214.186 184.704 251.82 157.947 294.884 113.001 c 1
 273.378 62.707 244.259 17.5508 211.275 -17.5 c 1
 157.542 2.16992 109.896 34.1309 70 75.3789 c 1
 90.7979 125.247 122.978 178.014 158.187 208.718 c 1
EndSplineSet
Validated: 1
EndChar

StartChar: slash
Encoding: 47 47 14
Width: 453
VWidth: 1000
Flags: HMW
LayerCount: 2
Back
SplineSet
225.247 778.443 m 5
 275.989 796.135 330.832 805.905 381.831 806.053 c 5
 278.674 481.205 249.312 325.233 179.404 -3.90625 c 5
 132.661 -22.1709 79.0449 -30.6963 23.8047 -31.3428 c 5
 120.587 272.073 165.713 482.61 225.247 778.443 c 5
220.081 767.516 m 1
 271.556 776.602 327.244 776.705 379.081 767.516 c 1
 276.102 448.905 247.157 292.235 178 -36.9248 c 1
 130.594 -47.3379 76.1445 -46.374 20 -36.9248 c 1
 116.623 260.585 161.275 471.061 220.081 767.516 c 1
EndSplineSet
Fore
SplineSet
221.25 768 m 1
 269.25 776.5 319.75 777 368.25 770 c 1
 267.583 446 240.907 290.89 171 -38.25 c 1
 116 -47.25 70.5 -46.25 20 -37.25 c 1
 116.782 266.166 161.716 472.167 221.25 768 c 1
EndSplineSet
Validated: 33
EndChar

StartChar: zero
Encoding: 48 48 15
Width: 590
VWidth: 1000
Flags: HMW
LayerCount: 2
Back
SplineSet
161.356 588.851 m 0
 137.939 557.574 175.19 421.635 207.351 320.29 c 24
 230.881 246.14 267.096 156.264 301.968 145.75 c 0
 322.016 139.704 344.929 159.707 361.208 182.292 c 24
 381.622 210.615 390.61 242.123 390.866 269.087 c 0
 391.237 308.202 370.015 398.537 334.533 458.222 c 0
 303.671 510.141 252.942 560.756 185.761 584.188 c 0
 172.812 588.703 163.513 591.73 161.356 588.851 c 0
159.369 741.667 m 0
 201.202 744.903 322.683 697 389.593 636.095 c 0
 460.521 571.532 495.618 483.64 511.051 386.717 c 0
 525.219 297.74 500.429 214.893 469.356 156.137 c 8
 419.101 61.0996 328.743 -13.2256 253.069 -18.7188 c 0
 208.259 -21.9697 187.277 10.9473 163.44 51.5713 c 0
 137.219 96.2607 114.779 152.499 95.9287 205.833 c 0
 53.8672 324.857 29.6016 441.947 36.0234 530.895 c 0
 42.0068 613.756 91.748 736.434 159.369 741.667 c 0
EndSplineSet
Fore
SplineSet
167.667 577.074 m 0
 144.14 546.423 180.911 413.202 212.715 313.884 c 24
 235.983 241.217 271.882 153.139 306.717 142.835 c 0
 326.743 136.91 349.727 156.513 366.085 178.646 c 24
 386.6 206.402 395.698 237.28 396.05 263.705 c 0
 396.559 302.038 375.655 390.566 340.384 449.058 c 0
 309.704 499.938 259.154 549.541 192.056 572.504 c 0
 179.122 576.929 169.834 579.896 167.667 577.074 c 0
166.219 726.834 m 0
 208.063 730.005 329.375 683.06 396.07 623.373 c 0
 466.771 560.102 501.558 473.967 516.649 378.982 c 0
 530.503 291.785 505.422 210.595 474.141 153.015 c 8
 423.551 59.8779 332.931 -12.9609 257.237 -18.3447 c 0
 212.416 -21.5303 191.55 10.7285 167.856 50.54 c 0
 141.793 94.3359 119.551 149.449 100.889 201.717 c 0
 59.2471 318.359 35.3945 433.108 42.1299 520.277 c 0
 48.4053 601.48 98.5791 721.705 166.219 726.834 c 0
EndSplineSet
Validated: 33
EndChar

StartChar: one
Encoding: 49 49 16
Width: 488
VWidth: 1000
Flags: HMW
LayerCount: 2
Back
SplineSet
80.3164 624 m 1
 171.534 701.577 128.316 663.577 222.316 731.577 c 0
 253.647 754.242 283.328 749.293 300 712.604 c 0
 347.532 608 385.802 495.532 415.22 368.757 c 0
 432.567 294 442.244 211.509 449.175 118 c 1
 428.291 57 389.754 13 341.428 -25 c 1
 333.304 86 313.424 204 281.405 318 c 0
 243.284 453.731 223.792 520.626 209.316 518 c 0
 178.023 512.322 103.316 453.577 25.3164 405.577 c 1
 22.7305 480.797 35.5332 559.577 80.3164 624 c 1
EndSplineSet
Fore
SplineSet
61.0254 611.52 m 1
 152.517 687.546 109.165 650.306 203.405 716.945 c 0
 234.815 739.157 264.479 734.308 281.021 698.352 c 0
 328.185 595.84 366.059 485.621 395.03 361.382 c 0
 412.112 288.12 421.499 207.279 428.1 115.64 c 1
 407.001 55.8604 368.309 12.7402 319.849 -24.5 c 1
 312.116 84.2803 292.652 199.92 261.035 311.64 c 0
 223.393 444.656 204.137 510.214 189.651 507.64 c 0
 158.339 502.075 83.4248 444.506 5.25586 397.466 c 1
 2.93457 471.181 16.0156 548.386 61.0254 611.52 c 1
EndSplineSet
Validated: 33
EndChar

StartChar: two
Encoding: 50 50 17
Width: 525
VWidth: 1000
Flags: HMW
LayerCount: 2
Back
SplineSet
112 749 m 1
 196 742 318 719 370 625 c 8
 408.945 554.6 393.452 484.863 359 419 c 0
 344.729 391.717 323.255 360.557 308 327 c 0
 286.912 280.611 274.358 229.643 279 178 c 1
 359.998 209.344 430.985 248.837 503 300 c 1
 514 251 510.5 162.5 496 123 c 1
 387 66 273 18 151 -25 c 1
 125 38 118.215 84.4336 127 163.5 c 0
 135 235.5 166.84 296.695 203 359.5 c 0
 241 425.5 263 508 209 554 c 0
 160.014 595.729 82 593 -5 600 c 1
 21 662 61 712 112 749 c 1
EndSplineSet
Fore
SplineSet
94.5254 734.02 m 1
 178.5 727.16 300.419 704.62 352.088 612.5 c 8
 390.784 543.508 375.046 475.166 340.361 410.62 c 0
 325.994 383.883 304.41 353.346 289.037 320.46 c 0
 267.785 274.999 255.052 225.05 259.512 174.44 c 1
 340.62 205.157 411.746 243.86 483.941 294 c 1
 494.769 245.98 490.957 159.25 476.317 120.54 c 1
 367.116 64.6797 252.946 17.6396 130.796 -24.5 c 1
 105.018 37.2402 98.3965 82.7451 107.46 160.23 c 0
 115.714 230.79 147.771 290.761 184.151 352.31 c 0
 222.385 416.99 244.675 497.84 190.838 542.92 c 0
 141.999 583.814 63.9746 581.14 -23 588 c 1
 3.21875 648.76 43.3945 697.76 94.5254 734.02 c 1
EndSplineSet
Validated: 33
EndChar

StartChar: three
Encoding: 51 51 18
Width: 551
VWidth: 1000
Flags: HMW
LayerCount: 2
Back
SplineSet
82 744 m 1
 173 744 255 735 301 707 c 0
 333.527 687.201 348.942 654.142 353 624 c 0
 360 572 334 516 310 466 c 1
 381 448 430.975 426.979 465 384 c 0
 503 336 520.711 266.691 490 197 c 0
 438 79 294 26 145 -25 c 1
 149 40 165 100 189 154.5 c 1
 235 171 333.5 187.25 356 218 c 0
 377.197 246.97 368.19 288.518 314 312 c 0
 254 338 201 352 129 362 c 1
 167 407 199 453 211 506 c 0
 219.176 542.11 194.721 574.829 150.5 583.5 c 0
 112.25 591 50 594 -15 588 c 1
 5 646 37 706 82 744 c 1
EndSplineSet
Fore
SplineSet
70.5508 729.12 m 1
 161.551 729.12 243.519 720.3 289.42 692.86 c 0
 321.877 673.457 337.176 641.06 341.127 611.52 c 0
 347.944 560.56 321.746 505.68 297.57 456.68 c 1
 368.507 439.04 418.407 418.439 452.28 376.32 c 0
 490.111 329.28 507.578 261.357 476.621 193.06 c 0
 424.205 77.4199 280.019 25.4805 130.839 -24.5 c 1
 135.067 39.2002 151.279 98 175.472 151.41 c 1
 221.53 167.58 320.087 183.505 342.695 213.64 c 0
 363.995 242.03 355.134 282.748 301.027 305.76 c 0
 241.119 331.24 188.168 344.96 116.203 354.76 c 1
 154.362 398.86 186.524 443.94 198.711 495.88 c 0
 207.015 531.268 182.675 563.332 138.484 571.83 c 0
 100.261 579.18 38.0215 582.12 -27 576.24 c 1
 -6.79492 633.08 25.416 691.88 70.5508 729.12 c 1
EndSplineSet
Validated: 33
EndChar

StartChar: four
Encoding: 52 52 19
Width: 634
VWidth: 1000
Flags: HMW
LayerCount: 2
Back
SplineSet
289.4 544 m 5
 257.4 518.4 208.627 421.067 204 364 c 4
 199.2 304.8 210.6 294.4 261 300 c 4
 294.479 303.72 328.8 319.2 352 328 c 5
 328 419.2 318.2 482.4 289.4 544 c 5
350.79 760 m 5
 413 626 442 522 476 374 c 5
 512 387 565 409 592 420 c 5
 597 382 586.16 286.35 566 258 c 5
 537.02 243.3 529.98 242.601 501 230 c 5
 511 188 516.5 146 522.5 98 c 5
 499.5 52 463 10 421 -25 c 5
 409 54 395 124 382.9 189.9 c 5
 309.819 172.05 263.207 154.939 199 150 c 4
 121 144 69 166 70.2695 245.5 c 4
 71.9707 352.021 98.8583 445.02 133 514 c 4
 182 613 257 702 350.79 760 c 5
EndSplineSet
Fore
SplineSet
277.217 533.12 m 5
 245.127 508.032 196.011 412.646 191.182 356.72 c 4
 186.173 298.704 197.537 288.512 247.956 294 c 4
 281.448 297.646 315.824 312.816 339.055 321.44 c 5
 315.377 410.816 305.8 472.752 277.217 533.12 c 5
339.368 744.8 m 5
 401.106 613.48 429.739 511.56 463.218 366.52 c 5
 499.264 379.26 552.341 400.82 579.38 411.6 c 5
 584.245 374.36 573.068 280.623 552.809 252.84 c 5
 523.776 238.434 516.734 237.749 487.711 225.4 c 5
 497.562 184.24 502.913 143.08 508.744 96.04 c 5
 485.582 50.96 448.934 9.7998 406.811 -24.5 c 5
 395.089 52.9199 381.336 121.52 369.468 186.102 c 5
 296.324 168.609 249.651 151.84 185.428 147 c 4
 107.406 141.12 55.4834 162.68 57.0342 240.59 c 4
 59.1104 344.98 86.3262 436.119 120.71 503.72 c 4
 170.061 600.74 245.374 687.96 339.368 744.8 c 5
EndSplineSet
Validated: 33
EndChar

StartChar: five
Encoding: 53 53 20
Width: 552
VWidth: 1000
Flags: HMW
LayerCount: 2
Back
SplineSet
8 750.029 m 1
 139 723 275 704.34 419 683 c 1
 409 635.47 388 580.279 350 539.54 c 1
 287.5 553.604 204 567.685 129 584.66 c 1
 141 544.89 146 522.77 169 483 c 1
 228 475.24 326 461.939 378 442.54 c 0
 437.764 420.243 488 364.968 488 298.979 c 0
 488 266 432 163.18 410 132.14 c 1
 340 70.0596 250 21.5596 132 -25 c 1
 124 9.91992 143 112.739 160 153.479 c 1
 228 178.699 299 215.56 355 256.3 c 1
 349 309.649 324.978 315.001 261 326.14 c 0
 222 332.93 175.5 335.5 137 342.5 c 0
 116.25 346.273 95.6455 354.052 86 373.67 c 0
 55 436.72 26 517.229 7 613.26 c 0
 -0.839844 652.882 -3 703.47 8 750.029 c 1
EndSplineSet
Fore
SplineSet
15.8164 735.028 m 1
 146.722 708.54 282.656 690.253 426.58 669.34 c 1
 416.413 622.761 395.219 568.674 357.074 528.749 c 1
 294.624 542.532 211.174 556.331 136.233 572.967 c 1
 148.094 533.992 153.016 512.314 175.875 473.34 c 1
 234.848 465.735 332.801 452.7 384.732 433.689 c 0
 444.418 411.838 494.459 357.669 494.227 292.999 c 0
 494.109 260.68 437.747 159.916 415.638 129.497 c 1
 345.419 68.6582 255.248 21.1279 137.084 -24.5 c 1
 129.207 9.72168 148.569 110.484 165.713 150.409 c 1
 233.802 175.125 304.932 211.249 361.076 251.174 c 1
 355.264 303.456 331.261 308.701 267.322 319.617 c 0
 228.346 326.271 181.855 328.79 143.38 335.65 c 0
 122.643 339.348 102.066 346.971 92.4893 366.196 c 0
 61.7119 427.985 32.9961 506.885 14.335 600.995 c 0
 6.63477 639.824 4.65234 689.4 15.8164 735.028 c 1
EndSplineSet
Validated: 33
EndChar

StartChar: six
Encoding: 54 54 21
Width: 592
VWidth: 1000
Flags: HMW
LayerCount: 2
Back
SplineSet
259.915 751 m 1
 268.553 699 258.008 640 242.091 605 c 1
 208.411 579 205.025 592.544 189.201 571 c 0
 171.573 547 165.096 489.599 173.263 438 c 16
 189.564 335 215.909 233 272.685 148 c 0
 288.513 124.305 319.028 124.632 340.5 141 c 0
 377.234 169 408.406 202 427.769 254 c 1
 383.522 321 307.521 343 256.625 347 c 1
 266 400 283 455 311.436 495 c 1
 380.671 504 470.7 464.049 510 402 c 0
 539.77 355 543.491 267.016 524.737 201 c 0
 504 128 459.204 69 388 23 c 0
 308.309 -28.4824 199.143 -36.5352 148.794 59 c 0
 99.2559 153 61.7705 249 38.9121 369 c 8
 25.0967 441.529 29.2148 487.112 49.8613 558 c 16
 74.0352 641 174.469 734 259.915 751 c 1
EndSplineSet
Fore
SplineSet
275.147 735.98 m 1
 283.603 685.02 272.85 627.2 256.81 592.9 c 1
 223.038 567.42 219.699 580.693 203.8 559.58 c 0
 186.087 536.06 179.407 479.807 187.393 429.24 c 16
 203.33 328.3 229.315 228.34 285.792 145.04 c 0
 301.536 121.819 332.053 122.14 353.582 138.18 c 0
 390.415 165.62 421.703 197.96 441.25 248.92 c 1
 397.239 314.58 321.315 336.14 270.434 340.06 c 1
 279.995 392 297.188 445.9 325.767 485.1 c 1
 395.033 493.92 484.922 454.768 524.003 393.96 c 0
 553.606 347.9 557.018 261.676 538.031 196.98 c 0
 517.036 125.44 472.032 67.6201 400.666 22.54 c 0
 320.794 -27.9131 211.599 -35.8047 161.587 57.8203 c 0
 112.381 149.94 75.2334 244.02 52.7988 361.62 c 8
 39.2383 432.698 43.5176 477.37 64.4141 546.84 c 16
 88.8809 628.18 189.643 719.32 275.147 735.98 c 1
EndSplineSet
Validated: 33
EndChar

StartChar: seven
Encoding: 55 55 22
Width: 549
VWidth: 1000
Flags: HMW
LayerCount: 2
Back
SplineSet
65.0957 750 m 1
 196 724 306 698 404.197 666 c 0
 442.873 653.397 452.232 619.069 445.107 587 c 0
 426 501 382.189 448.347 340.178 349 c 0
 311 280 305.339 210 345.988 134 c 1
 328.997 74 301.997 22 266.899 -25 c 1
 233.749 11 181.048 84.7305 178.976 157 c 0
 176.052 259 232.336 349.524 255.603 422 c 0
 280 498 271 542 233 552 c 0
 157.935 571.754 74 588 -30 602.5 c 1
 -10.5938 655 21.4199 712 65.0957 750 c 1
EndSplineSet
Fore
SplineSet
67.6152 735 m 1
 198.428 709.52 308.337 684.04 406.421 652.68 c 0
 445.052 640.329 454.29 606.688 447.052 575.26 c 0
 427.642 490.98 383.646 439.38 341.284 342.02 c 0
 311.862 274.4 305.954 205.8 346.336 131.32 c 1
 329.133 72.5195 301.949 21.5596 266.686 -24.5 c 1
 233.663 10.7803 181.222 83.0361 179.404 153.86 c 0
 176.841 253.82 233.443 342.533 256.966 413.56 c 0
 281.631 488.04 272.786 531.16 234.821 540.96 c 0
 159.826 560.319 75.9482 576.24 -28 590.45 c 1
 -8.40918 641.9 23.8057 697.76 67.6152 735 c 1
EndSplineSet
Validated: 33
EndChar

StartChar: eight
Encoding: 56 56 23
Width: 613
VWidth: 1000
Flags: HMW
LayerCount: 2
Back
SplineSet
257.507 349 m 1
 222.459 309 227.978 233.883 268.959 158.704 c 8
 287.242 125.166 318.06 106.276 363.828 132.647 c 0
 387.966 146.552 399.382 154.665 417.466 173.896 c 16
 452.849 211.524 425.681 260.901 396.115 281.756 c 0
 361.758 305.99 305.116 331.195 257.507 349 c 1
145.979 633.438 m 1
 133.668 622.394 129.747 586.438 144 559 c 0
 161.903 524.532 235.332 490.735 272.187 477.581 c 1
 305.509 494.591 327.297 523.439 314.927 556 c 16
 303.192 586.888 219.716 623.438 145.979 633.438 c 1
145.277 753.702 m 1
 251.207 746.422 372.324 711.878 426.87 641.249 c 8
 457.179 602.004 463.198 560.153 443.827 514.085 c 8
 428.475 477.574 402.094 450.539 377.379 436.777 c 1
 419.418 422 456.104 410 497.365 388.312 c 0
 565.541 352.476 582.772 276.639 554.777 199.656 c 0
 528.72 128 478.174 69 409.915 29.0967 c 0
 359.289 -0.498047 309.997 -22.8418 260.396 -18 c 0
 215.753 -13.6416 189.128 11.0439 162.29 48.7188 c 16
 124.792 101.356 102.962 139.264 90 205.771 c 16
 76.0127 277.545 99.5322 350 151.56 391.83 c 1
 78.667 418.27 35.6641 457.498 28.209 530.114 c 16
 19.3203 616.694 79.1523 707.096 145.277 753.702 c 1
EndSplineSet
Fore
SplineSet
245.479 342.02 m 1
 210.29 302.82 215.544 229.205 256.26 155.53 c 8
 274.425 122.663 305.176 104.15 351.037 129.994 c 0
 375.224 143.621 386.669 151.571 404.82 170.418 c 16
 440.336 207.294 413.343 255.683 383.85 276.121 c 0
 349.578 299.87 293.025 324.571 245.479 342.02 c 1
134.954 620.77 m 1
 122.604 609.946 118.557 574.709 132.713 547.82 c 0
 150.494 514.041 223.803 480.92 260.612 468.029 c 1
 293.994 484.699 315.884 512.971 303.629 544.88 c 16
 292.003 575.15 208.656 610.969 134.954 620.77 c 1
134.676 738.628 m 1
 240.58 731.493 361.575 697.641 415.873 628.424 c 8
 446.043 589.964 451.915 548.95 432.381 503.804 c 8
 416.9 468.022 390.424 441.528 365.66 428.041 c 1
 407.647 413.56 444.291 401.8 485.476 380.546 c 0
 553.525 345.427 570.489 271.106 542.223 195.663 c 0
 515.912 125.44 465.158 67.6201 396.759 28.5146 c 0
 346.028 -0.488281 296.657 -22.3848 247.073 -17.6396 c 0
 202.446 -13.3691 175.908 10.8232 149.203 47.7441 c 16
 111.891 99.3291 90.1943 136.479 77.4668 201.655 c 16
 63.7324 271.994 87.5078 343 139.683 383.993 c 1
 66.8828 409.904 24.0186 448.348 16.8193 519.512 c 16
 8.23633 604.36 68.3867 692.954 134.676 738.628 c 1
EndSplineSet
Validated: 33
EndChar

StartChar: nine
Encoding: 57 57 24
Width: 610
VWidth: 1000
Flags: HMW
LayerCount: 2
Back
SplineSet
216.564 164 m 1
 294.786 199 347.044 235 404.174 296 c 1
 408.968 376 394.994 435.728 354.524 511.051 c 16
 300.091 612.365 173.087 617.424 166.412 603.5 c 0
 157.783 585.5 157.003 555.566 162.346 530 c 0
 170.913 489 194.9 460 222.342 444 c 0
 242.189 432.428 284.327 447 320.99 466 c 1
 327.454 422 323.917 378 301.075 328.52 c 1
 261.94 303.056 210.569 272.12 159.181 285.2 c 0
 101.729 299.823 53.5254 387.439 39.3896 474 c 0
 23.4062 571.877 62.5137 678 168.189 726 c 0
 249.21 762.801 399.935 717.067 468.629 624.035 c 0
 533.962 535.554 549.75 415.511 533.977 319 c 0
 506.727 152.272 356.709 50.5869 169.964 -25 c 1
 169.173 22.8584 194.527 127.43 216.564 164 c 1
EndSplineSet
Fore
SplineSet
200.377 160.72 m 1
 278.722 195.02 331.107 230.3 388.452 290.08 c 1
 393.528 368.48 379.765 427.014 339.561 500.83 c 16
 285.485 600.117 158.499 605.075 151.774 591.43 c 0
 143.082 573.79 142.196 544.455 147.449 519.4 c 0
 155.872 479.22 179.757 450.8 207.143 435.12 c 0
 226.948 423.779 269.138 438.06 305.868 456.68 c 1
 312.177 413.56 308.484 370.44 285.468 321.949 c 1
 246.243 296.995 194.763 266.678 143.421 279.496 c 0
 86.0205 293.826 38.126 379.69 24.2959 464.52 c 0
 8.65723 560.439 48.1387 664.44 153.983 711.48 c 0
 235.135 747.545 385.698 702.726 454.064 611.555 c 0
 519.085 524.843 534.449 407.201 518.336 312.62 c 0
 490.498 149.227 340.122 49.5752 153.11 -24.5 c 1
 152.488 22.4014 178.211 124.882 200.377 160.72 c 1
EndSplineSet
Validated: 33
EndChar

StartChar: colon
Encoding: 58 58 25
Width: 351
VWidth: 1000
Flags: HMW
LayerCount: 2
Back
SplineSet
106.782 563 m 1
 148.318 550.359 175.598 532.645 203 504.731 c 1
 198.686 472.122 184.235 434.291 159.049 408.49 c 1
 123.089 414.138 81.6387 435.997 60.9365 461.245 c 1
 62.4629 497.352 87.1953 544.524 106.782 563 c 1
159.782 140.91 m 1
 201.318 128.27 228.598 110.555 256 82.6416 c 1
 251.686 50.0322 237.235 12.2012 212.049 -13.5996 c 1
 176.089 -7.95215 134.639 13.9072 113.937 39.1553 c 1
 115.463 75.2617 140.195 122.435 159.782 140.91 c 1
EndSplineSet
Fore
SplineSet
98.1865 563 m 5
 156.113 534.484 194.119 509.384 234.884 467.283 c 5
 213.473 417.812 183.09 373.521 151.275 336.782 c 5
 94.2197 358.333 47.0029 391.08 10 429.661 c 5
 32.1221 479.934 64.5107 532.354 98.1865 563 c 5
161.098 207.543 m 1
 220.784 178.018 258.246 152.735 297.795 111.826 c 1
 277.415 63.79 247.167 19.6855 214.187 -18.6748 c 1
 158.638 1.85449 111.53 34.5273 72.9111 74.2041 c 1
 96.1885 125.908 128.197 178.55 161.098 207.543 c 1
EndSplineSet
Validated: 1
EndChar

StartChar: semicolon
Encoding: 59 59 26
Width: 367
VWidth: 1000
Flags: HMW
LayerCount: 2
Back
SplineSet
219 213.641 m 1
 261.419 75.8193 262.149 -59.5967 227.505 -204.485 c 1
 197.338 -231.815 169.674 -248.351 132.422 -257.141 c 1
 137.241 -138.643 124.123 -5.10254 77.8467 95.8115 c 1
 114.941 152.661 159.785 188.369 219 213.641 c 1
38.1865 563 m 1
 96.1133 534.484 134.119 509.384 174.884 467.283 c 1
 153.473 417.812 123.09 373.521 91.2754 336.782 c 1
 34.2197 358.333 -12.9971 391.08 -50 429.661 c 1
 -27.8779 479.934 4.51074 532.354 38.1865 563 c 1
EndSplineSet
Fore
SplineSet
274 211.141 m 5
 316.419 73.3193 317.149 -62.0967 282.505 -206.985 c 5
 252.338 -234.315 229.674 -248.351 192.422 -257.141 c 5
 197.241 -138.643 184.123 -5.10254 137.847 95.8115 c 5
 174.941 152.661 214.785 185.869 274 211.141 c 5
103.187 563 m 1
 161.113 534.484 199.119 509.384 239.884 467.283 c 1
 218.473 417.812 188.09 373.521 156.275 336.782 c 1
 99.2197 358.333 52.0029 391.08 15 429.661 c 1
 37.1221 479.934 69.5107 532.354 103.187 563 c 1
EndSplineSet
Validated: 33
EndChar

StartChar: less
Encoding: 60 60 27
Width: 496
VWidth: 1000
Flags: HMW
LayerCount: 2
Back
SplineSet
-35.1465 273.053 m 17
 -36.9346 306.989 -33.7529 339.989 -22.5713 372.989 c 9
 328.914 630 l 17
 338.201 583 339.665 535 326.658 484 c 9
 117.254 332.791 l 25
 419.101 170 l 17
 416.212 124 398.794 81 372.36 49 c 9
 -35.1465 273.053 l 17
EndSplineSet
Fore
SplineSet
20 275.406 m 17
 22.1162 309.535 29.085 343.023 44.0391 377 c 9
 396.039 635 l 17
 399.906 588.148 395.851 539.811 377.004 487.562 c 9
 178.982 344.98 l 25
 491.602 182.931 l 17
 483.43 136.345 461.102 91.8984 431.039 58 c 9
 20 275.406 l 17
EndSplineSet
Validated: 33
EndChar

StartChar: equal
Encoding: 61 61 28
Width: 779
VWidth: 1000
Flags: HMW
LayerCount: 2
Back
SplineSet
114.519 277.8 m 1
 614.519 277.8 l 1
 612.645 233.158 606.062 193.67 594.25 160.2 c 1
 94.25 160.2 l 1
 95.8076 201.855 101.062 241.725 114.519 277.8 c 1
76.8193 491.6 m 1
 576.819 491.6 l 1
 574.946 446.958 568.363 407.47 556.552 374 c 1
 56.5518 374 l 1
 58.1084 415.655 63.3643 455.524 76.8193 491.6 c 1
EndSplineSet
Fore
SplineSet
159.004 292.8 m 5
 659.004 292.8 l 5
 649.259 248.158 635.713 208.67 618 175.2 c 5
 118 175.2 l 5
 126.902 216.855 139.187 256.726 159.004 292.8 c 5
121.004 506.6 m 5
 621.004 506.6 l 5
 611.259 461.958 597.713 422.47 580 389 c 5
 80 389 l 5
 88.9023 430.655 101.187 470.524 121.004 506.6 c 5
EndSplineSet
Validated: 1
EndChar

StartChar: greater
Encoding: 62 62 29
Width: 494
VWidth: 1000
Flags: HMW
LayerCount: 2
Back
SplineSet
422.652 381.947 m 17
 424.44 348.011 421.259 315.011 410.078 282.011 c 9
 58.5918 25 l 17
 49.3047 72 46.251 112 59.2588 163 c 9
 275.752 319 l 25
 -31.5947 485 l 17
 -28.7061 531 -11.2881 574 15.1455 606 c 9
 422.652 381.947 l 17
EndSplineSet
Fore
SplineSet
446.425 381.476 m 17
 444.309 347.347 437.34 313.858 422.387 279.883 c 9
 72.5625 21 l 17
 68.6953 67.8506 70.2451 108.021 89.0908 160.269 c 9
 292.562 309 l 25
 -25 471.07 l 17
 -16.8291 517.655 5.49902 562.102 35.5625 596 c 9
 446.425 381.476 l 17
EndSplineSet
Validated: 33
EndChar

StartChar: question
Encoding: 63 63 30
Width: 537
VWidth: 1000
Flags: HMW
LayerCount: 2
Back
SplineSet
37.5 675 m 1
 142.5 675 287.649 670.25 321 552 c 0
 334.393 504.518 306 448.5 266.048 400.35 c 0
 229.257 356.009 234 315 270.038 279.5 c 1
 246.799 252.5 217.679 230.5 184.5 214.5 c 1
 157.5 237 142.302 262.775 142.5 310.5 c 0
 142.784 379 247.103 428.4 224.771 504 c 0
 204.259 573.448 78.8291 577.4 -14.8057 581 c 1
 0 619.5 13.5 648 37.5 675 c 1
244.5 130.608 m 5
 282.09 103.54 297.393 89.4824 322.816 57.2432 c 5
 309.417 26.541 290.244 -0.154297 265.021 -20.7061 c 5
 231.189 2.5293 210.927 16.1006 184.021 48 c 5
 199.703 81.9219 220.512 107.416 244.5 130.608 c 5
EndSplineSet
Fore
SplineSet
300.303 208.718 m 1
 356.302 184.704 393.938 157.947 437 113.001 c 1
 415.494 62.707 386.375 17.5508 353.392 -17.5 c 1
 299.658 2.16992 252.012 34.1309 212.116 75.3789 c 1
 232.914 125.247 265.094 178.014 300.303 208.718 c 1
105.152 762 m 1
 210.152 762 344.602 746.9 377.952 628.65 c 0
 391.345 581.168 362.952 525.15 323 477 c 0
 286.209 432.659 301.652 402 337.69 366.5 c 1
 311 319.5 270.5 274.5 221 252 c 1
 189.5 280.5 161.097 314.896 164 372 c 0
 168.5 460.5 253.831 465.9 231.5 541.5 c 0
 210.987 610.948 113.635 621.9 20 625.5 c 1
 44 681 69.5 724.5 105.152 762 c 1
EndSplineSet
Validated: 33
EndChar

StartChar: at
Encoding: 64 64 31
Width: 917
VWidth: 1000
Flags: W
HStem: -153 55<466 496> 57 70<390 442> 444 47<506 525> 468 20G<623 691> 643 49<493 540>
VStem: 75 76<230 264> 266 104<212 236> 802 51<358 392>
LayerCount: 2
Fore
SplineSet
533 442 m 1xef
 527 443 520 444 514 444 c 0
 435 444 370 356 370 233 c 0
 370 163 395 127 442 127 c 0
 473 127 503 149 533 190 c 1
 569 389 l 1
 533 442 l 1xef
530 134 m 1
 480 83 435 57 390 57 c 0
 319 57 266 118 266 217 c 0
 266 281 285 340 321 388 c 0
 369 454 441 491 510 491 c 0xef
 542 491 573 482 606 465 c 1
 623 488 l 1
 691 488 l 1xdf
 678 454 672 419 664 384 c 1
 628 214 l 2
 623 190 620 170 620 152 c 0
 620 133 634 118 654 118 c 0
 680 118 711 135 737 169 c 0
 778 221 802 295 802 369 c 0
 802 533 693 643 523 643 c 0
 423 643 337 609 270 545 c 0
 190 469 151 375 151 259 c 0
 151 43 289 -98 494 -98 c 0
 580 -98 666 -73 748 -25 c 1
 766 -65 l 1
 662 -124 559 -153 468 -153 c 0
 359 -153 261 -114 185 -40 c 0
 112 31 75 127 75 245 c 0
 75 378 123 491 217 578 c 0
 296 651 404 692 523 692 c 0
 722 692 853 563 853 373 c 0
 853 299 835 232 799 176 c 0
 750 99 673 54 609 54 c 0
 556 54 530 81 530 134 c 1
EndSplineSet
Validated: 1
EndChar

StartChar: A
Encoding: 65 65 32
Width: 651
VWidth: 1000
Flags: W
HStem: 0 21G<-11 204 399 669> 238 56<210 386> 658 20G<275 380>
LayerCount: 2
Fore
SplineSet
275 678 m 1
 380 678 l 1
 610 59 l 1
 669 49 l 1
 669 0 l 1
 399 0 l 1
 399 49 l 1
 462 55 l 1
 469 68 l 1
 409 238 l 1
 191 238 l 1
 131 69 l 1
 141 56 l 1
 204 49 l 1
 204 0 l 1
 -11 0 l 1
 -11 49 l 1
 49 58 l 1
 275 678 l 1
297 541 m 1
 210 294 l 1
 386 294 l 1
 297 541 l 1
EndSplineSet
Validated: 1
EndChar

StartChar: B
Encoding: 66 66 33
Width: 628
VWidth: 1000
Flags: W
HStem: 0 55<252 302> 316.116 56.8836<233 286> 617 54<252 300>
VStem: 104 130<69 315 372 603> 413 138<495 517> 450 140<175 209>
LayerCount: 2
Fore
SplineSet
29 671 m 1xf4
 329 671 l 2
 477 671 551 618 551 514 c 0xf8
 551 436 503 382 408 357 c 1
 525 355 590 294 590 196 c 0
 590 70 502 0 338 0 c 2
 29 0 l 1
 29 49 l 1
 88 54 l 1
 104 70 l 1
 104 603 l 1
 88 617 l 1
 29 622 l 1
 29 671 l 1xf4
234 373 m 1
 243 372 252 372 261 372 c 0
 365 372 413 412 413 502 c 0
 413 580 368 617 274 617 c 0
 261 617 248 616 234 615 c 1
 234 373 l 1
234 57 m 1
 251 56 267 55 282 55 c 0
 398 55 450 94 450 190 c 0xf4
 450 275 400 317 300 317 c 0
 284 317 262 317 234 315 c 1
 234 57 l 1
EndSplineSet
Validated: 1
EndChar

StartChar: C
Encoding: 67 67 34
Width: 638
VWidth: 1000
Flags: W
HStem: -12 63<390 428> 618 65<392 430>
VStem: 41 147<307 357>
LayerCount: 2
Fore
SplineSet
601 24 m 1
 534 0 464 -12 391 -12 c 0
 319 -12 256 4 207 33 c 0
 103 95 41 207 41 335 c 0
 41 437 77 526 145 591 c 0
 208 652 293 683 397 683 c 0
 466 683 534 670 601 646 c 1
 601 479 l 1
 527 479 l 1
 508 586 l 1
 494 603 l 1
 467 613 441 618 415 618 c 0
 278 618 188 513 188 336 c 0
 188 157 279 51 428 51 c 0
 445 51 465 54 489 60 c 1
 504 75 l 1
 529 196 l 1
 601 196 l 1
 601 24 l 1
EndSplineSet
Validated: 1
EndChar

StartChar: D
Encoding: 68 68 35
Width: 716
VWidth: 1000
Flags: W
HStem: 0 56<238 323> 615 56<238 323>
VStem: 106 132<69 601> 532 149<319 353>
LayerCount: 2
Fore
SplineSet
321 671 m 2
 553 671 681 545 681 335 c 0
 681 217 639 125 558 63 c 0
 496 15 421 0 321 0 c 2
 29 0 l 1
 29 49 l 1
 90 54 l 1
 106 70 l 1
 106 601 l 1
 90 617 l 1
 29 622 l 1
 29 671 l 1
 321 671 l 2
238 615 m 1
 238 56 l 1
 296 56 l 2
 455 56 532 148 532 336 c 0
 532 524 455 615 296 615 c 2
 238 615 l 1
EndSplineSet
Validated: 1
EndChar

StartChar: E
Encoding: 69 69 36
Width: 596
VWidth: 1000
Flags: W
HStem: 0 57<236 468> 317 60<236 366> 615 56<236 435>
VStem: 106 130<69 317 377 604>
LayerCount: 2
Fore
SplineSet
29 0 m 1
 29 49 l 1
 90 54 l 1
 106 70 l 1
 106 603 l 1
 90 617 l 1
 29 622 l 1
 29 671 l 1
 533 671 l 1
 533 514 l 1
 463 514 l 1
 448 602 l 1
 435 615 l 1
 236 615 l 1
 236 377 l 1
 366 377 l 1
 380 391 l 1
 390 463 l 1
 449 463 l 1
 449 231 l 1
 390 231 l 1
 380 303 l 1
 366 317 l 1
 236 317 l 1
 236 57 l 1
 468 57 l 1
 481 73 l 1
 498 179 l 1
 566 179 l 1
 566 0 l 1
 29 0 l 1
EndSplineSet
Validated: 1
EndChar

StartChar: F
Encoding: 70 70 37
Width: 552
VWidth: 1000
Flags: W
HStem: 0 21G<30 325> 303 61<238 372> 613 58<238 431>
VStem: 106 132<69 303 364 604>
LayerCount: 2
Fore
SplineSet
30 0 m 1
 30 49 l 1
 90 54 l 1
 106 70 l 1
 106 603 l 1
 90 617 l 1
 26 622 l 1
 26 671 l 1
 528 671 l 1
 528 503 l 1
 459 503 l 1
 444 600 l 1
 431 613 l 1
 238 613 l 1
 238 364 l 1
 372 364 l 1
 386 377 l 1
 396 450 l 1
 455 450 l 1
 455 217 l 1
 396 217 l 1
 386 290 l 1
 372 303 l 1
 238 303 l 1
 238 70 l 1
 255 54 l 1
 325 49 l 1
 325 0 l 1
 30 0 l 1
EndSplineSet
Validated: 1
EndChar

StartChar: G
Encoding: 71 71 38
Width: 710
VWidth: 1000
Flags: W
HStem: -12 67<391 433> 619 63<403 435>
VStem: 40 145<323 357> 488 128<57 263>
LayerCount: 2
Fore
SplineSet
398 330 m 1
 690 330 l 1
 690 281 l 1
 632 276 l 1
 616 262 l 1
 616 29 l 1
 539 2 465 -12 392 -12 c 0
 182 -12 40 132 40 340 c 0
 40 545 183 682 405 682 c 0
 471 682 542 671 616 649 c 1
 616 479 l 1
 543 479 l 1
 524 585 l 1
 509 603 l 1
 482 614 455 619 426 619 c 0
 277 619 185 515 185 340 c 0
 185 160 279 55 433 55 c 0
 443 55 462 56 488 58 c 1
 488 262 l 1
 472 276 l 1
 398 281 l 1
 398 330 l 1
EndSplineSet
Validated: 1
EndChar

StartChar: H
Encoding: 72 72 39
Width: 760
VWidth: 1000
Flags: W
HStem: 0 21G<30 313 451 733> 322 60<237 526> 651 20G<30 313 451 733>
VStem: 104 133<69 321 382 601> 526 133<69 321 382 601>
LayerCount: 2
Fore
SplineSet
30 671 m 1
 313 671 l 1
 313 622 l 1
 253 617 l 1
 237 601 l 1
 237 382 l 1
 526 382 l 1
 526 601 l 1
 511 617 l 1
 451 622 l 1
 451 671 l 1
 733 671 l 1
 733 622 l 1
 675 617 l 1
 659 601 l 1
 659 70 l 1
 675 54 l 1
 733 49 l 1
 733 0 l 1
 451 0 l 1
 451 49 l 1
 511 54 l 1
 526 70 l 1
 526 322 l 1
 237 322 l 1
 237 70 l 1
 253 54 l 1
 313 49 l 1
 313 0 l 1
 30 0 l 1
 30 49 l 1
 88 54 l 1
 104 70 l 1
 104 601 l 1
 88 617 l 1
 30 622 l 1
 30 671 l 1
EndSplineSet
Validated: 1
EndChar

StartChar: I
Encoding: 73 73 40
Width: 354
VWidth: 1000
Flags: W
HStem: 0 21G<30 329> 651 20G<30 329>
VStem: 112 134<69 603>
LayerCount: 2
Fore
SplineSet
30 0 m 1
 30 49 l 1
 96 54 l 1
 112 70 l 1
 112 603 l 1
 96 617 l 1
 30 622 l 1
 30 671 l 1
 329 671 l 1
 329 622 l 1
 262 617 l 1
 246 603 l 1
 246 70 l 1
 262 54 l 1
 329 49 l 1
 329 0 l 1
 30 0 l 1
EndSplineSet
Validated: 1
EndChar

StartChar: J
Encoding: 74 74 41
Width: 465
VWidth: 1000
Flags: W
HStem: -12 58<136 157> 651 20G<170 464>
VStem: 256 131<227 603>
LayerCount: 2
Fore
SplineSet
256 603 m 1
 240 617 l 1
 170 622 l 1
 170 671 l 1
 464 671 l 1
 464 622 l 1
 403 617 l 1
 387 603 l 1
 387 262 l 2
 387 75 318 -12 155 -12 c 0
 108 -12 61 -4 12 12 c 1
 12 192 l 1
 85 192 l 1
 108 60 l 1
 122 47 l 1
 127 47 133 46 138 46 c 0
 229 46 256 115 256 261 c 2
 256 603 l 1
EndSplineSet
Validated: 1
EndChar

StartChar: K
Encoding: 75 75 42
Width: 650
VWidth: 1000
Flags: W
HStem: 0 21G<30 314 465 672> 651 20G<30 314 422 647>
VStem: 106 133<69 294 341 603>
LayerCount: 2
Fore
SplineSet
30 0 m 1
 30 49 l 1
 91 54 l 1
 106 70 l 1
 106 603 l 1
 91 617 l 1
 30 622 l 1
 30 671 l 1
 314 671 l 1
 314 622 l 1
 255 617 l 1
 239 603 l 1
 239 341 l 1
 267 341 l 1
 484 604 l 1
 478 617 l 1
 422 622 l 1
 422 671 l 1
 647 671 l 1
 647 622 l 1
 577 615 l 1
 387 388 l 1
 600 55 l 1
 672 49 l 1
 672 0 l 1
 465 0 l 1
 465 35 l 1
 297 294 l 1
 239 294 l 1
 239 70 l 1
 255 54 l 1
 314 49 l 1
 314 0 l 1
 30 0 l 1
EndSplineSet
Validated: 1
EndChar

StartChar: L
Encoding: 76 76 43
Width: 543
VWidth: 1000
Flags: W
HStem: 0 58<238 430> 651 20G<27 315>
VStem: 105 133<69 603>
LayerCount: 2
Fore
SplineSet
27 0 m 1
 27 49 l 1
 88 54 l 1
 105 70 l 1
 105 603 l 1
 91 617 l 1
 27 622 l 1
 27 671 l 1
 315 671 l 1
 315 622 l 1
 254 617 l 1
 238 603 l 1
 238 58 l 1
 430 58 l 1
 443 74 l 1
 458 196 l 1
 532 196 l 1
 532 0 l 1
 27 0 l 1
EndSplineSet
Validated: 1
EndChar

StartChar: M
Encoding: 77 77 44
Width: 883
VWidth: 1000
Flags: W
HStem: 0 21G<25 252 378 450 586 863> 651 20G<25 287 598 863>
VStem: 103 72<73 602> 658 126<69 604>
LayerCount: 2
Fore
SplineSet
25 0 m 1
 25 49 l 1
 89 56 l 1
 103 74 l 1
 103 604 l 1
 91 617 l 1
 25 623 l 1
 25 671 l 1
 287 671 l 1
 287 643 l 1
 443 184 l 1
 598 642 l 1
 598 671 l 1
 863 671 l 1
 863 623 l 1
 795 617 l 1
 784 603 l 1
 784 70 l 1
 795 54 l 1
 863 49 l 1
 863 0 l 1
 586 0 l 1
 586 49 l 1
 648 54 l 1
 658 70 l 1
 658 607 l 1
 450 0 l 1
 378 0 l 1
 175 602 l 1
 175 74 l 1
 190 56 l 1
 252 49 l 1
 252 0 l 1
 25 0 l 1
EndSplineSet
Validated: 1
EndChar

StartChar: N
Encoding: 78 78 45
Width: 727
VWidth: 1000
Flags: W
HStem: 0 21G<26 254 522 634> 651 20G<25 255 482 710>
VStem: 103 73<73 537> 561 73<169 597>
LayerCount: 2
Fore
SplineSet
26 0 m 1
 26 48 l 1
 85 56 l 1
 103 74 l 1
 103 603 l 1
 89 617 l 1
 25 622 l 1
 25 671 l 1
 255 671 l 1
 255 644 l 1
 561 169 l 1
 561 597 l 1
 543 616 l 1
 482 624 l 1
 482 671 l 1
 710 671 l 1
 710 624 l 1
 651 616 l 1
 634 597 l 1
 634 0 l 1
 522 0 l 1
 176 537 l 1
 176 74 l 1
 192 56 l 1
 254 48 l 1
 254 0 l 1
 26 0 l 1
EndSplineSet
Validated: 1
EndChar

StartChar: O
Encoding: 79 79 46
Width: 752
VWidth: 1000
Flags: W
HStem: -16 61<360 394> 622 64<361.36 394>
VStem: 41 149<319 369> 567 150<303 353>
LayerCount: 2
Fore
SplineSet
41 339 m 0
 41 448 76 536 144 599 c 0
 207 657 285 686 378 686 c 0
 464 686 537 660 598 608 c 0
 675 542 717 446 717 333 c 0
 717 227 680 137 610 72 c 0
 549 15 469 -16 385 -16 c 0
 178 -16 41 126 41 339 c 0
380 622 m 0
 269 622 190 516 190 337 c 0
 190 153 271 45 378 45 c 0
 488 45 567 153 567 330 c 0
 567 515 489 622 380 622 c 0
EndSplineSet
Validated: 1
EndChar

StartChar: P
Encoding: 80 80 47
Width: 587
VWidth: 1000
Flags: W
HStem: 0 21G<29 324> 247.962 57.0379<272 297> 613 58<238 308>
VStem: 106 132<69 249 306 603> 430 138<447 481>
LayerCount: 2
Fore
SplineSet
29 0 m 1
 29 49 l 1
 88 54 l 1
 106 70 l 1
 106 603 l 1
 91 617 l 1
 25 622 l 1
 25 671 l 1
 295 671 l 2
 480 671 568 613 568 469 c 0
 568 331 474 247 306 247 c 0
 291 247 268 248 238 250 c 1
 238 70 l 1
 253 54 l 1
 324 49 l 1
 324 0 l 1
 29 0 l 1
238 307 m 1
 251 306 263 305 274 305 c 0
 378 305 430 359 430 465 c 0
 430 560 381 613 290 613 c 2
 238 613 l 1
 238 307 l 1
EndSplineSet
Validated: 1
EndChar

StartChar: Q
Encoding: 81 81 48
Width: 752
VWidth: 1000
Flags: W
HStem: 622 65<358 392>
VStem: 39 151<317 351> 568 152<317 351>
LayerCount: 2
Fore
SplineSet
454 -2 m 1
 457 -82 500 -118 589 -118 c 0
 617 -118 648 -114 681 -106 c 1
 681 -157 l 1
 617 -171 563 -178 516 -178 c 0
 378 -178 313 -125 313 -9 c 0
 313 -6 l 1
 146 20 39 153 39 336 c 0
 39 414 59 483 97 543 c 0
 154 631 257 687 374 687 c 0
 464 687 538 662 598 610 c 0
 676 543 720 446 720 332 c 0
 720 158 615 26 454 -2 c 1
190 339 m 0
 190 158 273 50 383 50 c 0
 490 50 568 156 568 335 c 0
 568 515 487 622 376 622 c 0
 268 622 190 517 190 339 c 0
EndSplineSet
Validated: 1
EndChar

StartChar: R
Encoding: 82 82 49
Width: 671
VWidth: 1000
Flags: W
HStem: 0 21G<31 313> 295 58<236 274> 614 57<236 304>
VStem: 106 130<69 295 352 604> 430 140<484 506>
LayerCount: 2
Fore
SplineSet
31 671 m 1
 335 671 l 2
 490 671 570 611 570 500 c 0
 570 408 511 350 398 329 c 1
 446 318 480 299 503 267 c 0
 534 223 542 169 561 119 c 0
 582 64 612 49 679 49 c 0
 683 49 687 49 692 49 c 1
 692 1 l 1
 657 -4 623 -7 592 -7 c 0
 549 -7 512 5 488 24 c 0
 436 64 427 109 411 157 c 0
 380 252 354 295 253 295 c 0
 248 295 242 295 236 295 c 1
 236 70 l 1
 252 54 l 1
 313 49 l 1
 313 0 l 1
 31 0 l 1
 31 49 l 1
 90 54 l 1
 106 70 l 1
 106 603 l 1
 90 617 l 1
 31 622 l 1
 31 671 l 1
236 614 m 1
 236 353 l 1
 249 352 261 352 272 352 c 0
 379 352 430 394 430 486 c 0
 430 568 379 614 282 614 c 2
 236 614 l 1
EndSplineSet
Validated: 1
EndChar

StartChar: S
Encoding: 83 83 50
Width: 568
VWidth: 1000
Flags: W
HStem: -11 65<234 274> 487 21G<425 497> 619 64<307 332>
VStem: 73 130<486 524> 381 136<149 194>
LayerCount: 2
Fore
SplineSet
59 22 m 1
 59 203 l 1
 135 203 l 1
 151 83 l 1
 164 68 l 1
 192 59 221 54 252 54 c 0
 333 54 381 94 381 149 c 0
 381 203 345 239 274 275 c 0
 234 295 187 312 143 349 c 0
 97 388 73 437 73 486 c 0
 73 597 166 683 309 683 c 0
 371 683 434 671 497 649 c 1
 497 487 l 1
 425 487 l 1
 408 591 l 1
 394 605 l 1
 376 614 353 619 321 619 c 0
 248 619 203 579 203 524 c 0
 203 478 231 448 284 416 c 0
 315 397 368 382 427 344 c 0
 485 307 517 253 517 194 c 0
 517 75 416 -11 252 -11 c 0
 188 -11 121 0 59 22 c 1
EndSplineSet
Validated: 1
EndChar

StartChar: T
Encoding: 84 84 51
Width: 603
VWidth: 1000
Flags: W
HStem: 0 21G<155 454> 494 21G<16 85 524 593> 614 57<116 237 372 492>
VStem: 237 135<69 614>
LayerCount: 2
Fore
SplineSet
16 671 m 1
 593 671 l 1
 593 494 l 1
 524 494 l 1
 507 601 l 1
 492 614 l 1
 372 614 l 1
 372 70 l 1
 389 54 l 1
 454 49 l 1
 454 0 l 1
 155 0 l 1
 155 49 l 1
 220 54 l 1
 237 70 l 1
 237 614 l 1
 117 614 l 1
 101 601 l 1
 85 494 l 1
 16 494 l 1
 16 671 l 1
EndSplineSet
Validated: 1
EndChar

StartChar: U
Encoding: 85 85 52
Width: 705
VWidth: 1000
Flags: W
HStem: -12 79<354 394> 651 20G<20 307 467 694>
VStem: 97 134<227 603> 546 73<243 599>
LayerCount: 2
Fore
SplineSet
20 671 m 1
 307 671 l 1
 307 622 l 1
 245 617 l 1
 231 603 l 1
 231 253 l 2
 231 124 274 67 394 67 c 0
 505 67 546 129 546 262 c 2
 546 599 l 1
 531 616 l 1
 467 622 l 1
 467 671 l 1
 694 671 l 1
 694 622 l 1
 633 616 l 1
 619 599 l 1
 619 252 l 2
 619 69 543 -12 355 -12 c 0
 256 -12 182 18 141 70 c 0
 102 121 97 180 97 257 c 2
 97 603 l 1
 83 617 l 1
 20 622 l 1
 20 671 l 1
EndSplineSet
Validated: 1
EndChar

StartChar: V
Encoding: 86 86 53
Width: 635
VWidth: 1000
Flags: W
HStem: -2 21G<272 373> 651 20G<-21 254 441 660>
LayerCount: 2
Fore
SplineSet
-21 671 m 1
 254 671 l 1
 254 622 l 1
 196 617 l 1
 185 602 l 1
 351 146 l 1
 512 602 l 1
 501 617 l 1
 441 622 l 1
 441 671 l 1
 660 671 l 1
 660 622 l 1
 595 609 l 1
 373 -2 l 1
 272 -2 l 1
 45 610 l 1
 -21 622 l 1
 -21 671 l 1
EndSplineSet
Validated: 1
EndChar

StartChar: W
Encoding: 87 87 54
Width: 946
VWidth: 1000
Flags: W
HStem: 0 21G<227 324 631 728> 651 20G<2 264 450 551 726 944>
LayerCount: 2
Fore
SplineSet
227 0 m 1
 65 608 l 1
 2 622 l 1
 2 671 l 1
 264 671 l 1
 264 623 l 1
 202 616 l 1
 194 602 l 1
 306 187 l 1
 450 671 l 1
 551 671 l 1
 699 176 l 1
 804 596 l 1
 792 610 l 1
 726 622 l 1
 726 671 l 1
 944 671 l 1
 944 622 l 1
 881 608 l 1
 728 0 l 1
 631 0 l 1
 476 512 l 1
 324 0 l 1
 227 0 l 1
EndSplineSet
Validated: 1
EndChar

StartChar: X
Encoding: 88 88 55
Width: 637
VWidth: 1000
Flags: W
HStem: 0 21G<0 231 354 644> 651 20G<14 297 409 633>
LayerCount: 2
Fore
SplineSet
14 671 m 1
 297 671 l 1
 297 623 l 1
 237 618 l 1
 229 605 l 1
 343 419 l 1
 473 602 l 1
 464 616 l 1
 409 623 l 1
 409 671 l 1
 633 671 l 1
 633 623 l 1
 571 615 l 1
 385 363 l 1
 577 61 l 1
 644 48 l 1
 644 0 l 1
 354 0 l 1
 354 48 l 1
 417 56 l 1
 424 69 l 1
 302 269 l 1
 160 71 l 1
 166 54 l 1
 231 48 l 1
 231 0 l 1
 0 0 l 1
 0 48 l 1
 64 58 l 1
 259 325 l 1
 77 613 l 1
 14 623 l 1
 14 671 l 1
EndSplineSet
Validated: 1
EndChar

StartChar: Y
Encoding: 89 89 56
Width: 610
VWidth: 1000
Flags: W
HStem: 0 21G<162 462> 651 20G<-11 262 409 627>
VStem: 245 133<68 264>
LayerCount: 2
Fore
SplineSet
-11 671 m 1
 262 671 l 1
 262 622 l 1
 206 617 l 1
 197 605 l 1
 334 351 l 1
 477 596 l 1
 469 612 l 1
 409 623 l 1
 409 671 l 1
 627 671 l 1
 627 622 l 1
 568 611 l 1
 378 288 l 1
 378 69 l 1
 394 55 l 1
 462 50 l 1
 462 0 l 1
 162 0 l 1
 162 50 l 1
 229 55 l 1
 245 69 l 1
 245 264 l 1
 53 612 l 1
 -11 622 l 1
 -11 671 l 1
EndSplineSet
Validated: 1
EndChar

StartChar: Z
Encoding: 90 90 57
Width: 592
VWidth: 1000
Flags: W
HStem: 0 59<194 450> 494 21G<62 133> 613 58<167 394>
LayerCount: 2
Fore
SplineSet
62 671 m 1
 544 671 l 1
 544 616 l 1
 194 59 l 1
 450 59 l 1
 460 73 l 1
 478 194 l 1
 550 194 l 1
 550 0 l 1
 44 0 l 1
 44 55 l 1
 394 613 l 1
 168 613 l 1
 149 601 l 1
 133 494 l 1
 62 494 l 1
 62 671 l 1
EndSplineSet
Validated: 1
EndChar

StartChar: bracketleft
Encoding: 91 91 58
Width: 488
VWidth: 1000
Flags: HMW
LayerCount: 2
Fore
SplineSet
142.088 657.409 m 1
 262.403 -24.9297 l 1
 460.093 -24.9297 l 1
 456.825 -80.3496 437.162 -125.99 410.692 -170 c 1
 173.883 -170 l 1
 30 646 l 1
 41.6104 709.569 55.3281 751.949 85.5381 802.479 c 1
 338.647 802.479 l 1
 335.092 748.689 316.005 699.789 285.988 657.409 c 1
 142.088 657.409 l 1
EndSplineSet
Validated: 1
EndChar

StartChar: backslash
Encoding: 92 92 59
Width: 519
VWidth: 1000
Flags: HMW
LayerCount: 2
Back
SplineSet
119.452 728.129 m 5
 267.489 465.173 375.467 278.884 561.273 20.2266 c 5
 508.536 3.77051 454.91 -4.68945 404.811 -1.7627 c 5
 236.615 289.665 160.492 428.929 -38 706 c 5
 10.5488 721.619 65.7266 729.274 119.452 728.129 c 5
109.725 727.503 m 1
 269.272 446.503 385.45 247 583.175 -35 c 1
 530.24 -43.9561 476.119 -44.8701 425.175 -35 c 1
 244.161 277 161.976 425.503 -49.2754 727.503 c 1
 -0.560547 736.213 55.1621 736.115 109.725 727.503 c 1
EndSplineSet
Fore
SplineSet
83.6016 726.4 m 1
 226.201 460 374.062 229.324 559.868 -29.333 c 1
 507.131 -45.7891 449.201 -46.667 387.205 -34.6719 c 1
 219.01 256.756 109.201 452 -90 727.202 c 1
 -39.999 736.5 25.6016 736.5 83.6016 726.4 c 1
EndSplineSet
Validated: 33
EndChar

StartChar: bracketright
Encoding: 93 93 60
Width: 488
VWidth: 1000
Flags: HMW
LayerCount: 2
Fore
SplineSet
268.004 -24.9297 m 1
 147.689 657.408 l 1
 -50 657.408 l 1
 -46.7324 712.828 -27.0693 758.469 -0.600586 802.479 c 1
 236.21 802.479 l 1
 380.093 -13.5215 l 1
 368.482 -77.0898 354.765 -119.47 324.554 -170 c 1
 71.4453 -170 l 1
 75.001 -116.21 94.0879 -67.3096 124.104 -24.9297 c 1
 268.004 -24.9297 l 1
EndSplineSet
Validated: 1
EndChar

StartChar: asciicircum
Encoding: 94 94 61
Width: 1000
VWidth: 1000
Flags: W
HStem: 694 20G<447 552>
LayerCount: 2
Fore
SplineSet
552 714 m 1
 797 438 l 1
 746 438 l 1
 499 632 l 1
 252 438 l 1
 201 438 l 1
 447 714 l 1
 552 714 l 1
EndSplineSet
Validated: 1
EndChar

StartChar: underscore
Encoding: 95 95 62
Width: 500
VWidth: 1000
Flags: W
HStem: -236 84<0 500>
LayerCount: 2
Fore
SplineSet
500 -152 m 1
 500 -236 l 1
 0 -236 l 1
 0 -152 l 1
 500 -152 l 1
EndSplineSet
Validated: 1
EndChar

StartChar: grave
Encoding: 96 96 63
Width: 500
VWidth: 1000
Flags: W
HStem: 722 20G<86 210>
LayerCount: 2
Fore
SplineSet
86 742 m 1
 210 742 l 1
 307 552 l 1
 239 552 l 1
 86 742 l 1
EndSplineSet
Validated: 1
EndChar

StartChar: a
Encoding: 97 97 64
Width: 544
VWidth: 1000
Flags: W
HStem: -9 77<171 246> 0 21G<356 534> 446 53<248 281>
VStem: 40 132<120 143> 63 138<374 392> 343 125<97 261 311 348>
LayerCount: 2
Fore
SplineSet
343 57 m 1x6c
 279 14 225 -9 171 -9 c 0
 94 -9 40 45 40 121 c 0xb4
 40 236 135 265 344 312 c 1
 344 342 l 2
 344 414 315 446 249 446 c 0
 234 446 219 444 201 440 c 1
 201 346 l 1
 109 346 l 2
 79 346 63 356 63 383 c 0
 63 440 149 499 281 499 c 0
 421 499 468 450 468 322 c 2
 468 63 l 1
 481 49 l 1
 534 44 l 1
 534 0 l 1
 356 0 l 1
 343 57 l 1x6c
343 98 m 1
 343 261 l 1
 225 235 172 209 172 143 c 0
 172 97 200 68 246 68 c 0
 272 68 304 78 343 98 c 1
EndSplineSet
Validated: 1
EndChar

StartChar: b
Encoding: 98 98 65
Width: 577
VWidth: 1000
Flags: W
HStem: -1 55<205 250> 719 20G<157 205>
VStem: 81 124<53 412 453 653> 413 134<244 271>
LayerCount: 2
Fore
SplineSet
157 739 m 1
 205 739 l 1
 205 453 l 1
 259 483 306 498 350 498 c 0
 464 498 547 406 547 271 c 0
 547 155 492 69 389 23 c 0
 352 7 296 -1 219 -1 c 0
 192 -1 l 2
 81 1 l 1
 81 653 l 1
 9 653 l 1
 9 692 l 1
 157 739 l 1
205 54 m 1
 216 53 227 53 237 53 c 0
 358 53 413 114 413 245 c 0
 413 359 360 420 268 420 c 0
 250 420 229 417 205 412 c 1
 205 54 l 1
EndSplineSet
Validated: 1
EndChar

StartChar: c
Encoding: 99 99 66
Width: 476
VWidth: 1000
Flags: W
HStem: -8 79<275 325> 448 49<290 308>
VStem: 35 136<236 264> 327 131<375 393>
LayerCount: 2
Fore
SplineSet
464 45 m 1
 400 10 339 -8 275 -8 c 0
 130 -8 35 93 35 238 c 0
 35 390 143 497 293 497 c 0
 396 497 458 449 458 388 c 0
 458 349 429 320 386 320 c 0
 364 320 345 326 327 339 c 1
 327 445 l 1
 317 447 309 448 302 448 c 0
 232 448 171 376 171 262 c 0
 171 142 232 71 325 71 c 0
 368 71 415 86 464 116 c 1
 464 45 l 1
EndSplineSet
Validated: 1
EndChar

StartChar: d
Encoding: 100 100 67
Width: 596
VWidth: 1000
Flags: W
HStem: -9 85<231 305> 0 21G<389 576> 444 56<294 317> 719 20G<465 511>
VStem: 37 134<230 255> 389 122<94 429 490 652>
LayerCount: 2
Fore
SplineSet
389 652 m 1xbc
 316 652 l 1
 316 692 l 1
 465 739 l 1
 511 739 l 1
 511 64 l 1
 525 48 l 1
 576 44 l 1
 576 0 l 1
 389 0 l 1x7c
 389 56 l 1
 332 14 282 -9 231 -9 c 0
 119 -9 37 88 37 232 c 0
 37 393 143 500 295 500 c 0
 322 500 353 497 389 490 c 1
 389 652 l 1xbc
389 95 m 1
 389 429 l 1
 360 439 336 444 315 444 c 0
 230 444 171 372 171 253 c 0
 171 141 222 76 305 76 c 0xbc
 329 76 357 83 389 95 c 1
EndSplineSet
Validated: 1
EndChar

StartChar: e
Encoding: 101 101 68
Width: 524
VWidth: 1000
Flags: W
HStem: -9 78<283 326> 255 53<170 361> 445 55<260 286>
VStem: 37 128<230 256>
LayerCount: 2
Fore
SplineSet
491 124 m 1
 491 50 l 1
 424 11 354 -9 284 -9 c 0
 135 -9 37 91 37 242 c 0
 37 395 140 500 284 500 c 0
 415 500 492 418 492 274 c 0
 492 268 492 261 492 255 c 1
 165 255 l 1
 165 252 l 0
 165 137 227 69 326 69 c 0
 379 69 433 87 491 124 c 1
361 308 m 1
 361 312 361 315 361 319 c 0
 361 402 329 445 274 445 c 0
 214 445 173 395 170 308 c 1
 361 308 l 1
EndSplineSet
Validated: 1
EndChar

StartChar: f
Encoding: 102 102 69
Width: 341
VWidth: 1000
Flags: W
HStem: 0 21G<31 301> 414 60<218 351>
VStem: 95 123<66 414 482.125 510.167>
LayerCount: 2
Fore
SplineSet
31 0 m 1
 31 46 l 1
 81 51 l 1
 95 67 l 1
 95 414 l 1
 30 414 l 1
 30 452 l 1
 95 482 l 1
 95 578 128 650 197 701 c 0
 234 729 277 743 318 743 c 0
 376 743 412 713 412 670 c 0
 412 643 392 621 354 608 c 1
 257 694 l 1
 231 667 218 616 218 542 c 0
 218 540 218 537 218 534 c 2
 218 474 l 1
 352 474 l 1
 352 414 l 1
 218 414 l 1
 218 66 l 1
 234 51 l 1
 301 46 l 1
 301 0 l 1
 31 0 l 1
EndSplineSet
Validated: 1
EndChar

StartChar: g
Encoding: 103 103 70
Width: 551
VWidth: 1000
Flags: W
HStem: -217 53<240 272> 168 45<255 275> 411 57<447 555> 450 47<255 275>
VStem: 34 122<-81 -64> 55 128<323 344> 346 123<323 344> 391 119<-70 -40>
LayerCount: 2
Fore
SplineSet
407 468 m 1xe4
 555 468 l 1
 555 411 l 1
 447 411 l 1
 462 385 469 360 469 334 c 0xe6
 469 238 389 168 257 168 c 0
 248 168 238 168 228 169 c 1
 223 156 220 144 220 132 c 0
 220 124 221 115 223 105 c 1
 291 96 l 2
 436 75 510 45 510 -40 c 0
 510 -134 402 -217 241 -217 c 0
 109 -217 34 -162 34 -80 c 0xe9
 34 -18 73 24 137 30 c 1
 128 49 124 66 124 80 c 0
 124 113 142 142 179 175 c 1
 98 198 55 253 55 325 c 0
 55 427 136 497 269 497 c 0xd4
 312 497 358 488 407 468 c 1xe4
267 450 m 0xd6
 217 450 183 407 183 334 c 0
 183 258 217 213 265 213 c 0
 312 213 346 259 346 335 c 0
 346 407 311 450 267 450 c 0xd6
198 19 m 1
 170 -4 156 -32 156 -64 c 0
 156 -118 205 -164 272 -164 c 0
 344 -164 391 -121 391 -70 c 0xc9
 391 -21 354 -7 283 5 c 2
 198 19 l 1
EndSplineSet
Validated: 1
EndChar

StartChar: h
Encoding: 104 104 71
Width: 597
VWidth: 1000
Flags: W
HStem: 0 21G<24 271 341 586> 411 87<308 383> 719 20G<164 212>
VStem: 89 123<63 394 437 653> 398 122<63 321>
LayerCount: 2
Fore
SplineSet
164 739 m 1
 212 739 l 1
 212 437 l 1
 284 476 338 498 383 498 c 0
 475 498 520 443 520 332 c 2
 520 64 l 1
 533 49 l 1
 586 45 l 1
 586 0 l 1
 341 0 l 1
 341 45 l 1
 384 49 l 1
 398 64 l 1
 398 303 l 2
 398 377 370 411 308 411 c 0
 282 411 250 405 212 394 c 1
 212 64 l 1
 227 49 l 1
 271 45 l 1
 271 0 l 1
 24 0 l 1
 24 45 l 1
 75 49 l 1
 89 64 l 1
 89 653 l 1
 16 653 l 1
 16 692 l 1
 164 739 l 1
EndSplineSet
Validated: 1
EndChar

StartChar: i
Encoding: 105 105 72
Width: 305
VWidth: 1000
Flags: W
HStem: 0 21G<30 292> 476 20G<173 221> 575 149<157 175>
VStem: 98 123<63 409>
LayerCount: 2
Fore
SplineSet
162 724 m 0
 207 724 237 692 237 651 c 0
 237 606 205 575 163 575 c 0
 123 575 90 605 90 649 c 0
 90 692 121 724 162 724 c 0
173 496 m 1
 221 496 l 1
 221 64 l 1
 236 49 l 1
 292 45 l 1
 292 0 l 1
 30 0 l 1
 30 45 l 1
 84 49 l 1
 98 64 l 1
 98 409 l 1
 32 409 l 1
 32 449 l 1
 173 496 l 1
EndSplineSet
Validated: 1
EndChar

StartChar: j
Encoding: 106 106 73
Width: 297
VWidth: 1000
Flags: W
HStem: 476 20G<189 231> 575 149<159 179>
VStem: 109 122<57 409>
LayerCount: 2
Fore
SplineSet
109 409 m 1
 38 409 l 1
 38 448 l 1
 189 496 l 1
 231 496 l 1
 231 98 l 2
 231 -2 222 -76 177 -134 c 0
 138 -184 75 -214 11 -214 c 0
 -45 -214 -80 -184 -80 -144 c 0
 -80 -112 -58 -85 -22 -78 c 1
 76 -169 l 1
 101 -135 109 -69 109 29 c 2
 109 409 l 1
94 649 m 0
 94 693 124 724 169 724 c 0
 210 724 242 692 242 648 c 0
 242 607 208 575 167 575 c 0
 127 575 94 605 94 649 c 0
EndSplineSet
Validated: 1
EndChar

StartChar: k
Encoding: 107 107 74
Width: 553
VWidth: 1000
Flags: W
HStem: 0 21G<25 277 379 571> 466 20G<328 532> 719 20G<172 214>
VStem: 91 123<63 225 259 653>
LayerCount: 2
Fore
SplineSet
25 0 m 1
 25 44 l 1
 77 49 l 1
 91 64 l 1
 91 653 l 1
 18 653 l 1
 18 692 l 1
 172 739 l 1
 214 739 l 1
 214 259 l 1
 236 259 l 1
 379 426 l 1
 372 437 l 1
 328 442 l 1
 328 486 l 1
 532 486 l 1
 532 442 l 1
 467 434 l 1
 353 307 l 1
 512 49 l 1
 571 44 l 1
 571 0 l 1
 379 0 l 1
 379 39 l 1
 263 226 l 1
 214 226 l 1
 214 62 l 1
 227 48 l 1
 277 44 l 1
 277 0 l 1
 25 0 l 1
EndSplineSet
Validated: 1
EndChar

StartChar: l
Encoding: 108 108 75
Width: 304
VWidth: 1000
Flags: W
HStem: 0 21G<23 291> 719 20G<174 218>
VStem: 95 123<65 652>
LayerCount: 2
Fore
SplineSet
23 0 m 1
 23 44 l 1
 81 50 l 1
 95 64 l 1
 95 652 l 1
 23 652 l 1
 23 691 l 1
 174 739 l 1
 218 739 l 1
 218 66 l 1
 233 50 l 1
 291 44 l 1
 291 0 l 1
 23 0 l 1
EndSplineSet
Validated: 1
EndChar

StartChar: m
Encoding: 109 109 76
Width: 892
VWidth: 1000
Flags: W
HStem: 0 21G<31 276 339 575 637 883> 412 88<304 384 602 678> 476 20G<172 220>
VStem: 96 124<63 394> 394 122<65 332> 694 123<63 321>
LayerCount: 2
Fore
SplineSet
501 430 m 1xdc
 581 476 641 498 678 498 c 0
 771 498 817 443 817 332 c 2
 817 64 l 1
 830 49 l 1
 883 45 l 1
 883 0 l 1
 637 0 l 1
 637 45 l 1
 680 49 l 1
 694 64 l 1
 694 303 l 2
 694 378 668 411 602 411 c 0
 577 411 549 404 516 392 c 1
 516 64 l 1
 530 49 l 1
 575 44 l 1
 575 0 l 1
 339 0 l 1
 339 45 l 1
 380 49 l 1
 394 66 l 1
 394 309 l 2
 394 379 368 412 304 412 c 0xdc
 280 412 252 406 220 394 c 1
 220 64 l 1
 234 49 l 1
 276 45 l 1
 276 0 l 1
 31 0 l 1
 31 45 l 1
 82 49 l 1
 96 64 l 1
 96 409 l 1
 31 409 l 1
 31 449 l 1
 172 496 l 1
 220 496 l 1xbc
 220 437 l 1
 288 477 340 500 384 500 c 0
 434 500 474 476 501 430 c 1xdc
EndSplineSet
Validated: 1
EndChar

StartChar: n
Encoding: 110 110 77
Width: 605
VWidth: 1000
Flags: W
HStem: 0 21G<31 278 348 593> 411 87<315 391> 476 20G<172 220>
VStem: 96 124<63 394> 405 122<63 321>
LayerCount: 2
Fore
SplineSet
31 0 m 1xd8
 31 45 l 1
 82 49 l 1
 96 64 l 1
 96 409 l 1
 28 409 l 1
 28 449 l 1
 172 496 l 1
 220 496 l 1xb8
 220 437 l 1
 291 476 347 498 391 498 c 0
 483 498 527 443 527 332 c 2
 527 64 l 1
 540 49 l 1
 593 45 l 1
 593 0 l 1
 348 0 l 1
 348 45 l 1
 391 49 l 1
 405 64 l 1
 405 303 l 2
 405 377 378 411 315 411 c 0
 290 411 258 405 220 394 c 1
 220 64 l 1
 234 49 l 1
 278 45 l 1
 278 0 l 1
 31 0 l 1xd8
EndSplineSet
Validated: 1
EndChar

StartChar: o
Encoding: 111 111 78
Width: 577
VWidth: 1000
Flags: W
HStem: -8 53<276 298> 446 53<286 298>
VStem: 37 139<231 265> 409 138<215 265>
LayerCount: 2
Fore
SplineSet
296 499 m 0
 449 499 547 400 547 241 c 0
 547 93 446 -8 288 -8 c 0
 138 -8 37 92 37 243 c 0
 37 397 139 499 296 499 c 0
292 446 m 0
 221 446 176 376 176 247 c 0
 176 116 221 45 291 45 c 0
 365 45 409 114 409 244 c 0
 409 375 363 446 292 446 c 0
EndSplineSet
Validated: 1
EndChar

StartChar: p
Encoding: 112 112 79
Width: 591
VWidth: 1000
Flags: W
HStem: -219 21G<23 290> -1 54<275 294> 413 86<292 371> 476 20G<168 213>
VStem: 91 122<-154 5 59 394> 424 136<244 266>
LayerCount: 2
Fore
SplineSet
23 -219 m 1xec
 23 -173 l 1
 77 -168 l 1
 91 -153 l 1
 91 409 l 1
 22 409 l 1
 22 449 l 1
 168 496 l 1
 213 496 l 1xdc
 213 436 l 1
 272 477 322 499 371 499 c 0
 477 499 560 403 560 263 c 0
 560 103 457 -1 295 -1 c 0
 273 -1 246 1 213 5 c 1
 213 -155 l 1
 228 -169 l 1
 291 -173 l 1
 290 -219 l 1
 23 -219 l 1xec
213 60 m 1
 236 55 257 53 277 53 c 0
 365 53 424 126 424 246 c 0
 424 353 373 413 292 413 c 0xec
 269 413 243 406 213 394 c 1
 213 60 l 1
EndSplineSet
Validated: 1
EndChar

StartChar: q
Encoding: 113 113 80
Width: 575
VWidth: 1000
Flags: W
HStem: -218 21G<304 571> -4 79<234 313> 444 55<324 353>
VStem: 37 135<227 252> 383 123<-155 43 81 439>
LayerCount: 2
Fore
SplineSet
509 486 m 1
 507 452 506 433 506 428 c 2
 506 -155 l 1
 521 -169 l 1
 571 -173 l 1
 571 -218 l 1
 304 -218 l 1
 304 -172 l 1
 368 -168 l 1
 383 -154 l 1
 383 43 l 1
 327 12 278 -4 234 -4 c 0
 121 -4 37 90 37 229 c 0
 37 398 150 499 353 499 c 0
 398 499 449 494 509 486 c 1
383 439 m 1
 365 442 349 444 333 444 c 0
 229 444 172 375 172 250 c 0
 172 137 226 75 313 75 c 0
 332 75 356 77 383 82 c 1
 383 439 l 1
EndSplineSet
Validated: 1
EndChar

StartChar: r
Encoding: 114 114 81
Width: 421
VWidth: 1000
Flags: W
HStem: 0 21G<29 305> 343 155<355 369.663> 476 20G<171 219>
VStem: 96 123<63 351>
LayerCount: 2
Fore
SplineSet
29 0 m 1xd0
 29 45 l 1
 82 49 l 1
 96 64 l 1
 96 409 l 1
 24 409 l 1
 24 449 l 1
 171 496 l 1
 219 496 l 1
 215 394 l 1
 251 433 291 467 332 496 c 1xb0
 339 497 347 498 354 498 c 0
 376 498 398 492 420 481 c 1
 407 343 l 1
 355 343 l 1
 340 368 319 379 290 379 c 0
 274 379 250 370 219 351 c 1
 219 64 l 1
 234 49 l 1
 305 45 l 1
 305 0 l 1
 29 0 l 1xd0
EndSplineSet
Validated: 1
EndChar

StartChar: s
Encoding: 115 115 82
Width: 447
VWidth: 1000
Flags: W
HStem: -11 55<200 218> 444 56<232 264>
VStem: 48 123<351 384> 292 118<116 154>
LayerCount: 2
Fore
SplineSet
395 475 m 1
 395 342 l 1
 335 342 l 1
 325 417 l 1
 313 428 l 1
 292 438 270 444 247 444 c 0
 198 444 171 421 171 384 c 0
 171 342 205 325 264 296 c 0
 353 253 410 226 410 154 c 0
 410 53 335 -11 206 -11 c 0
 158 -11 103 -3 41 14 c 1
 41 162 l 1
 102 162 l 1
 113 76 l 1
 123 65 l 1
 149 51 177 44 207 44 c 0
 261 44 292 72 292 116 c 0
 292 170 238 180 160 219 c 0
 86 256 48 291 48 351 c 0
 48 437 121 500 244 500 c 0
 294 500 344 492 395 475 c 1
EndSplineSet
Validated: 1
EndChar

StartChar: t
Encoding: 116 116 83
Width: 358
VWidth: 1000
Flags: W
HStem: 414 60<208 356>
VStem: 84 124<138 414>
LayerCount: 2
Fore
SplineSet
84 414 m 1
 19 414 l 1
 19 452 l 1
 93 494 l 1
 145 598 l 1
 208 598 l 1
 208 474 l 1
 356 474 l 1
 356 414 l 1
 208 414 l 1
 208 165 l 2
 208 94 225 68 291 68 c 0
 315 68 336 70 356 75 c 1
 356 27 l 1
 296 5 244 -5 203 -5 c 0
 170 -5 143 1 120 17 c 0
 85 40 84 72 84 123 c 2
 84 414 l 1
EndSplineSet
Validated: 1
EndChar

StartChar: u
Encoding: 117 117 84
Width: 600
VWidth: 1000
Flags: W
HStem: -9 86<225 307> 0 21G<393 582> 479 20G<164 212 470 516>
VStem: 88 124<166 412> 393 123<92 412>
LayerCount: 2
Fore
SplineSet
164 499 m 1xb8
 212 499 l 1
 212 189 l 2
 212 111 238 77 307 77 c 0xb8
 332 77 360 83 393 93 c 1
 393 412 l 1
 328 412 l 1
 328 451 l 1
 470 499 l 1
 516 499 l 1
 516 64 l 1
 530 49 l 1
 582 45 l 1
 582 0 l 1
 393 0 l 1x78
 393 55 l 1
 330 14 278 -9 225 -9 c 0
 132 -9 88 47 88 162 c 2
 88 412 l 1
 23 412 l 1
 23 451 l 1
 164 499 l 1xb8
EndSplineSet
Validated: 1
EndChar

StartChar: v
Encoding: 118 118 85
Width: 513
VWidth: 1000
Flags: W
HStem: 0 21G<214 304> 467 20G<-6 248 344 534>
LayerCount: 2
Fore
SplineSet
-6 487 m 1
 248 487 l 1
 248 441 l 1
 196 436 l 1
 185 423 l 1
 289 131 l 1
 403 422 l 1
 395 436 l 1
 344 441 l 1
 344 487 l 1
 534 487 l 1
 534 441 l 1
 476 434 l 1
 304 0 l 1
 214 0 l 1
 54 435 l 1
 -6 441 l 1
 -6 487 l 1
EndSplineSet
Validated: 1
EndChar

StartChar: w
Encoding: 119 119 86
Width: 799
VWidth: 1000
Flags: W
HStem: 0 21G<188 288 518 619> 467 20G<-1 247 385 485 622 811>
LayerCount: 2
Fore
SplineSet
-1 487 m 1
 247 487 l 1
 247 441 l 1
 198 434 l 1
 187 420 l 1
 268 132 l 1
 385 487 l 1
 485 487 l 1
 594 132 l 1
 682 421 l 1
 675 435 l 1
 622 441 l 1
 622 487 l 1
 811 487 l 1
 811 441 l 1
 755 434 l 1
 619 0 l 1
 518 0 l 1
 407 359 l 1
 288 0 l 1
 188 0 l 1
 59 435 l 1
 -1 441 l 1
 -1 487 l 1
EndSplineSet
Validated: 1
EndChar

StartChar: x
Encoding: 120 120 87
Width: 531
VWidth: 1000
Flags: W
HStem: 0 21G<11 205 297 531> 467 20G<14 255 328 512>
LayerCount: 2
Fore
SplineSet
14 487 m 1
 255 487 l 1
 255 445 l 1
 217 439 l 1
 212 428 l 1
 292 309 l 1
 379 434 l 1
 328 443 l 1
 328 487 l 1
 512 487 l 1
 512 441 l 1
 457 434 l 1
 329 268 l 1
 478 53 l 1
 531 44 l 1
 531 0 l 1
 297 0 l 1
 297 39 l 1
 332 48 l 1
 336 58 l 1
 248 192 l 1
 154 54 l 1
 205 44 l 1
 205 0 l 1
 11 0 l 1
 11 44 l 1
 70 55 l 1
 210 234 l 1
 71 433 l 1
 14 441 l 1
 14 487 l 1
EndSplineSet
Validated: 1
EndChar

StartChar: y
Encoding: 121 121 88
Width: 515
VWidth: 1000
Flags: W
HStem: 466 20G<-4 250 344 536>
LayerCount: 2
Fore
SplineSet
-4 486 m 1
 250 486 l 1
 250 443 l 1
 199 437 l 1
 189 423 l 1
 297 140 l 1
 406 422 l 1
 397 437 l 1
 344 443 l 1
 344 486 l 1
 536 486 l 1
 536 443 l 1
 482 434 l 1
 289 -35 l 2
 240 -153 169 -219 103 -219 c 0
 54 -219 17 -183 17 -145 c 0
 17 -116 36 -91 69 -74 c 1
 156 -134 l 1
 182 -113 209 -72 234 -12 c 1
 56 434 l 1
 -4 443 l 1
 -4 486 l 1
EndSplineSet
Validated: 1
EndChar

StartChar: z
Encoding: 122 122 89
Width: 495
VWidth: 1000
Flags: W
HStem: 0 56<185 370> 432 54<141 303>
LayerCount: 2
Fore
SplineSet
46 0 m 1
 46 62 l 1
 304 432 l 1
 142 432 l 1
 129 418 l 1
 119 335 l 1
 54 335 l 1
 54 486 l 1
 450 486 l 1
 450 434 l 1
 185 56 l 1
 370 56 l 1
 385 72 l 1
 397 164 l 1
 465 164 l 1
 465 0 l 1
 46 0 l 1
EndSplineSet
Validated: 1
EndChar

StartChar: braceleft
Encoding: 123 123 90
Width: 493
VWidth: 1000
Flags: W
HStem: -135 54<390 421> 685 20G<400 421>
VStem: 183 116<24 138 440 554>
LayerCount: 2
Fore
SplineSet
421 705 m 1
 421 654 l 1
 322 651 298 619 298 529 c 2
 298 466 l 2
 298 361 255 308 153 291 c 1
 253 275 299 221 299 119 c 2
 299 46 l 2
 299 -49 320 -80 421 -81 c 1
 421 -134 l 1
 411 -134 401 -135 391 -135 c 0
 238 -135 183 -88 183 51 c 2
 183 132 l 2
 183 229 154 263 66 263 c 0
 59 263 53 263 46 263 c 1
 46 320 l 1
 53 320 60 320 66 320 c 0
 156 320 183 354 183 448 c 2
 183 532 l 2
 183 660 245 705 400 705 c 0
 421 705 l 1
EndSplineSet
Validated: 1
EndChar

StartChar: bar
Encoding: 124 124 91
Width: 500
VWidth: 1000
Flags: W
VStem: 207 87<-236 764>
LayerCount: 2
Fore
SplineSet
294 764 m 1
 294 -236 l 1
 207 -236 l 1
 207 764 l 1
 294 764 l 1
EndSplineSet
Validated: 1
EndChar

StartChar: braceright
Encoding: 125 125 92
Width: 493
VWidth: 1000
Flags: W
HStem: -134 53<62.1253 87.0763> 263 56<397 437> 685 20G<62 83>
VStem: 185 115<24 138 440 554>
LayerCount: 2
Fore
SplineSet
62 705 m 1
 83 705 l 0
 240 705 301 661 301 532 c 2
 301 448 l 2
 301 355 328 319 415 319 c 0
 422 319 429 320 437 320 c 1
 437 263 l 1
 430 263 424 263 417 263 c 0
 329 263 300 229 300 132 c 2
 300 51 l 2
 300 -88 245 -135 92 -135 c 0
 82 -135 72 -134 62 -134 c 1
 62 -81 l 1
 164 -80 185 -48 185 46 c 2
 185 119 l 2
 185 221 230 275 330 291 c 1
 227 309 186 361 186 466 c 2
 186 529 l 2
 186 620 160 651 62 654 c 1
 62 705 l 1
EndSplineSet
Validated: 1
EndChar

StartChar: asciitilde
Encoding: 126 126 93
Width: 833
VWidth: 1000
Flags: W
HStem: 224 84<447.507 665.894> 290 83<174.006 400.475>
LayerCount: 2
Fore
SplineSet
747 293 m 1x80
 682 248 621 224 561 224 c 0x80
 532 224 500 230 468 241 c 0
 399 264 339 290 275 290 c 0
 217 290 158 262 87 212 c 1
 87 303 l 1
 156 350 218 373 276 373 c 0x40
 333 373 378 358 419 344 c 0
 468 327 513 308 562 308 c 0
 620 308 679 334 747 383 c 1
 747 293 l 1x80
EndSplineSet
Validated: 1
EndChar

StartChar: afii57799
Encoding: 1456 1456 94
Width: 0
VWidth: 1000
Flags: HMW
AnchorPoint: "CtxAnchors_M_D1" -84.2451 0 mark 0
AnchorPoint: "ColumnToBaseMark" -85.3066 -93.5 basemark 0
AnchorPoint: "DotToBaseMark" -100.307 -93.5 basemark 0
AnchorPoint: "BarToBaseNarrowMark" -68.3066 -93.5 basemark 0
AnchorPoint: "BarToBaseMark" -88.3066 -93.5 basemark 0
AnchorPoint: "2DotsToBaseMark" 104.789 -93.5 mark 0
AnchorPoint: "DiaToBase1" 0 0 mark 0
LayerCount: 2
Back
SplineSet
-63 -89 m 1
 -47 -61 -27 -42 0 -25 c 1
 27 -42 47 -61 63 -89 c 1
 47 -116 27 -136 0 -152 c 1
 -27 -136 -47 -116 -63 -89 c 1
-63 -237 m 1
 -47 -209 -27 -190 0 -173 c 1
 27 -190 47 -209 63 -237 c 1
 47 -264 27 -284 0 -300 c 1
 -27 -284 -47 -264 -63 -237 c 1
EndSplineSet
Fore
SplineSet
-47.3066 -89 m 1
 -36.2441 -61 -19.5947 -42 4.4082 -25 c 1
 34.4053 -42 57.7559 -61 78.6934 -89 c 1
 67.4541 -116 50.9805 -136 26.8018 -152 c 1
 -3.01953 -136 -26.5459 -116 -47.3066 -89 c 1
-21.2109 -237 m 1
 -10.1475 -209 6.50195 -190 30.5049 -173 c 1
 60.502 -190 83.8525 -209 104.789 -237 c 1
 93.5508 -264 77.0771 -284 52.8984 -300 c 1
 23.0771 -284 -0.449219 -264 -21.2109 -237 c 1
EndSplineSet
Validated: 1
Comment: "+AAoA%BarToBaseMark+AD0A-41+AAoA%BarToBaseNarrowMark+AD0A-21+AAoA%ColumnToBaseMark+AD0A-38+AAoA%DotToBaseMark+AD0A-53" 
EndChar

StartChar: afii57801
Encoding: 1457 1457 95
Width: 0
VWidth: 1000
Flags: HMW
AnchorPoint: "ColumnToBaseMark" -258.978 -93.5 basemark 0
AnchorPoint: "DotToBaseMark" -273.978 -93.5 basemark 0
AnchorPoint: "BarToBaseMark" -261.978 -93.5 basemark 0
AnchorPoint: "2DotsToBaseMark" 278.459 -93.5 mark 0
AnchorPoint: "DiaToBase3" 0 0 mark 0
LayerCount: 2
Back
SplineSet
-236.67 -88.9961 m 1
 -220.67 -60.9961 -200.67 -41.9961 -173.67 -24.9961 c 1
 -146.67 -41.9961 -126.67 -60.9961 -110.67 -88.9961 c 1
 -126.67 -115.996 -146.67 -135.996 -173.67 -151.996 c 1
 -200.67 -135.996 -220.67 -115.996 -236.67 -88.9961 c 1
-69.3271 -88.998 m 1
 -53.3271 -60.998 -33.3271 -41.998 -6.32715 -24.998 c 1
 20.6729 -41.998 40.6729 -60.998 56.6729 -88.998 c 1
 40.6729 -115.998 20.6729 -135.998 -6.32715 -151.998 c 1
 -33.3271 -135.998 -53.3271 -115.998 -69.3271 -88.998 c 1
-152.998 -236.998 m 1
 -136.998 -208.998 -116.998 -189.998 -89.998 -172.998 c 1
 -62.998 -189.998 -42.998 -208.998 -26.998 -236.998 c 1
 -42.998 -263.998 -62.998 -283.998 -89.998 -299.998 c 1
 -116.998 -283.998 -136.998 -263.998 -152.998 -236.998 c 1
110.67 -88.998 m 1
 126.67 -60.998 146.67 -41.998 173.67 -24.998 c 1
 200.67 -41.998 220.67 -60.998 236.67 -88.998 c 1
 220.67 -115.998 200.67 -135.998 173.67 -151.998 c 1
 146.67 -135.998 126.67 -115.998 110.67 -88.998 c 1
110.67 -236.998 m 1
 126.67 -208.998 146.67 -189.998 173.67 -172.998 c 1
 200.67 -189.998 220.67 -208.998 236.67 -236.998 c 1
 220.67 -263.998 200.67 -283.998 173.67 -299.998 c 1
 146.67 -283.998 126.67 -263.998 110.67 -236.998 c 1
EndSplineSet
Fore
SplineSet
-220.978 -88.9961 m 1
 -209.915 -60.9961 -193.265 -41.9961 -169.263 -24.9961 c 1
 -139.265 -41.9961 -115.915 -60.9961 -94.9775 -88.9961 c 1
 -106.217 -115.996 -122.69 -135.996 -146.869 -151.996 c 1
 -176.69 -135.996 -200.217 -115.996 -220.978 -88.9961 c 1
-53.6348 -88.998 m 1
 -42.5713 -60.998 -25.9219 -41.998 -1.91895 -24.998 c 1
 28.0781 -41.998 51.4287 -60.998 72.3652 -88.998 c 1
 61.127 -115.998 44.6533 -135.998 20.4746 -151.998 c 1
 -9.34668 -135.998 -32.873 -115.998 -53.6348 -88.998 c 1
-111.209 -236.998 m 1
 -100.146 -208.998 -83.4961 -189.998 -59.4941 -172.998 c 1
 -29.4961 -189.998 -6.14648 -208.998 14.791 -236.998 c 1
 3.55176 -263.998 -12.9219 -283.998 -37.1006 -299.998 c 1
 -66.9219 -283.998 -90.4482 -263.998 -111.209 -236.998 c 1
126.362 -88.998 m 1
 137.426 -60.998 154.075 -41.998 178.078 -24.998 c 1
 208.075 -41.998 231.426 -60.998 252.362 -88.998 c 1
 241.124 -115.998 224.65 -135.998 200.472 -151.998 c 1
 170.65 -135.998 147.124 -115.998 126.362 -88.998 c 1
152.459 -236.998 m 1
 163.522 -208.998 180.172 -189.998 204.174 -172.998 c 1
 234.172 -189.998 257.521 -208.998 278.459 -236.998 c 1
 267.22 -263.998 250.746 -283.998 226.567 -299.998 c 1
 196.746 -283.998 173.22 -263.998 152.459 -236.998 c 1
EndSplineSet
Validated: 1
Substitution2: "WideMarkToNarrow subtable" hatafsegol.narrow
EndChar

StartChar: afii57800
Encoding: 1458 1458 96
Width: 0
VWidth: 1000
Flags: HMW
AnchorPoint: "ColumnToBaseMark" -241.5 -93.5 basemark 0
AnchorPoint: "DotToBaseMark" -256.5 -93.5 basemark 0
AnchorPoint: "2DotsToBaseMark" 274.432 -93.5 mark 0
AnchorPoint: "DiaToBase3" 0 0 mark 0
LayerCount: 2
Back
SplineSet
122.335 -88.998 m 1
 133.398 -60.998 150.048 -41.998 174.051 -24.998 c 1
 204.048 -41.998 227.398 -60.998 248.335 -88.998 c 1
 237.096 -115.998 220.623 -135.998 196.444 -151.998 c 1
 166.623 -135.998 143.096 -115.998 122.335 -88.998 c 1
148.432 -236.998 m 1
 159.494 -208.998 176.145 -189.998 200.146 -172.998 c 1
 230.145 -189.998 253.494 -208.998 274.432 -236.998 c 1
 263.192 -263.998 246.719 -283.998 222.54 -299.998 c 1
 192.719 -283.998 169.192 -263.998 148.432 -236.998 c 1
57.3604 -144.003 m 1
 -207.251 -144.003 l 1
 -209.142 -108.89 -204.574 -79.8057 -192.358 -49.1328 c 1
 72.2539 -49.1328 l 1
 74.1436 -84.2471 69.5771 -113.331 57.3604 -144.003 c 1
EndSplineSet
Fore
SplineSet
49 -144.003 m 1
 -215.5 -144.003 l 1
 -211.199 -108.89 -201.502 -79.8057 -183.879 -49.1328 c 1
 80.623 -49.1328 l 1
 76.3203 -84.2471 66.625 -113.331 49 -144.003 c 1
122.335 -88.998 m 1
 133.398 -60.998 150.048 -41.998 174.051 -24.998 c 1
 204.048 -41.998 227.398 -60.998 248.335 -88.998 c 1
 237.096 -115.998 220.623 -135.998 196.444 -151.998 c 1
 166.623 -135.998 143.096 -115.998 122.335 -88.998 c 1
148.432 -236.998 m 1
 159.494 -208.998 176.145 -189.998 200.146 -172.998 c 1
 230.145 -189.998 253.494 -208.998 274.432 -236.998 c 1
 263.192 -263.998 246.719 -283.998 222.54 -299.998 c 1
 192.719 -283.998 169.192 -263.998 148.432 -236.998 c 1
EndSplineSet
Validated: 1
Substitution2: "WideMarkToNarrow subtable" hatafpatah.narrow
EndChar

StartChar: afii57802
Encoding: 1459 1459 97
Width: 0
VWidth: 1000
Flags: HMW
AnchorPoint: "ColumnToBaseMark" -251.784 -93.5 basemark 0
AnchorPoint: "DotToBaseMark" -266.784 -93.5 basemark 0
AnchorPoint: "2DotsToBaseMark" 284.435 -93.5 mark 0
AnchorPoint: "DiaToBase3" 0 0 mark 0
LayerCount: 2
Back
SplineSet
59.5479 -144 m 9
 -11.6289 -144 l 5
 7.8877 -254.684 l 5
 -8.13965 -257.455 -22.1045 -258.636 -38.8506 -258.636 c 4
 -55.5977 -258.636 -69.9795 -257.455 -86.9844 -254.684 c 5
 -106.5 -144 l 5
 -225.784 -144 l 1
 -221.482 -108.887 -211.787 -79.8027 -194.16 -49.1299 c 1
 91.1689 -49.1299 l 1
 86.8672 -84.2441 77.1729 -113.328 59.5479 -144 c 9
132.338 -88.998 m 1
 143.4 -60.998 160.051 -41.998 184.053 -24.998 c 1
 214.051 -41.998 237.4 -60.998 258.338 -88.998 c 1
 247.099 -115.998 230.625 -135.998 206.446 -151.998 c 1
 176.625 -135.998 153.099 -115.998 132.338 -88.998 c 1
158.435 -236.998 m 1
 169.497 -208.998 186.146 -189.998 210.149 -172.998 c 1
 240.146 -189.998 263.497 -208.998 284.435 -236.998 c 1
 273.195 -263.998 256.722 -283.998 232.543 -299.998 c 1
 202.722 -283.998 179.195 -263.998 158.435 -236.998 c 1
EndSplineSet
Fore
SplineSet
59.5479 -144 m 9
 -21.6289 -144 l 1
 -2.1123 -254.684 l 1
 -18.1396 -257.455 -32.1045 -258.636 -48.8506 -258.636 c 0
 -65.5977 -258.636 -79.9795 -257.455 -96.9844 -254.684 c 1
 -116.5 -144 l 1
 -225.784 -144 l 1
 -221.482 -108.887 -211.787 -79.8027 -194.16 -49.1299 c 1
 91.1689 -49.1299 l 1
 86.8672 -84.2441 77.1729 -113.328 59.5479 -144 c 9
132.338 -88.998 m 1
 143.4 -60.998 160.051 -41.998 184.053 -24.998 c 1
 214.051 -41.998 237.4 -60.998 258.338 -88.998 c 1
 247.099 -115.998 230.625 -135.998 206.446 -151.998 c 1
 176.625 -135.998 153.099 -115.998 132.338 -88.998 c 1
158.435 -236.998 m 1
 169.497 -208.998 186.146 -189.998 210.149 -172.998 c 1
 240.146 -189.998 263.497 -208.998 284.435 -236.998 c 1
 273.195 -263.998 256.722 -283.998 232.543 -299.998 c 1
 202.722 -283.998 179.195 -263.998 158.435 -236.998 c 1
EndSplineSet
Validated: 1
Substitution2: "WideMarkToNarrow subtable" hatafqamats.narrow
EndChar

StartChar: afii57793
Encoding: 1460 1460 98
Width: 0
VWidth: 995
Flags: HMW
AnchorPoint: "CtxAnchors_M_D1" -84.2451 0 mark 0
AnchorPoint: "CtxAnchors_Yerushalam" 0 0 mark 0
AnchorPoint: "ColumnToBaseMark" -84.4258 -93.5 basemark 0
AnchorPoint: "DotToBaseMark" -99.4258 -93.5 basemark 0
AnchorPoint: "BarToBaseMark" -87.4258 -93.5 basemark 0
AnchorPoint: "DotToBaseMark" 79.5742 -93.5 mark 0
AnchorPoint: "DiaToBase1" 0 0 mark 0
LayerCount: 2
Back
SplineSet
-63 -93.998 m 1
 -47 -65.998 -27 -46.998 0 -29.998 c 1
 27 -46.998 47 -65.998 63 -93.998 c 1
 47 -120.998 27 -140.998 0 -156.998 c 1
 -27 -140.998 -47 -120.998 -63 -93.998 c 1
EndSplineSet
Fore
SplineSet
-46.4258 -93.998 m 1
 -35.3623 -65.998 -18.7129 -46.998 5.28906 -29.998 c 1
 35.2871 -46.998 58.6377 -65.998 79.5742 -93.998 c 1
 68.335 -120.998 51.8613 -140.998 27.6826 -156.998 c 1
 -2.13867 -140.998 -25.665 -120.998 -46.4258 -93.998 c 1
EndSplineSet
Validated: 1
Comment: "+AAoA%BarToBaseMark+AD0A-41+AAoA%ColumnToBaseMark+AD0A-38+AAoA%DotToBaseMark+AD0A-53" 
EndChar

StartChar: afii57794
Encoding: 1461 1461 99
Width: 0
VWidth: 1000
Flags: HMW
AnchorPoint: "CtxAnchors_M_D2" -84.2451 0 mark 0
AnchorPoint: "ColumnToBaseMark" -173.425 -93.5 basemark 0
AnchorPoint: "DotToBaseMark" -188.425 -93.5 basemark 0
AnchorPoint: "BarToBaseMark" -176.425 -93.5 basemark 0
AnchorPoint: "DotToBaseMark" 168.575 -93.5 mark 0
AnchorPoint: "DiaToBase2" 0 0 mark 0
LayerCount: 2
Back
SplineSet
26 -94 m 5
 42 -66 62 -47 89 -30 c 5
 116 -47 136 -66 152 -94 c 5
 136 -121 116 -141 89 -157 c 5
 62 -141 42 -121 26 -94 c 5
-152 -94 m 5
 -136 -66 -116 -47 -89 -30 c 5
 -62 -47 -42 -66 -26 -94 c 5
 -42 -121 -62 -141 -89 -157 c 5
 -116 -141 -136 -121 -152 -94 c 5
EndSplineSet
Fore
SplineSet
42.5752 -94 m 5
 53.6377 -66 70.2871 -47 94.29 -30 c 5
 124.287 -47 147.638 -66 168.575 -94 c 5
 157.336 -121 140.862 -141 116.684 -157 c 5
 86.8623 -141 63.3359 -121 42.5752 -94 c 5
-135.425 -94 m 5
 -124.362 -66 -107.713 -47 -83.71 -30 c 5
 -53.7129 -47 -30.3623 -66 -9.4248 -94 c 5
 -20.6641 -121 -37.1377 -141 -61.3164 -157 c 5
 -91.1377 -141 -114.664 -121 -135.425 -94 c 5
EndSplineSet
Validated: 1
Substitution2: "WideMarkToNarrow subtable" tsere.narrow
EndChar

StartChar: afii57795
Encoding: 1462 1462 100
Width: 0
VWidth: 1000
Flags: HMW
AnchorPoint: "CtxAnchors_M_D2" -84.2451 0 mark 0
AnchorPoint: "ColumnToBaseMark" -173.425 -93.5 basemark 0
AnchorPoint: "DotToBaseMark" -188.425 -93.5 basemark 0
AnchorPoint: "BarToBaseMark" -176.425 -93.5 basemark 0
AnchorPoint: "DotToBaseMark" 168.575 -93.5 mark 0
AnchorPoint: "DiaToBase2" 0 0 mark 0
LayerCount: 2
Back
SplineSet
-152 -94 m 5
 -136 -66 -116 -47 -89 -30 c 5
 -62 -47 -42 -66 -26 -94 c 5
 -42 -121 -62 -141 -89 -157 c 5
 -116 -141 -136 -121 -152 -94 c 5
26 -94 m 5
 42 -66 62 -47 89 -30 c 5
 116 -47 136 -66 152 -94 c 5
 136 -121 116 -141 89 -157 c 5
 62 -141 42 -121 26 -94 c 5
-63 -227 m 1
 -47 -199 -27 -180 0 -163 c 1
 27 -180 47 -199 63 -227 c 1
 47 -254 27 -274 0 -290 c 1
 -27 -274 -47 -254 -63 -227 c 1
EndSplineSet
Fore
SplineSet
-135.425 -94 m 5
 -124.362 -66 -107.713 -47 -83.71 -30 c 5
 -53.7129 -47 -30.3623 -66 -9.4248 -94 c 5
 -20.6641 -121 -37.1377 -141 -61.3164 -157 c 5
 -91.1377 -141 -114.664 -121 -135.425 -94 c 5
42.5752 -94 m 5
 53.6377 -66 70.2871 -47 94.29 -30 c 5
 124.287 -47 147.638 -66 168.575 -94 c 5
 157.336 -121 140.862 -141 116.684 -157 c 5
 86.8623 -141 63.3359 -121 42.5752 -94 c 5
-22.9736 -227 m 1
 -11.9111 -199 4.73926 -180 28.7412 -163 c 1
 58.7393 -180 82.0889 -199 103.026 -227 c 1
 91.7871 -254 75.3135 -274 51.1348 -290 c 1
 21.3135 -274 -2.21289 -254 -22.9736 -227 c 1
EndSplineSet
Validated: 1
Substitution2: "WideMarkToNarrow subtable" segol.narrow
EndChar

StartChar: afii57798
Encoding: 1463 1463 101
Width: 0
VWidth: 1000
Flags: HMW
AnchorPoint: "CtxAnchors_M_D2" -78.2451 0 mark 0
AnchorPoint: "ColumnToBaseMark" -162.5 -93.5 basemark 0
AnchorPoint: "DotToBaseMark" -177.5 -93.5 basemark 0
AnchorPoint: "BarToBaseMark" 170.623 -93.5 mark 0
AnchorPoint: "DiaToBase2" 0 0 mark 0
LayerCount: 2
Back
SplineSet
146.886 -144.003 m 5
 -127.726 -144.003 l 5
 -129.616 -108.89 -125.047 -79.8057 -112.833 -49.1328 c 5
 161.78 -49.1328 l 5
 163.67 -84.2471 159.103 -113.331 146.886 -144.003 c 5
121.494 -144.003 m 1
 -153.117 -144.003 l 1
 -148.816 -108.89 -139.119 -79.8057 -121.496 -49.1328 c 1
 153.117 -49.1328 l 1
 148.814 -84.2471 139.119 -113.331 121.494 -144.003 c 1
EndSplineSet
Fore
SplineSet
139 -144.003 m 1
 -136.5 -144.003 l 1
 -132.199 -108.89 -122.502 -79.8057 -104.879 -49.1328 c 1
 170.623 -49.1328 l 1
 166.32 -84.2471 156.625 -113.331 139 -144.003 c 1
EndSplineSet
Validated: 1
Substitution2: "WideMarkToNarrow subtable" patah.narrow
Comment: "+AAoA%ColumnToBaseMark+AD0A-26+AAoA%DotToBaseMark+AD0A-41" 
EndChar

StartChar: afii57797
Encoding: 1464 1464 102
Width: 0
VWidth: 1000
Flags: HMW
AnchorPoint: "CtxAnchors_M_D2" -78.2451 0 mark 0
AnchorPoint: "ColumnToBaseMark" -167.328 -93.5 basemark 0
AnchorPoint: "DotToBaseMark" -182.328 -93.5 basemark 0
AnchorPoint: "BarToBaseMark" 175.625 -93.5 mark 0
AnchorPoint: "DiaToBase2" 0 0 mark 0
LayerCount: 2
Back
SplineSet
144.004 -144 m 9
 72.8271 -144 l 5
 92.3438 -254.684 l 5
 76.3164 -257.455 62.3516 -258.636 45.6055 -258.636 c 4
 28.8584 -258.636 14.4766 -257.455 -2.52832 -254.684 c 5
 -22.0439 -144 l 5
 -141.328 -144 l 1
 -137.026 -108.887 -127.331 -79.8027 -109.704 -49.1299 c 1
 175.625 -49.1299 l 1
 171.323 -84.2441 161.629 -113.328 144.004 -144 c 9
EndSplineSet
Fore
SplineSet
144.004 -144 m 9
 65.8271 -144 l 1
 85.3438 -254.684 l 1
 69.3164 -257.455 55.3516 -258.636 38.6055 -258.636 c 0
 21.8584 -258.636 7.47656 -257.455 -9.52832 -254.684 c 1
 -29.0439 -144 l 1
 -141.328 -144 l 1
 -137.026 -108.887 -127.331 -79.8027 -109.704 -49.1299 c 1
 175.625 -49.1299 l 1
 171.323 -84.2441 161.629 -113.328 144.004 -144 c 9
EndSplineSet
Validated: 1
Substitution2: "WideMarkToNarrow subtable" qamats.narrow
EndChar

StartChar: afii57806
Encoding: 1465 1465 103
Width: 0
VWidth: 1000
Flags: HMW
AnchorPoint: "DiaToBaseO" 0 0 mark 0
LayerCount: 2
Back
SplineSet
-62.998 692.408 m 5
 -46.998 720.408 -26.998 739.408 0.00195312 756.408 c 5
 27.002 739.408 47.002 720.408 63.002 692.408 c 5
 47.002 665.408 27.002 645.408 0.00195312 629.408 c 5
 -26.998 645.408 -46.998 665.408 -62.998 692.408 c 5
EndSplineSet
Fore
SplineSet
-185.088 692.408 m 5
 -174.025 720.408 -157.376 739.408 -133.373 756.408 c 5
 -103.376 739.408 -80.0254 720.408 -59.0879 692.408 c 5
 -70.3271 665.408 -86.8008 645.408 -110.979 629.408 c 5
 -140.801 645.408 -164.327 665.408 -185.088 692.408 c 5
EndSplineSet
Validated: 1
EndChar

StartChar: afii57796
Encoding: 1467 1467 104
Width: 0
VWidth: 1000
Flags: HMW
AnchorPoint: "CtxAnchors_M_D3Narrow" -63.7452 0 mark 0
AnchorPoint: "ColumnToBaseMark" -176.307 -93.5 basemark 0
AnchorPoint: "DotToBaseNarrowMark" -200.307 -93.5 basemark 0
AnchorPoint: "BarToBaseNarrowMark" -200.307 -93.5 basemark 0
AnchorPoint: "2DotsToBaseNarrowMark" 236.789 -93.5 mark 0
AnchorPoint: "DiaToBaseU" 0 0 mark 0
LayerCount: 2
Back
SplineSet
-63 -163 m 1
 -47 -135 -27 -116 0 -99 c 1
 27 -116 47 -135 63 -163 c 1
 47 -190 27 -210 0 -226 c 1
 -27 -210 -47 -190 -63 -163 c 1
-195 -89 m 1
 -179 -61 -159 -42 -132 -25 c 1
 -105 -42 -85 -61 -69 -89 c 1
 -85 -116 -105 -136 -132 -152 c 1
 -159 -136 -179 -116 -195 -89 c 1
69 -237 m 1
 85 -209 105 -190 132 -173 c 1
 159 -190 179 -209 195 -237 c 1
 179 -264 159 -284 132 -300 c 1
 105 -284 85 -264 69 -237 c 1
EndSplineSet
Fore
SplineSet
-34.2588 -163 m 1
 -23.1963 -135 -6.5459 -116 17.4561 -99 c 1
 47.4541 -116 70.8037 -135 91.7412 -163 c 1
 80.502 -190 64.0283 -210 39.8496 -226 c 1
 10.0283 -210 -13.498 -190 -34.2588 -163 c 1
-179.307 -89 m 1
 -168.244 -61 -151.595 -42 -127.592 -25 c 1
 -97.5947 -42 -74.2441 -61 -53.3066 -89 c 1
 -64.5459 -116 -81.0195 -136 -105.198 -152 c 1
 -135.02 -136 -158.546 -116 -179.307 -89 c 1
110.789 -237 m 1
 121.853 -209 138.502 -190 162.505 -173 c 1
 192.502 -190 215.853 -209 236.789 -237 c 1
 225.551 -264 209.077 -284 184.898 -300 c 1
 155.077 -284 131.551 -264 110.789 -237 c 1
EndSplineSet
Validated: 1
EndChar

StartChar: afii57807
Encoding: 1468 1468 105
Width: 0
VWidth: 1000
Flags: HMW
AnchorPoint: "DiaToBaseD" 0 0 mark 0
LayerCount: 2
Back
SplineSet
-66.0703 300 m 5
 -48.1504 327 -27 347.25 0 366.071 c 5
 28.3496 347.25 47.7002 327 66.0703 300 c 5
 45.9004 272.1 27 253.2 0 233.929 c 5
 -26.5498 251.85 -46.7998 272.55 -66.0703 300 c 5
EndSplineSet
Fore
SplineSet
-118.969 300 m 5
 -105.81 327 -88.2295 347.25 -64.5479 366.071 c 5
 -32.8799 347.25 -9.95898 327 13.1719 300 c 5
 -2.07812 272.1 -17.6455 253.2 -41.248 233.929 c 5
 -70.958 251.85 -94.8574 272.55 -118.969 300 c 5
EndSplineSet
Validated: 1
EndChar

StartChar: afii57839
Encoding: 1469 1469 106
Width: 0
VWidth: 1000
Flags: HMW
AnchorPoint: "CtxAnchors_D3Narrow_M" -212.71 0 mark 0
AnchorPoint: "CtxAnchors_D1_M" -95.0239 0 mark 0
AnchorPoint: "CtxAnchors_D2_M" -171.977 0 mark 0
AnchorPoint: "CtxAnchors_D2Narrow_M" -143.168 0 mark 0
AnchorPoint: "2DotsToBaseNarrowMark" -34.9141 -93.5 basemark 0
AnchorPoint: "DotToBaseMark" -101.914 -93.5 basemark 0
AnchorPoint: "DotToBaseNarrowMark" -58.9141 -93.5 basemark 0
AnchorPoint: "2DotsToBaseMark" -75.9141 -93.5 basemark 0
AnchorPoint: "BarToBaseNarrowMark" -65.9141 -93.5 basemark 0
AnchorPoint: "BarToBaseMark" -89.9141 -93.5 basemark 0
AnchorPoint: "ColumnToBaseMark" 92.5762 -93.5 mark 0
AnchorPoint: "DiaToBase1" 0 0 mark 0
LayerCount: 2
Back
SplineSet
47.4365 -256 m 1
 30.9199 -258.771 16.7471 -259.952 0.000976562 -259.952 c 0
 -16.7461 -259.952 -30.9199 -258.771 -47.4355 -256 c 1
 -47.4355 -54 l 1
 -30.9199 -51.2285 -16.7461 -50.0479 0.000976562 -50.0479 c 0
 16.7471 -50.0479 30.9199 -51.2285 47.4365 -54 c 1
 47.4365 -256 l 1
EndSplineSet
Fore
SplineSet
92.5762 -256 m 1
 76.5479 -258.771 62.584 -259.952 45.8379 -259.952 c 0
 29.0908 -259.952 14.708 -258.771 -2.2959 -256 c 1
 -37.9141 -54 l 1
 -21.8867 -51.2285 -7.9209 -50.0479 8.82617 -50.0479 c 0
 25.5723 -50.0479 39.9531 -51.2285 56.958 -54 c 1
 92.5762 -256 l 1
EndSplineSet
Validated: 1
Comment: "+AAoA%2DotsToBaseMark+AD0A-38+AAoA%2DotsToBaseNarrowMark+AD0A--3+AAoA%BarToBaseMark+AD0A-52+AAoA%BarToBaseNarrowMark+AD0A-28+AAoA%DotToBaseMark+AD0A-64+AAoA%DotToBaseNarrowMark+AD0A-21" 
EndChar

StartChar: afii57645
Encoding: 1470 1470 107
Width: 554
VWidth: 1000
Flags: HMW
LayerCount: 2
Back
SplineSet
-20 455 m 5
 -1.84961 518.5 29.7109 570.234 72.5654 618 c 5
 155.398 618.101 269.744 606.101 442.321 558.234 c 5
 425.381 509.234 392.61 454.5 358.73 414.5 c 5
 237.73 442 120.36 451 -20 455 c 5
EndSplineSet
Fore
SplineSet
-20 446.741 m 1
 -1.84961 510.242 29.7109 561.976 72.5654 609.742 c 1
 155.398 609.843 269.744 597.843 442.321 549.976 c 1
 425.381 500.976 392.61 446.241 358.73 406.241 c 1
 237.73 433.741 120.36 442.741 -20 446.741 c 1
EndSplineSet
Validated: 33
EndChar

StartChar: afii57841
Encoding: 1471 1471 108
Width: 0
VWidth: 1000
Flags: HMW
AnchorPoint: "CtxAnchors_Rafe" 0 0 mark 0
AnchorPoint: "RafeToBase" 0 0 mark 0
LayerCount: 2
Back
SplineSet
4.11133 650 m 5
 -280.5 650 l 5
 -276.199 685.113 -266.502 714.197 -248.879 744.87 c 5
 35.7344 744.87 l 5
 31.4307 709.756 21.7363 680.672 4.11133 650 c 5
EndSplineSet
Fore
SplineSet
-5.50586 679.994 m 1
 -262 679.986 l 1
 -257.883 711.986 -247 740.994 -230.496 769.864 c 1
 24.1172 769.864 l 1
 19.8145 734.75 11.5 708.494 -5.50586 679.994 c 1
EndSplineSet
Validated: 1
EndChar

StartChar: afii57842
Encoding: 1472 1472 109
Width: 179
VWidth: 1070
Flags: HMW
LayerCount: 2
Fore
SplineSet
-9.75488 635.67 m 1
 13.3877 650 40.2119 659.5 70.4258 663 c 1
 197.382 -57 l 1
 172.695 -72 147.282 -81 117.201 -84.3301 c 1
 -9.75488 635.67 l 1
EndSplineSet
Validated: 1
EndChar

StartChar: afii57804
Encoding: 1473 1473 110
Width: 0
VWidth: 1000
Flags: HMW
LayerCount: 2
Back
SplineSet
516 692.408 m 1
 532 720.408 552 739.408 579 756.408 c 1
 606 739.408 626 720.408 642 692.408 c 1
 626 665.408 606 645.408 579 629.408 c 1
 552 645.408 532 665.408 516 692.408 c 1
EndSplineSet
Fore
SplineSet
435.891 663 m 1
 446.954 691 463.603 710 487.606 727 c 1
 517.603 710 540.954 691 561.891 663 c 1
 550.652 636 534.178 616 510 600 c 1
 480.178 616 456.652 636 435.891 663 c 1
EndSplineSet
Validated: 1
EndChar

StartChar: afii57803
Encoding: 1474 1474 111
Width: 2
VWidth: 1000
Flags: HMW
LayerCount: 2
Back
SplineSet
188 679.996 m 1
 204 707.996 224 726.996 251 743.996 c 1
 278 726.996 298 707.996 314 679.996 c 1
 298 652.996 278 632.996 251 616.996 c 1
 224 632.996 204 652.996 188 679.996 c 1
EndSplineSet
Fore
SplineSet
94.8916 663 m 1
 105.954 691 122.604 710 146.606 727 c 1
 176.604 710 199.954 691 220.892 663 c 1
 209.652 636 193.179 616 169 600 c 1
 139.179 616 115.652 636 94.8916 663 c 1
EndSplineSet
Validated: 1
EndChar

StartChar: uni05C4
Encoding: 1476 1476 113
Width: 0
VWidth: 1000
Flags: HMW
LayerCount: 2
Back
SplineSet
-62.998 692.408 m 5
 -46.998 720.408 -26.998 739.408 0.00195312 756.408 c 5
 27.002 739.408 47.002 720.408 63.002 692.408 c 5
 47.002 665.408 27.002 645.408 0.00195312 629.408 c 5
 -26.998 645.408 -46.998 665.408 -62.998 692.408 c 5
EndSplineSet
Fore
SplineSet
-185.088 692.408 m 5
 -174.025 720.408 -157.376 739.408 -133.373 756.408 c 5
 -103.376 739.408 -80.0254 720.408 -59.0879 692.408 c 5
 -70.3271 665.408 -86.8008 645.408 -110.979 629.408 c 5
 -140.801 645.408 -164.327 665.408 -185.088 692.408 c 5
EndSplineSet
Validated: 1
EndChar

StartChar: afii57664
Encoding: 1488 1488 114
Width: 738
VWidth: 1000
Flags: HMW
AnchorPoint: "CtxAnchors_D3Narrow_M" 400 0 basechar 0
AnchorPoint: "CtxAnchors_D1_M" 375 0 basechar 0
AnchorPoint: "CtxAnchors_D2_M" 390 0 basechar 0
AnchorPoint: "CtxAnchors_D2Narrow_M" 390 0 basechar 0
AnchorPoint: "CtxAnchors_M_D2" 390 0 basechar 0
AnchorPoint: "CtxAnchors_M_D1" 375 0 basechar 0
AnchorPoint: "CtxAnchors_M_D3Narrow" 400 0 basechar 0
AnchorPoint: "CtxAnchors_M_D2Narrow" 390 0 basechar 0
AnchorPoint: "DiaToBaseD" 432 -193.5 basechar 0
AnchorPoint: "DiaToBaseU" 370 0 basechar 0
AnchorPoint: "DiaToBase4" 400 0 basechar 0
AnchorPoint: "DiaToBase3" 390 0 basechar 0
AnchorPoint: "DiaToBase2" 375 0 basechar 0
AnchorPoint: "DiaToBase1" 380 0 basechar 0
AnchorPoint: "RafeToBase" 420 0 basechar 0
AnchorPoint: "DiaToBaseO" 60 0 basechar 0
LayerCount: 2
Back
SplineSet
94 639 m 1
 139.5 577.5 166.5 522 186 456 c 1
 295.5 451.5 382.5 427.5 480 361.5 c 1
 502.5 412.5 496.5 441 429 491 c 1
 457.5 547.5 498 591 540 639 c 1
 660 531 628.5 402 550.5 307.5 c 1
 610.318 246.434 644.962 196.118 681 109 c 1
 658.5 60 623.202 11.2311 582 -25 c 1
 557 60 513 132 439.5 207 c 0
 376.142 271.651 313.5 292.5 220.5 315 c 1
 234 241.5 237 183 238.5 109 c 1
 210 55.5 171 9 120 -25 c 1
 99 172.5 84 324 -9 480 c 1
 18 538.5 49.5 589.5 94 639 c 1
EndSplineSet
Fore
SplineSet
102.5 639 m 1
 148 577.5 181 505.5 200.5 439.5 c 1
 316 448.5 391 427.5 488.5 361.5 c 1
 511 412.5 505 441 437.5 491 c 1
 466 547.5 506.5 591 548.5 639 c 1
 668.5 531 637 402 559 307.5 c 1
 618.818 246.434 653.462 196.118 689.5 109 c 1
 667 60 631.702 11.2314 590.5 -25 c 1
 565.5 60 521.5 132 448 207 c 0
 384.642 271.651 322 292.5 229 315 c 1
 242.5 241.5 245.5 183 247 109 c 1
 218.5 55.5 179.5 9 128.5 -25 c 1
 101.5 217.5 76 325.5 -17 481.5 c 1
 14.5 546 53.5 589.5 102.5 639 c 1
EndSplineSet
Validated: 33
Substitution2: "jaltWideLetters subtable" uniFB21
Comment: "+AAoA%DiaToBase1+AD0A-380+AAoA%DiaToBase2+AD0A-375+AAoA%DiaToBase3+AD0A-390+AAoA%DiaToBase4+AD0A-400+AAoA%DiaToBaseO+AD0A-60+AAoA%DiaToBaseU+AD0A-370+AAoA%RafeToBase+AD0A-420" 
EndChar

StartChar: afii57665
Encoding: 1489 1489 115
Width: 594
VWidth: 1000
Flags: HMW
AnchorPoint: "CtxAnchors_D3Narrow_M" 300 0 basechar 0
AnchorPoint: "CtxAnchors_D1_M" 315 0 basechar 0
AnchorPoint: "CtxAnchors_D2_M" 325 0 basechar 0
AnchorPoint: "CtxAnchors_D2Narrow_M" 325 0 basechar 0
AnchorPoint: "CtxAnchors_M_D2" 325 0 basechar 0
AnchorPoint: "CtxAnchors_M_D1" 315 0 basechar 0
AnchorPoint: "CtxAnchors_M_D3Narrow" 300 0 basechar 0
AnchorPoint: "CtxAnchors_M_D2Narrow" 325 0 basechar 0
AnchorPoint: "DiaToBaseD" 274.5 0 basechar 0
AnchorPoint: "DiaToBaseU" 300 0 basechar 0
AnchorPoint: "DiaToBase4" 300 0 basechar 0
AnchorPoint: "DiaToBase3" 325 0 basechar 0
AnchorPoint: "DiaToBase2" 315 0 basechar 0
AnchorPoint: "DiaToBase1" 315 0 basechar 0
AnchorPoint: "RafeToBase" 320 0 basechar 0
AnchorPoint: "DiaToBaseO" 75 0 basechar 0
LayerCount: 2
Back
SplineSet
139 629.501 m 1
 268 598 376.682 573.345 451 534 c 0
 493.5 511.5 499.583 482.032 497 442 c 0
 495 411 480.581 393.336 468 357.5 c 0
 451.5 310.5 457.5 292.5 493 268 c 0
 516.169 252.01 547.068 246.535 554 233 c 0
 564.5 212.5 561 187.5 523.5 141 c 0
 477.029 83.376 252 -26 73 -36 c 1
 80 7 105.162 48.8496 142.963 87.7002 c 1
 247.963 106.6 366.824 136.95 423 180 c 1
 407.774 196.8 399.745 202.83 390.974 215.175 c 0
 376.8 235.125 367.053 261.346 373.5 291 c 0
 381 325.5 388.5 357 388.662 394.3 c 0
 388.796 425.132 377.871 452.385 348.763 462.55 c 16
 216.463 508.75 136.801 510.75 57 526.5 c 1
 76.5 571.5 103.5 606 139 629.501 c 1
EndSplineSet
Fore
SplineSet
109.662 639 m 1
 238.662 607.499 369.682 573.345 444 534 c 0
 486.5 511.5 492.583 482.032 490 442 c 0
 488 411 473.581 393.336 461 357.5 c 0
 444.5 310.5 450.5 292.5 486 268 c 0
 509.169 252.01 540.068 246.535 547 233 c 0
 557.5 212.5 554 187.5 516.5 141 c 0
 470.029 83.376 254 -27 48.5 -43.5 c 1
 63.5 15 101 82.5 138.5 127.5 c 1
 243.5 146.399 331.324 163.95 387.5 207 c 1
 348.5 238.5 332.947 252.974 342.5 288 c 0
 347 304.5 351.5 319.5 353 340.5 c 0
 355.197 371.254 342.209 398.585 313.101 408.75 c 16
 180.801 454.95 78.8008 466.449 -1 482.199 c 1
 21.1621 535.5 64.6621 600 109.662 639 c 1
EndSplineSet
Validated: 33
Comment: "+AAoA%DiaToBase1+AD0A-315+AAoA%DiaToBase2+AD0A-315+AAoA%DiaToBase3+AD0A-325+AAoA%DiaToBase4+AD0A-300+AAoA%DiaToBaseO+AD0A-75+AAoA%DiaToBaseU+AD0A-300+AAoA%RafeToBase+AD0A-320" 
EndChar

StartChar: afii57666
Encoding: 1490 1490 116
Width: 409
VWidth: 1000
Flags: HMW
AnchorPoint: "CtxAnchors_Rafe" 327.059 0 basechar 0
AnchorPoint: "CtxAnchors_D3Narrow_M" 220 0 basechar 0
AnchorPoint: "CtxAnchors_D1_M" 190 0 basechar 0
AnchorPoint: "CtxAnchors_D2_M" 215 0 basechar 0
AnchorPoint: "CtxAnchors_D2Narrow_M" 215 0 basechar 0
AnchorPoint: "CtxAnchors_M_D2" 215 0 basechar 0
AnchorPoint: "CtxAnchors_M_D1" 190 0 basechar 0
AnchorPoint: "CtxAnchors_M_D3Narrow" 220 0 basechar 0
AnchorPoint: "CtxAnchors_M_D2Narrow" 215 0 basechar 0
AnchorPoint: "DiaToBaseD" 106.5 0 basechar 0
AnchorPoint: "DiaToBaseU" 185 0 basechar 0
AnchorPoint: "DiaToBase4" 220 0 basechar 0
AnchorPoint: "DiaToBase3" 215 0 basechar 0
AnchorPoint: "DiaToBase2" 190 0 basechar 0
AnchorPoint: "DiaToBase1" 185 0 basechar 0
AnchorPoint: "RafeToBase" 250 0 basechar 0
AnchorPoint: "DiaToBaseO" 100 0 basechar 0
LayerCount: 2
Back
SplineSet
143 639 m 1
 260 539 367.852 311.5 394.852 121.5 c 1
 386.852 82.5 317 0 287 -25 c 1
 272 52 258 101 241 152 c 1
 223 110 105 -8 20 -25 c 1
 21 23 28.5 97.5 45.5 145.5 c 1
 92 163.5 129.5 178 162.5 207 c 0
 209.675 248.456 209.286 270.796 173 333 c 0
 145 381 108 427 40 491 c 1
 69 545 95 595 143 639 c 1
EndSplineSet
Fore
SplineSet
136.48 639 m 1
 253.48 539 361.332 311.5 388.332 121.5 c 1
 380.332 82.5 310.48 0 280.48 -25 c 1
 265.48 52 251.48 101 234.48 152 c 1
 216.48 110 98.4805 -8 13.4805 -25 c 1
 8.48047 37 16.4805 102 32.4805 154.5 c 1
 78.9805 172.5 116.48 189.5 151.48 214.5 c 0
 202.584 251.003 198.266 278.296 161.98 340.5 c 0
 133.98 388.5 101.48 427 33.4805 491 c 1
 62.4805 545 88.4805 595 136.48 639 c 1
EndSplineSet
Validated: 33
Comment: "+AAoA%DiaToBase1+AD0A-185+AAoA%DiaToBase2+AD0A-190+AAoA%DiaToBase3+AD0A-215+AAoA%DiaToBase4+AD0A-220+AAoA%DiaToBaseO+AD0A-100+AAoA%DiaToBaseU+AD0A-185+AAoA%RafeToBase+AD0A-250" 
EndChar

StartChar: afii57667
Encoding: 1491 1491 117
Width: 586
VWidth: 1000
Flags: HMW
AnchorPoint: "CtxAnchors_D3Narrow_M" 300 0 basechar 0
AnchorPoint: "CtxAnchors_D1_M" 350 0 basechar 0
AnchorPoint: "CtxAnchors_D2_M" 350 0 basechar 0
AnchorPoint: "CtxAnchors_D2Narrow_M" 350 0 basechar 0
AnchorPoint: "CtxAnchors_M_D2" 350 0 basechar 0
AnchorPoint: "CtxAnchors_M_D1" 350 0 basechar 0
AnchorPoint: "CtxAnchors_M_D3Narrow" 300 0 basechar 0
AnchorPoint: "CtxAnchors_M_D2Narrow" 350 0 basechar 0
AnchorPoint: "DiaToBaseD" 198 -21 basechar 0
AnchorPoint: "DiaToBaseU" 300 0 basechar 0
AnchorPoint: "DiaToBase4" 300 0 basechar 0
AnchorPoint: "DiaToBase3" 350 0 basechar 0
AnchorPoint: "DiaToBase2" 350 0 basechar 0
AnchorPoint: "DiaToBase1" 380 0 basechar 0
AnchorPoint: "RafeToBase" 350 0 basechar 0
AnchorPoint: "DiaToBaseO" 25 0 basechar 0
LayerCount: 2
Back
SplineSet
10 458 m 1
 21 496 77 607 101 630 c 1
 262 630 501 574 557 537 c 1
 560 517 521 397.5 514 373.5 c 1
 496 370 478 363 463.5 354 c 0
 439.257 338.952 428.171 321.166 436.5 286 c 0
 450 229 468 176 492 127 c 1
 472.5 78 426 10.5 390 -25 c 1
 363 34 338 91 313.5 164 c 0
 295.839 216.624 295 265 310.5 315 c 0
 320.946 348.697 348 387 369 409 c 1
 278 438 125 453.5 10 458 c 1
EndSplineSet
Fore
SplineSet
-36.1641 471 m 1
 -25.1641 509 25.8359 607 49.8359 630 c 1
 210.836 630 449.836 574 505.836 537 c 1
 508.836 517 469.836 397.5 462.836 373.5 c 1
 444.836 370 426.836 363 412.336 354 c 0
 388.093 338.952 377.007 321.166 385.336 286 c 0
 398.836 229 416.836 176 440.836 127 c 1
 421.336 78 374.836 10.5 338.836 -25 c 1
 311.836 34 286.836 91 262.336 164 c 0
 244.675 216.624 243.836 265 259.336 315 c 0
 269.782 348.697 308.836 400 329.836 422 c 1
 238.836 451 78.8359 466.5 -36.1641 471 c 1
EndSplineSet
Validated: 33
Substitution2: "jaltWideLetters subtable" uniFB22
Comment: "+AAoA%DiaToBase1+AD0A-380+AAoA%DiaToBase2+AD0A-350+AAoA%DiaToBase3+AD0A-350+AAoA%DiaToBase4+AD0A-300+AAoA%DiaToBaseO+AD0A-25+AAoA%DiaToBaseU+AD0A-300+AAoA%RafeToBase+AD0A-350" 
EndChar

StartChar: afii57668
Encoding: 1492 1492 118
Width: 666
VWidth: 1000
Flags: HMW
AnchorPoint: "CtxAnchors_D3Narrow_M" 380 0 basechar 0
AnchorPoint: "CtxAnchors_D1_M" 360 0 basechar 0
AnchorPoint: "CtxAnchors_D2_M" 390 0 basechar 0
AnchorPoint: "CtxAnchors_D2Narrow_M" 390 0 basechar 0
AnchorPoint: "CtxAnchors_M_D2" 390 0 basechar 0
AnchorPoint: "CtxAnchors_M_D1" 360 0 basechar 0
AnchorPoint: "CtxAnchors_M_D3Narrow" 380 0 basechar 0
AnchorPoint: "CtxAnchors_M_D2Narrow" 390 0 basechar 0
AnchorPoint: "DiaToBaseD" 394.5 -55.5 basechar 0
AnchorPoint: "DiaToBaseU" 370 0 basechar 0
AnchorPoint: "DiaToBase4" 380 0 basechar 0
AnchorPoint: "DiaToBase3" 390 0 basechar 0
AnchorPoint: "DiaToBase2" 360 0 basechar 0
AnchorPoint: "DiaToBase1" 360 0 basechar 0
AnchorPoint: "RafeToBase" 380 0 basechar 0
AnchorPoint: "DiaToBaseO" 60 0 basechar 0
LayerCount: 2
Back
SplineSet
198 345 m 1
 223.5 271.5 253.5 192 288 130 c 1
 288 87 237 -6.5 222 -25.5 c 1
 176 13.5 115 110 101 184 c 1
 109 237.5 162 339 198 345 c 1
110 628 m 1
 189 622 323.318 607.006 447 554 c 16
 524 521 574.79 471.623 610 388 c 0
 642 312 658.5 234 665 142.5 c 1
 637.5 81 603 9 555 -25 c 1
 538.5 70.5 528.434 132.46 498 231.5 c 0
 468.5 327.5 431.135 374.657 349.5 397.5 c 0
 240.5 428 132 445.5 10.5 456 c 1
 33 519 69 577.5 110 628 c 1
EndSplineSet
Fore
SplineSet
168 345 m 1
 193.5 271.5 223.5 192 258 130 c 1
 258 87 207 -6.5 192 -25.5 c 1
 146 13.5 85 110 71 184 c 1
 79 237.5 132 339 168 345 c 1
80 628 m 1
 159 622 293.318 607.006 417 554 c 16
 494 521 544.79 471.623 580 388 c 0
 612 312 629.5 220.5 636 129 c 1
 608.5 67.5 583.5 9 535.5 -25 c 1
 519 70.5 508.934 132.46 478.5 231.5 c 0
 449 327.5 405.635 383.657 324 406.5 c 0
 215 437 106.5 454.5 -15 465 c 1
 7.5 528 39 577.5 80 628 c 1
EndSplineSet
Validated: 1
Substitution2: "jaltWideLetters subtable" uniFB23
Comment: "+AAoA%DiaToBase1+AD0A-360+AAoA%DiaToBase2+AD0A-360+AAoA%DiaToBase3+AD0A-390+AAoA%DiaToBase4+AD0A-380+AAoA%DiaToBaseO+AD0A-60+AAoA%DiaToBaseU+AD0A-370+AAoA%RafeToBase+AD0A-380" 
EndChar

StartChar: afii57669
Encoding: 1493 1493 119
Width: 359
VWidth: 1000
Flags: HMW
AnchorPoint: "CtxAnchors_Rafe" 277.059 0 basechar 0
AnchorPoint: "CtxAnchors_D3Narrow_M" 200 0 basechar 0
AnchorPoint: "CtxAnchors_D1_M" 190 0 basechar 0
AnchorPoint: "CtxAnchors_D2_M" 210 0 basechar 0
AnchorPoint: "CtxAnchors_D2Narrow_M" 210 0 basechar 0
AnchorPoint: "CtxAnchors_M_D2" 210 0 basechar 0
AnchorPoint: "CtxAnchors_M_D1" 190 0 basechar 0
AnchorPoint: "CtxAnchors_M_D3Narrow" 200 0 basechar 0
AnchorPoint: "CtxAnchors_M_D2Narrow" 210 0 basechar 0
AnchorPoint: "DiaToBaseD" 108.969 -49.5 basechar 0
AnchorPoint: "DiaToBaseU" 190 0 basechar 0
AnchorPoint: "DiaToBase4" 200 0 basechar 0
AnchorPoint: "DiaToBase3" 210 0 basechar 0
AnchorPoint: "DiaToBase2" 190 0 basechar 0
AnchorPoint: "DiaToBase1" 230 0 basechar 0
AnchorPoint: "RafeToBase" 220 0 basechar 0
AnchorPoint: "DiaToBaseO" 50 0 basechar 0
LayerCount: 2
Back
SplineSet
121 639 m 1
 241 560.499 306.309 454.658 332 332 c 0
 347.5 258 355 187.5 356.5 99 c 1
 345.5 76 273 -9 247 -25 c 1
 238 79.5 228.072 187.674 181 283.5 c 0
 139 369 86.5 411 10 469.5 c 1
 35.5 529.5 74.5 588 121 639 c 1
EndSplineSet
Fore
SplineSet
67 639 m 1
 187 560.499 252.309 454.658 278 332 c 0
 293.5 258 301 187.5 302.5 99 c 1
 291.5 76 219 -9 193 -25 c 1
 184 79.5 175.072 197.174 128 293 c 0
 86 378.5 37.5 423 -39 481.5 c 1
 -13.5 541.5 20.5 588 67 639 c 1
EndSplineSet
Validated: 1
Comment: "+AAoA%DiaToBase1+AD0A-230+AAoA%DiaToBase2+AD0A-190+AAoA%DiaToBase3+AD0A-210+AAoA%DiaToBase4+AD0A-200+AAoA%DiaToBaseO+AD0A-50+AAoA%DiaToBaseU+AD0A-190+AAoA%RafeToBase+AD0A-220" 
EndChar

StartChar: afii57670
Encoding: 1494 1494 120
Width: 392
VWidth: 1000
Flags: HMW
AnchorPoint: "CtxAnchors_Rafe" 287.059 0 basechar 0
AnchorPoint: "CtxAnchors_D3Narrow_M" 160 0 basechar 0
AnchorPoint: "CtxAnchors_D1_M" 200 0 basechar 0
AnchorPoint: "CtxAnchors_D2_M" 220 0 basechar 0
AnchorPoint: "CtxAnchors_D2Narrow_M" 220 0 basechar 0
AnchorPoint: "CtxAnchors_M_D2" 220 0 basechar 0
AnchorPoint: "CtxAnchors_M_D1" 200 0 basechar 0
AnchorPoint: "CtxAnchors_M_D3Narrow" 160 0 basechar 0
AnchorPoint: "CtxAnchors_M_D2Narrow" 220 0 basechar 0
AnchorPoint: "DiaToBaseD" 96.9688 -36 basechar 0
AnchorPoint: "DiaToBaseU" 200 0 basechar 0
AnchorPoint: "DiaToBase4" 160 0 basechar 0
AnchorPoint: "DiaToBase3" 220 0 basechar 0
AnchorPoint: "DiaToBase2" 200 0 basechar 0
AnchorPoint: "DiaToBase1" 210 0 basechar 0
AnchorPoint: "RafeToBase" 240 0 basechar 0
AnchorPoint: "DiaToBaseO" 60 0 basechar 0
LayerCount: 2
Back
SplineSet
100.5 639 m 1
 181.5 600 271.5 547.5 343 474 c 1
 321 412.5 291.5 367 258 327 c 1
 229 352.667 203.333 373.333 171.668 394.999 c 1
 160.168 383.499 158.645 376.554 157.999 362.998 c 16
 155.999 320.998 260 203 309 132 c 1
 310.5 69 286.5 15 252 -25 c 1
 166 92 53.5273 246.023 57 312 c 0
 59 350 77.334 395.334 113.334 433.334 c 1
 77.334 455.334 34 478.5 0 494.5 c 1
 25.5 548.5 60 600 100.5 639 c 1
EndSplineSet
Fore
SplineSet
85.5 639 m 1
 166.5 600 256.5 547.5 328 474 c 1
 306 412.5 276.5 367 243 327 c 1
 214 352.667 191.666 370.666 160.001 392.332 c 1
 148.501 380.832 146.978 373.887 146.332 360.331 c 16
 144.332 318.331 229 224 278 153 c 1
 279.5 90 246.5 15 212 -25 c 1
 126 92 29 225 28.5 313.5 c 0
 28.2852 351.552 51 403 87 441 c 1
 51 463 19 478.5 -15 494.5 c 1
 10.5 548.5 45 600 85.5 639 c 1
EndSplineSet
Validated: 33
Comment: "+AAoA%DiaToBase1+AD0A-210+AAoA%DiaToBase2+AD0A-200+AAoA%DiaToBase3+AD0A-220+AAoA%DiaToBase4+AD0A-160+AAoA%DiaToBaseO+AD0A-60+AAoA%DiaToBaseU+AD0A-200+AAoA%RafeToBase+AD0A-240" 
EndChar

StartChar: afii57671
Encoding: 1495 1495 121
Width: 677
VWidth: 1000
Flags: HMW
AnchorPoint: "CtxAnchors_D3Narrow_M" 370 0 basechar 0
AnchorPoint: "CtxAnchors_D1_M" 350 0 basechar 0
AnchorPoint: "CtxAnchors_D2_M" 380 0 basechar 0
AnchorPoint: "CtxAnchors_D2Narrow_M" 380 0 basechar 0
AnchorPoint: "CtxAnchors_M_D2" 380 0 basechar 0
AnchorPoint: "CtxAnchors_M_D1" 350 0 basechar 0
AnchorPoint: "CtxAnchors_M_D3Narrow" 370 0 basechar 0
AnchorPoint: "CtxAnchors_M_D2Narrow" 380 0 basechar 0
AnchorPoint: "DiaToBaseD" 392 -17 basechar 0
AnchorPoint: "DiaToBaseU" 360 0 basechar 0
AnchorPoint: "DiaToBase4" 370 0 basechar 0
AnchorPoint: "DiaToBase3" 380 0 basechar 0
AnchorPoint: "DiaToBase2" 350 0 basechar 0
AnchorPoint: "DiaToBase1" 355 0 basechar 0
AnchorPoint: "RafeToBase" 400 0 basechar 0
AnchorPoint: "DiaToBaseO" 50 0 basechar 0
LayerCount: 2
Back
SplineSet
114 639 m 1
 138 624.935 152 611.354 197 604.564 c 0
 283.261 591.549 338.907 580.628 424 547.612 c 16
 514 512.692 577.5 453 616.5 369 c 0
 648.269 300.575 666 228 673.5 121.5 c 1
 647 60 607.5 12 562.5 -25 c 1
 559.5 33 547.5 108 530 179.982 c 0
 506.552 276.43 460.5 349.5 381 399 c 0
 336.626 426.629 286.5 441 231 442.5 c 1
 256.5 364.5 273 265.5 273 132 c 1
 246 64.5 202.5 10.5 149 -25 c 1
 142 62.2998 135.5 133.617 129 199.5 c 0
 120.87 281.899 100.5 366 58.5 432 c 0
 47.559 449.193 20 470.101 16 479.8 c 1
 37.5 540 75 600 114 639 c 1
EndSplineSet
Fore
SplineSet
86 639 m 1
 110 624.935 118.699 604.355 164 600 c 4
 242 592.5 316.332 588.881 407 556.5 c 4
 491 526.5 557 453 588.5 375 c 0
 616.75 305.049 638 228 645.5 121.5 c 1
 619 60 579.5 12 534.5 -25 c 1
 531.5 33 519.5 108 502 179.982 c 0
 478.552 276.43 431 355.5 351.5 405 c 4
 307.126 432.629 230 451.5 174.5 453 c 5
 224 378 245 265.5 245 132 c 1
 218 64.5 174.5 10.5 121 -25 c 1
 114 62.2998 107.5 133.617 101 199.5 c 0
 92.8701 281.899 72.5 366 30.5 432 c 0
 19.5586 449.193 -8 470.101 -12 479.8 c 1
 9.5 540 47 600 86 639 c 1
EndSplineSet
Validated: 1
Comment: "+AAoA%DiaToBase1+AD0A-355+AAoA%DiaToBase2+AD0A-350+AAoA%DiaToBase3+AD0A-380+AAoA%DiaToBase4+AD0A-370+AAoA%DiaToBaseO+AD0A-50+AAoA%DiaToBaseU+AD0A-360+AAoA%RafeToBase+AD0A-400" 
EndChar

StartChar: afii57672
Encoding: 1496 1496 122
Width: 678
VWidth: 1000
Flags: HMW
AnchorPoint: "CtxAnchors_D3Narrow_M" 340 0 basechar 0
AnchorPoint: "CtxAnchors_D1_M" 345 0 basechar 0
AnchorPoint: "CtxAnchors_D2_M" 360 0 basechar 0
AnchorPoint: "CtxAnchors_D2Narrow_M" 360 0 basechar 0
AnchorPoint: "CtxAnchors_M_D2" 360 0 basechar 0
AnchorPoint: "CtxAnchors_M_D1" 345 0 basechar 0
AnchorPoint: "CtxAnchors_M_D3Narrow" 340 0 basechar 0
AnchorPoint: "CtxAnchors_M_D2Narrow" 360 0 basechar 0
AnchorPoint: "DiaToBaseD" 403.5 16.5 basechar 0
AnchorPoint: "DiaToBaseU" 330 0 basechar 0
AnchorPoint: "DiaToBase4" 340 0 basechar 0
AnchorPoint: "DiaToBase3" 360 0 basechar 0
AnchorPoint: "DiaToBase2" 345 0 basechar 0
AnchorPoint: "DiaToBase1" 340 0 basechar 0
AnchorPoint: "RafeToBase" 400 0 basechar 0
AnchorPoint: "DiaToBaseO" 50 0 basechar 0
LayerCount: 2
Back
SplineSet
83.3643 639 m 1
 132.728 559.499 166.296 489 196.979 415.5 c 0
 226.699 344.306 249.498 270 280.024 205.5 c 0
 301.724 159.65 351.494 156.577 392.163 181.5 c 0
 425.615 202 458.432 226.953 479.106 253.5 c 0
 497.797 277.5 514.966 304.5 505.309 352.5 c 0
 488.787 434.608 453.443 460.5 419.633 460.5 c 0
 372.593 460.5 328.859 439.5 272.072 396.5 c 1
 267.472 435.5 267.01 524 276.216 558 c 1
 316.204 597 363.192 626.801 428.864 628 c 16
 538.418 630 604.542 537.946 621.415 443 c 0
 641.851 328 617.993 213 567.773 142.5 c 0
 530.781 90.5693 464.906 31 402.681 0 c 0
 352.054 -25.2217 299.466 -30.2578 260.014 15 c 0
 210.324 72 164.968 144 105.621 259.5 c 0
 63.8779 340.742 22.085 406.499 -17.5811 458.499 c 1
 -8.09277 499.499 55.2549 607.499 83.3643 639 c 1
EndSplineSet
Fore
SplineSet
72.249 639 m 1
 118.837 559.499 149.942 489 178.059 415.5 c 0
 205.293 344.306 225.497 270 253.771 205.5 c 0
 273.869 159.65 323.532 156.577 365.071 181.5 c 0
 399.239 202 432.928 226.953 454.528 253.5 c 0
 474.058 277.5 492.17 304.5 484.188 352.5 c 0
 470.534 434.608 436.095 460.5 402.284 460.5 c 0
 355.244 460.5 310.777 439.5 252.488 396.5 c 1
 249.25 435.5 251.879 524 262.272 558 c 1
 303.622 597 351.65 626.801 417.364 628 c 16
 526.988 630 589.896 537.946 603.455 443 c 0
 619.875 328 592.001 213 539.319 142.5 c 0
 500.514 90.5693 432.559 31 369.251 0 c 0
 317.743 -25.2217 264.979 -30.2578 227.108 15 c 0
 179.408 72 136.567 144 81.2529 259.5 c 0
 42.3477 340.742 2.85059 406.499 -35 458.499 c 1
 -24.0791 499.499 43.04 607.499 72.249 639 c 1
EndSplineSet
Validated: 33
Comment: "+AAoA%DiaToBase1+AD0A-340+AAoA%DiaToBase2+AD0A-345+AAoA%DiaToBase3+AD0A-360+AAoA%DiaToBase4+AD0A-340+AAoA%DiaToBaseO+AD0A-50+AAoA%DiaToBaseU+AD0A-330+AAoA%RafeToBase+AD0A-400" 
EndChar

StartChar: afii57673
Encoding: 1497 1497 123
Width: 369
VWidth: 1000
Flags: HMW
AnchorPoint: "CtxAnchors_Rafe" 257.059 0 basechar 0
AnchorPoint: "CtxAnchors_D3Narrow_M" 200 0 basechar 0
AnchorPoint: "CtxAnchors_D1_M" 190 0 basechar 0
AnchorPoint: "CtxAnchors_D2_M" 230 0 basechar 0
AnchorPoint: "CtxAnchors_D2Narrow_M" 230 0 basechar 0
AnchorPoint: "CtxAnchors_M_D2" 230 0 basechar 0
AnchorPoint: "CtxAnchors_M_D1" 190 0 basechar 0
AnchorPoint: "CtxAnchors_M_D3Narrow" 200 0 basechar 0
AnchorPoint: "CtxAnchors_M_D2Narrow" 230 0 basechar 0
AnchorPoint: "DiaToBaseD" 108 0 basechar 0
AnchorPoint: "DiaToBaseU" 175 0 basechar 0
AnchorPoint: "DiaToBase4" 200 0 basechar 0
AnchorPoint: "DiaToBase3" 230 0 basechar 0
AnchorPoint: "DiaToBase2" 190 0 basechar 0
AnchorPoint: "DiaToBase1" 210 0 basechar 0
AnchorPoint: "RafeToBase" 220 0 basechar 0
AnchorPoint: "DiaToBaseO" 30 0 basechar 0
LayerCount: 2
Back
SplineSet
85 639 m 1
 213 575 319 505 321 336 c 1
 308 272 279 224 242 189 c 1
 240 248 246 322 211 395 c 0
 175.61 468.814 101 490 12 531 c 1
 30 573 46 607.499 85 639 c 1
EndSplineSet
Fore
SplineSet
69 639 m 5
 197 575 303 505 305 336 c 5
 281 272 250 231 202 190 c 5
 194 242 185 290 163 342 c 4
 131.104 417.39 53 437 -36 478 c 5
 -18 520 30 607.499 69 639 c 5
EndSplineSet
Validated: 1
Comment: "+AAoA%DiaToBase1+AD0A-210+AAoA%DiaToBase2+AD0A-190+AAoA%DiaToBase3+AD0A-230+AAoA%DiaToBase4+AD0A-200+AAoA%DiaToBaseO+AD0A-30+AAoA%DiaToBaseU+AD0A-175+AAoA%RafeToBase+AD0A-220" 
EndChar

StartChar: afii57674
Encoding: 1498 1498 124
Width: 563
VWidth: 1000
Flags: HMW
AnchorPoint: "DiaToBaseD" 178.5 -26 basechar 0
LayerCount: 2
Back
SplineSet
58 628 m 1
 210 607 346 565 471 500 c 1
 469 470 461 442 451 419 c 1
 428 417 407.912 415.638 382 407 c 16
 337 392 329.488 356.181 340 320 c 16
 383 172 412 76 457 -76 c 1
 453 -131 441 -195 410 -227 c 1
 375 -73 332.382 54.1182 283 213 c 0
 260 287 280 397 314 460 c 1
 207 497 115 517 7 529 c 1
 15 568 30 605 58 628 c 1
EndSplineSet
Fore
SplineSet
40 633 m 5
 192 612 358 570 483 505 c 5
 481 475 454 376 444 353 c 5
 421 351 410.39 348.797 390 342 c 20
 345 327 337.488 291.181 348 255 c 20
 391 107 402 78 447 -74 c 1
 421 -138 387 -180 345 -225 c 1
 301 -94 275.105 -18.4648 238 123 c 4
 206 245 226 329 282 399 c 5
 175 436 67 455 -41 467 c 5
 -21 525 4 585 40 633 c 5
EndSplineSet
Validated: 33
EndChar

StartChar: afii57675
Encoding: 1499 1499 125
Width: 563
VWidth: 1000
Flags: HMW
AnchorPoint: "CtxAnchors_D3Narrow_M" 280 0 basechar 0
AnchorPoint: "CtxAnchors_D1_M" 280 0 basechar 0
AnchorPoint: "CtxAnchors_D2_M" 290 0 basechar 0
AnchorPoint: "CtxAnchors_D2Narrow_M" 290 0 basechar 0
AnchorPoint: "CtxAnchors_M_D2" 290 0 basechar 0
AnchorPoint: "CtxAnchors_M_D1" 280 0 basechar 0
AnchorPoint: "CtxAnchors_M_D3Narrow" 280 0 basechar 0
AnchorPoint: "CtxAnchors_M_D2Narrow" 290 0 basechar 0
AnchorPoint: "DiaToBaseD" 258 -10.5 basechar 0
AnchorPoint: "DiaToBaseU" 275 0 basechar 0
AnchorPoint: "DiaToBase4" 280 0 basechar 0
AnchorPoint: "DiaToBase3" 290 0 basechar 0
AnchorPoint: "DiaToBase2" 280 0 basechar 0
AnchorPoint: "DiaToBase1" 285 0 basechar 0
AnchorPoint: "RafeToBase" 300 0 basechar 0
AnchorPoint: "DiaToBaseO" 70 0 basechar 0
LayerCount: 2
Back
SplineSet
118.5 633.5 m 5
 222.5 617.5 330.5 600.5 397.5 549.5 c 4
 482.163 485.055 508.927 394.027 511 280 c 16
 512 225 482.452 158.087 453 109 c 0
 420 54 276 -14 79 -36 c 1
 86 0 102 39 125 67 c 1
 228 101 346 121 421 174 c 1
 433 232 427.5 316.5 411.5 359.5 c 4
 383.132 435.738 341.5 493.5 226.5 512.5 c 12
 152.476 524.73 104.5 529.5 35.5 535.5 c 5
 54.5 577.5 82.5 610.5 118.5 633.5 c 5
EndSplineSet
Fore
SplineSet
97 633.5 m 1
 201 617.5 315.5 600.5 382.5 549.5 c 0
 467.163 485.055 493.927 394.027 496 280 c 16
 497 225 467.452 158.087 438 109 c 0
 405 54 261 -14 64 -36 c 1
 76 19 95 72 123 123 c 1
 207 144 285 169.5 364.5 208.5 c 1
 363 250.5 360.121 286.544 346.5 324 c 0
 322.5 390 276 422 189.5 437.5 c 0
 115.648 450.734 61 454.5 -8 460.5 c 1
 17.5 522 53.5 582 97 633.5 c 1
EndSplineSet
Validated: 33
Substitution2: "jaltWideLetters subtable" uniFB24
Comment: "+AAoA%DiaToBase1+AD0A-285+AAoA%DiaToBase2+AD0A-280+AAoA%DiaToBase3+AD0A-290+AAoA%DiaToBase4+AD0A-280+AAoA%DiaToBaseO+AD0A-70+AAoA%DiaToBaseU+AD0A-275+AAoA%RafeToBase+AD0A-300" 
EndChar

StartChar: afii57676
Encoding: 1500 1500 126
Width: 518
VWidth: 1000
Flags: HMW
AnchorPoint: "CtxAnchors_D3Narrow_M" 250 0 basechar 0
AnchorPoint: "CtxAnchors_D1_M" 280 0 basechar 0
AnchorPoint: "CtxAnchors_D2_M" 290 0 basechar 0
AnchorPoint: "CtxAnchors_D2Narrow_M" 290 0 basechar 0
AnchorPoint: "CtxAnchors_M_D2" 290 0 basechar 0
AnchorPoint: "CtxAnchors_M_D1" 280 0 basechar 0
AnchorPoint: "CtxAnchors_M_D3Narrow" 250 0 basechar 0
AnchorPoint: "CtxAnchors_M_D2Narrow" 290 0 basechar 0
AnchorPoint: "CtxAnchors_Yerushalam" -119.796 0 basechar 0
AnchorPoint: "DiaToBaseD" 202.5 31.5 basechar 0
AnchorPoint: "DiaToBaseU" 245 0 basechar 0
AnchorPoint: "DiaToBase4" 250 0 basechar 0
AnchorPoint: "DiaToBase3" 290 0 basechar 0
AnchorPoint: "DiaToBase2" 280 0 basechar 0
AnchorPoint: "DiaToBase1" 300 0 basechar 0
AnchorPoint: "RafeToBase" 370 0 basechar 0
AnchorPoint: "DiaToBaseO" -50 0 basechar 0
LayerCount: 2
Back
SplineSet
73 819 m 1
 80 767 80 728 89 684 c 0
 94.752 655.878 99 640 133 625 c 0
 178.828 604.781 273.328 595.407 361 569 c 16
 444 544 458 463 461 392 c 0
 463.069 343.033 415 298 379 251 c 0
 338.062 197.553 336 184 346 88 c 1
 323 34 292 3 254 -25 c 1
 246 -8 233 61 238 91 c 0
 250.162 163.973 275.667 210.596 322 274 c 16
 355.884 320.368 387.5 358.5 357 445 c 0
 353.32 455.438 350 459.5 338 464 c 0
 290.533 481.8 177.5 506.5 85.5 529.5 c 8
 54.9062 537.148 33.2021 551.837 24 582 c 16
 6 641 0 679 -10 740 c 1
 7 772 37 802 73 819 c 1
EndSplineSet
Fore
SplineSet
68 819 m 5
 75 767 74 737 83 693 c 4
 88.752 664.878 93 649 127 634 c 4
 172.828 613.781 266.778 602.506 355 578 c 0
 427 558 451 483 454 412 c 0
 456.069 363.033 422 337 386 290 c 0
 345.062 236.553 345 197 370 133 c 1
 342 75 301 19 249 -25 c 1
 241 -8 222.788 63.9658 218 94 c 0
 207 163 216.263 223.829 265 282 c 0
 296 319 313 350 302 398 c 0
 299.528 408.787 295 412.5 283 417 c 0
 235.533 434.8 125.5 452.5 33.5 475.5 c 12
 2.90625 483.148 -18.7979 497.837 -28 528 c 20
 -46 587 -47 604 -57 665 c 5
 -25.2168 723.588 15.3496 776.427 68 819 c 5
EndSplineSet
Validated: 33
Substitution2: "jaltWideLetters subtable" uniFB25
Comment: "+AAoA%DiaToBase1+AD0A-300+AAoA%DiaToBase2+AD0A-280+AAoA%DiaToBase3+AD0A-290+AAoA%DiaToBase4+AD0A-250+AAoA%DiaToBaseO+AD0A--50+AAoA%DiaToBaseU+AD0A-245+AAoA%RafeToBase+AD0A-370" 
EndChar

StartChar: afii57677
Encoding: 1501 1501 127
Width: 645
VWidth: 1000
Flags: HMW
AnchorPoint: "DiaToBaseD" 373 -20 basechar 0
LayerCount: 2
Back
SplineSet
207 432 m 1
 232 342 255 255 282.5 164.5 c 0
 295.283 122.433 322.5 110.5 361 120 c 0
 425.886 136.011 515 159 523 185 c 0
 528.293 202.203 493.207 208.759 487.5 243 c 0
 485.5 255 495.915 285.841 499.5 313.5 c 16
 506.5 367.5 479.348 372.045 420 387.5 c 0
 372 400 301 416 207 432 c 1
94 628.5 m 1
 216 608.5 353.46 590.723 510 534.5 c 16
 581 509 620 461 618 391 c 0
 616.942 353.961 611 321 604 277 c 1
 621.5 253 645.61 214.505 649.5 199.5 c 0
 660 159 658.5 121 636 91.5 c 0
 624.453 76.3613 596.272 51.2305 561.5 34.5 c 0
 508.5 9 451.5 -13.5 379.5 -33 c 0
 347.568 -41.6483 316.018 -51.1743 278.7 -47 c 0
 234 -42 193.5 -13.5 175.5 49.5 c 0
 137.568 182.261 109.5 303 79 455.5 c 1
 43 462.5 29 464.5 -15 473 c 1
 0 507 63 606.5 94 628.5 c 1
EndSplineSet
Fore
SplineSet
154 445 m 1
 179 355 204 255 231.5 164.5 c 0
 244.283 122.433 271.5 110.5 310 120 c 0
 374.886 136.011 464 159 472 185 c 0
 477.293 202.203 442.207 208.759 436.5 243 c 0
 434.5 255 445.734 294.095 450 327 c 16
 457 381 429.848 385.545 370.5 401 c 0
 322.5 413.5 248 429 154 445 c 1
43 628.5 m 1
 165 608.5 302.46 590.723 459 534.5 c 16
 530 509 569 461 567 391 c 0
 565.942 353.961 560 321 553 277 c 1
 570.5 253 594.61 214.505 598.5 199.5 c 0
 609 159 607.5 121 585 91.5 c 0
 573.453 76.3613 545.271 51.2305 510.5 34.5 c 0
 457.5 9 400.5 -13.5 328.5 -33 c 0
 296.568 -41.6484 265.018 -51.1738 227.7 -47 c 0
 183 -42 142.5 -13.5 124.5 49.5 c 0
 86.5684 182.261 56.5 316 26 468.5 c 1
 -10 475.5 -16 476.5 -60 485 c 1
 -45 519 12 606.5 43 628.5 c 1
EndSplineSet
Validated: 33
Substitution2: "jaltWideLetters subtable" uniFB26
EndChar

StartChar: afii57678
Encoding: 1502 1502 128
Width: 697
VWidth: 1000
Flags: HMW
AnchorPoint: "CtxAnchors_D3Narrow_M" 370 0 basechar 0
AnchorPoint: "CtxAnchors_D1_M" 380 0 basechar 0
AnchorPoint: "CtxAnchors_D2_M" 395 0 basechar 0
AnchorPoint: "CtxAnchors_D2Narrow_M" 395 0 basechar 0
AnchorPoint: "CtxAnchors_M_D2" 395 0 basechar 0
AnchorPoint: "CtxAnchors_M_D1" 380 0 basechar 0
AnchorPoint: "CtxAnchors_M_D3Narrow" 370 0 basechar 0
AnchorPoint: "CtxAnchors_M_D2Narrow" 395 0 basechar 0
AnchorPoint: "DiaToBaseD" 435 13.5 basechar 0
AnchorPoint: "DiaToBaseU" 340 0 basechar 0
AnchorPoint: "DiaToBase4" 370 0 basechar 0
AnchorPoint: "DiaToBase3" 395 0 basechar 0
AnchorPoint: "DiaToBase2" 380 0 basechar 0
AnchorPoint: "DiaToBase1" 385 0 basechar 0
AnchorPoint: "RafeToBase" 400 0 basechar 0
AnchorPoint: "DiaToBaseO" 60 0 basechar 0
LayerCount: 2
Back
SplineSet
94 639 m 1
 165 585.499 206 524 232 464 c 1
 240 503 271.265 541.8 314 574 c 24
 358.48 607.516 415.989 626.574 447 626 c 0
 501 625 539 595 561 559 c 0
 583.52 522.15 601.188 488.433 613 451 c 0
 624.705 413.905 630.625 373.145 637 326 c 8
 639.25 309.363 639.686 298.101 635 283 c 0
 617 225 603 187 573 132 c 8
 557.408 103.416 540.282 88.4218 512 75 c 0
 394 19 290 -13 161 -36 c 1
 174 8 192 45 218 80 c 1
 281 98 343 118 400 140 c 0
 472.525 167.992 542.612 208.49 563 241 c 1
 558 305 544.876 367.944 510 446 c 0
 489 493 467.97 513.231 432 515 c 0
 371 518 273 429 255 412 c 1
 264 372 265.118 325.403 249 274 c 24
 235.081 229.611 218 200 181 176 c 1
 175 214 173 237 173 276 c 8
 173 306.58 187.214 324.059 181 354 c 16
 170 407 96 499 27 539 c 1
 47 583 65 609 94 639 c 1
EndSplineSet
Fore
SplineSet
89.5 639 m 5
 160.5 585.499 201.5 524 227.5 464 c 5
 235.5 503 266.765 541.8 309.5 574 c 28
 353.98 607.516 411.489 626.574 442.5 626 c 4
 496.5 625 533.774 594.546 556.5 559 c 4
 595.5 498 624 406.5 632.5 326 c 4
 634.263 309.305 635.186 298.101 630.5 283 c 4
 612.5 225 598.5 187 568.5 132 c 12
 552.908 103.416 535.782 88.4219 507.5 75 c 4
 389.5 19 285.5 -13 156.5 -36 c 5
 169.5 8 221.5 116 247.5 151 c 5
 310.5 169 374.149 185.13 429.5 211 c 4
 475.5 232.5 500.112 240.49 520.5 273 c 5
 498 387 472.833 446.05 423 448.5 c 4
 362 451.5 271.5 398 253.5 381 c 5
 262.5 341 259.24 325.815 244.5 274 c 4
 228 216 177 184.5 117 150 c 5
 111 188 109 211 109 250 c 12
 109 280.58 123.214 298.059 117 328 c 20
 106 381 48 435.5 -21 475.5 c 5
 -1 519.5 60.5 609 89.5 639 c 5
EndSplineSet
Validated: 33
Comment: "+AAoA%DiaToBase1+AD0A-385+AAoA%DiaToBase2+AD0A-380+AAoA%DiaToBase3+AD0A-395+AAoA%DiaToBase4+AD0A-370+AAoA%DiaToBaseO+AD0A-60+AAoA%DiaToBaseU+AD0A-340+AAoA%RafeToBase+AD0A-400" 
EndChar

StartChar: afii57679
Encoding: 1503 1503 129
Width: 370
VWidth: 1000
Flags: HMW
AnchorPoint: "DiaToBaseD" 115 0 basechar 0
LayerCount: 2
Back
SplineSet
131 639 m 1
 250 562 317 422 343 287 c 8
 368.943 152.295 381 30 378 -63 c 1
 357 -108 309 -155 267 -191 c 1
 259 -89 257 13 223 164 c 0
 184.795 333.674 109 392 13 472 c 1
 32 514 104 612 131 639 c 1
EndSplineSet
Fore
SplineSet
78 639 m 1
 197 562 264 422 290 287 c 8
 315.943 152.295 328 30 325 -63 c 1
 304 -108 256 -155 214 -191 c 1
 206 -89 205 27 171 178 c 0
 132.795 347.674 61 402 -35 482 c 1
 -16 524 51 612 78 639 c 1
EndSplineSet
Validated: 33
EndChar

StartChar: afii57680
Encoding: 1504 1504 130
Width: 400
VWidth: 1000
Flags: HMW
AnchorPoint: "CtxAnchors_Rafe" 277.059 0 basechar 0
AnchorPoint: "CtxAnchors_D3Narrow_M" 180 0 basechar 0
AnchorPoint: "CtxAnchors_D1_M" 190 0 basechar 0
AnchorPoint: "CtxAnchors_D2_M" 200 0 basechar 0
AnchorPoint: "CtxAnchors_D2Narrow_M" 200 0 basechar 0
AnchorPoint: "CtxAnchors_M_D2" 200 0 basechar 0
AnchorPoint: "CtxAnchors_M_D1" 190 0 basechar 0
AnchorPoint: "CtxAnchors_M_D3Narrow" 180 0 basechar 0
AnchorPoint: "CtxAnchors_M_D2Narrow" 200 0 basechar 0
AnchorPoint: "DiaToBaseD" 135 -7.5 basechar 0
AnchorPoint: "DiaToBaseU" 180 0 basechar 0
AnchorPoint: "DiaToBase4" 180 0 basechar 0
AnchorPoint: "DiaToBase3" 200 0 basechar 0
AnchorPoint: "DiaToBase2" 190 0 basechar 0
AnchorPoint: "DiaToBase1" 190 0 basechar 0
AnchorPoint: "RafeToBase" 220 0 basechar 0
AnchorPoint: "DiaToBaseO" 50 0 basechar 0
LayerCount: 2
Back
SplineSet
121 634 m 5
 228 607 352 507 371 369 c 12
 384.645 269.9 382 240 355 113 c 5
 293 67 214 18 119 -36 c 5
 108 19 111 76 121 128 c 5
 168 162 224.684 194 270 224 c 5
 266.856 279.27 248.335 332.288 213 373 c 4
 167 426 103 454 33 478 c 5
 45 523 97 606 121 634 c 5
EndSplineSet
Fore
SplineSet
73 634 m 1
 180 607 304 507 323 369 c 8
 336.645 269.9 334 240 307 113 c 1
 243.607 54.0557 143.76 -5.4043 50 -49 c 1
 41 13 42.5 64.5 56.5 119.5 c 1
 114 158 168.5 191.5 222 224 c 1
 218.856 279.27 200.335 332.288 165 373 c 0
 119 426 55 454 -15 478 c 1
 -3 523 49 606 73 634 c 1
EndSplineSet
Validated: 33
Comment: "+AAoA%DiaToBase1+AD0A-190+AAoA%DiaToBase2+AD0A-190+AAoA%DiaToBase3+AD0A-200+AAoA%DiaToBase4+AD0A-180+AAoA%DiaToBaseO+AD0A-50+AAoA%DiaToBaseU+AD0A-180+AAoA%RafeToBase+AD0A-220" 
EndChar

StartChar: afii57681
Encoding: 1505 1505 131
Width: 693
VWidth: 1000
Flags: HMW
AnchorPoint: "CtxAnchors_D3Narrow_M" 390 0 basechar 0
AnchorPoint: "CtxAnchors_D1_M" 380 0 basechar 0
AnchorPoint: "CtxAnchors_D2_M" 400 0 basechar 0
AnchorPoint: "CtxAnchors_D2Narrow_M" 400 0 basechar 0
AnchorPoint: "CtxAnchors_M_D2" 400 0 basechar 0
AnchorPoint: "CtxAnchors_M_D1" 380 0 basechar 0
AnchorPoint: "CtxAnchors_M_D3Narrow" 390 0 basechar 0
AnchorPoint: "CtxAnchors_M_D2Narrow" 400 0 basechar 0
AnchorPoint: "DiaToBaseD" 439.5 -6 basechar 0
AnchorPoint: "DiaToBaseU" 370 0 basechar 0
AnchorPoint: "DiaToBase4" 390 0 basechar 0
AnchorPoint: "DiaToBase3" 400 0 basechar 0
AnchorPoint: "DiaToBase2" 380 0 basechar 0
AnchorPoint: "DiaToBase1" 360 0 basechar 0
AnchorPoint: "RafeToBase" 430 0 basechar 0
AnchorPoint: "DiaToBaseO" 35 0 basechar 0
LayerCount: 2
Back
SplineSet
227.456 436.502 m 1
 258.408 339.887 299.113 241.017 340.258 170.306 c 0
 356.256 142.812 383.342 139.465 419.728 158.525 c 0
 463.844 181.635 495.979 209.37 521.318 234.492 c 0
 551.642 264.557 542.027 282.75 530.172 313.464 c 0
 504.842 379.08 435.263 414.408 341.023 425.521 c 0
 305.464 429.714 266.008 432.559 227.456 436.502 c 1
78 625.5 m 1
 232.202 604.867 334.522 592.415 446.139 569.808 c 0
 497.907 559.321 548.334 533.697 577.772 508.54 c 0
 616.332 475.588 645.237 428.881 650.297 373.591 c 0
 657.218 297.966 654.23 231.771 603.786 157.001 c 0
 567.863 103.756 516.86 54.043 462.699 18.4268 c 0
 369.889 -42.6025 272.117 -29.0352 224.96 79.3896 c 0
 169.592 206.694 132.873 327.884 113.17 444.356 c 1
 79.6982 447.701 34.0713 452.077 -11.4619 455.438 c 1
 -0.21582 497.282 52.0225 601.858 78 625.5 c 1
EndSplineSet
Fore
SplineSet
209.304 440.797 m 1
 240.701 342.727 281.873 242.33 323.367 170.477 c 0
 339.501 142.538 366.636 139.031 402.988 158.2 c 0
 447.062 181.442 479.124 209.423 504.39 234.783 c 0
 534.627 265.134 524.923 283.616 512.924 314.802 c 0
 487.286 381.424 417.47 417.528 323.062 429.188 c 0
 287.44 433.589 247.922 436.638 209.304 440.797 c 1
58.8633 633.015 m 1
 213.35 611.451 315.854 598.399 427.708 575.015 c 0
 479.587 564.166 530.186 537.979 559.767 512.354 c 0
 598.515 478.788 627.652 431.319 632.951 375.249 c 0
 640.198 298.558 637.483 231.468 587.289 155.884 c 0
 551.543 102.059 500.683 51.8779 446.602 16 c 0
 353.929 -45.4775 255.975 -31.3135 208.303 78.7959 c 0
 152.33 208.079 115.056 331.086 94.8389 449.238 c 1
 61.3096 452.77 15.6064 457.396 -30 460.994 c 1
 -18.915 503.365 32.9521 609.157 58.8633 633.015 c 1
EndSplineSet
Validated: 33
Comment: "+AAoA%DiaToBase1+AD0A-360+AAoA%DiaToBase2+AD0A-380+AAoA%DiaToBase3+AD0A-400+AAoA%DiaToBase4+AD0A-390+AAoA%DiaToBaseO+AD0A-35+AAoA%DiaToBaseU+AD0A-370+AAoA%RafeToBase+AD0A-430" 
EndChar

StartChar: afii57682
Encoding: 1506 1506 132
Width: 639
VWidth: 1000
Flags: HMW
AnchorPoint: "DiaToBaseD" 416 16 basechar 0
AnchorPoint: "RafeToBase" 370 0 basechar 0
AnchorPoint: "DiaToBaseO" 40 0 basechar 0
LayerCount: 2
Back
SplineSet
93.2246 639 m 1
 251.5 505.5 348.875 339 368.5 202.5 c 1
 406 222 460 252 460 297 c 0
 460 352.5 421 404 379 439.5 c 1
 404.5 516 439 583.5 479.5 639 c 1
 548.8 570.497 585.025 481.952 585.025 372 c 0
 585.025 303.963 575.987 250.412 553.301 204 c 0
 532.026 160.477 493.781 123.443 454 97.5 c 4
 414.312 71.6172 369.657 50.2686 307 10.5 c 8
 282.115 -5.29492 264.906 -15.4111 253 -42.374 c 16
 226.376 -102.667 148.087 -114.756 88.2627 -121.47 c 1
 91.0645 -58.5 80.5273 -4.10449 115 43.5 c 0
 146.5 87 194.5 117 256 153 c 1
 187 319.5 107.5 369 10 447 c 1
 29.5 520.5 56.5 586.5 93.2246 639 c 1
EndSplineSet
Fore
SplineSet
63.2246 639 m 1
 221.5 505.5 287.5 358 321 178 c 1
 372 198 444 241 444 286 c 0
 444 341.5 399 402 349 439.5 c 1
 374.5 516 409 583.5 449.5 639 c 1
 519 568 567 483 567 353 c 0
 567 220 518 151 433 95 c 0
 387.14 64.7861 332.514 50.8066 274 15 c 0
 251.667 1.33301 235.094 -14.9873 223 -42.374 c 16
 196.376 -102.667 118.087 -114.756 58.2627 -121.47 c 1
 61.0645 -58.5 50.5273 -4.10449 85 43.5 c 0
 116.5 87 155 113 220 140 c 1
 160 297 77.5 369 -20 447 c 1
 -0.5 520.5 26.5 586.5 63.2246 639 c 1
EndSplineSet
Validated: 33
Substitution2: "saltMiscSAlt subtable" uniFB20
Substitution2: "AltAyin subtable" uniFB20
Comment: "+AAoA%DiaToBaseO+AD0A-40+AAoA%RafeToBase+AD0A-370" 
EndChar

StartChar: afii57683
Encoding: 1507 1507 133
Width: 595
VWidth: 1000
Flags: HMW
AnchorPoint: "DiaToBaseD" 342 -58.5 basechar 0
LayerCount: 2
Back
SplineSet
169 629 m 1
 262 616 334.224 586.126 404 525 c 0
 450.386 484.364 479.013 423.945 495 354 c 0
 519 249 551 70 545 -72 c 1
 540 -126 516 -166.5 484.5 -196.5 c 1
 475.5 -84 468 -10.5 450 109 c 0
 433.228 220.35 419 307 372 387 c 0
 326.304 464.781 244 509 156 522 c 1
 111 426 142.5 378 228 339 c 1
 229.392 300.539 213 268 193 242 c 1
 106 266 49.8291 323.517 51 409 c 16
 52 482 112 581 169 629 c 1
EndSplineSet
Fore
SplineSet
144 634 m 1
 259 622 343 590 416 525 c 0
 462.057 483.991 491.013 423.945 507 354 c 0
 531 249 563 70 557 -72 c 1
 528 -127 493 -172 451 -210 c 1
 442 -97.5 438 -63.5 420 56 c 0
 403.228 167.35 389 254 342 334 c 0
 296.304 411.781 238 452 150 465 c 1
 123 414 128.5 360 214 321 c 5
 215.392 282.539 173 197 153 171 c 5
 66 195 2 269.123 2 365 c 4
 2 468 69 560 144 634 c 1
EndSplineSet
Validated: 33
EndChar

StartChar: afii57684
Encoding: 1508 1508 134
Width: 602
VWidth: 1000
Flags: HMW
AnchorPoint: "CtxAnchors_D3Narrow_M" 300 0 basechar 0
AnchorPoint: "CtxAnchors_D1_M" 300 0 basechar 0
AnchorPoint: "CtxAnchors_D2_M" 320 0 basechar 0
AnchorPoint: "CtxAnchors_D2Narrow_M" 320 0 basechar 0
AnchorPoint: "CtxAnchors_M_D2" 320 0 basechar 0
AnchorPoint: "CtxAnchors_M_D1" 300 0 basechar 0
AnchorPoint: "CtxAnchors_M_D3Narrow" 300 0 basechar 0
AnchorPoint: "CtxAnchors_M_D2Narrow" 320 0 basechar 0
AnchorPoint: "DiaToBaseD" 361.5 -9 basechar 0
AnchorPoint: "DiaToBaseU" 295 0 basechar 0
AnchorPoint: "DiaToBase4" 300 0 basechar 0
AnchorPoint: "DiaToBase3" 320 0 basechar 0
AnchorPoint: "DiaToBase2" 300 0 basechar 0
AnchorPoint: "DiaToBase1" 320 0 basechar 0
AnchorPoint: "RafeToBase" 350 0 basechar 0
AnchorPoint: "DiaToBaseO" 120 0 basechar 0
LayerCount: 2
Back
SplineSet
193.998 631.5 m 5
 275.998 622 366.932 609.844 458.998 554 c 20
 519.998 517 553.913 447.502 568.998 386 c 4
 581.998 333 580.907 276.553 568.998 230 c 4
 557.998 187 513.379 104.541 492.998 88 c 4
 423.998 32 249.498 -42 123.498 -42 c 5
 127.998 16.5 150.498 79.5 186.498 132 c 5
 288.498 150 372.498 172.5 451.998 235.5 c 5
 448.998 310.5 433.998 360 397.998 388.5 c 4
 363.649 415.692 277.998 450 188.498 459 c 5
 171.498 414 186.498 403.5 261.498 360 c 5
 249.498 310.5 219.498 240 180.998 205 c 5
 100.998 241.5 50 293 50 366 c 4
 50 463.5 106.998 561 193.998 631.5 c 5
EndSplineSet
Fore
SplineSet
153.998 631.5 m 1
 235.998 622 326.932 609.844 418.998 554 c 16
 479.998 517 513.913 447.502 528.998 386 c 0
 541.998 333 540.907 276.553 528.998 230 c 0
 517.998 187 473.379 104.541 452.998 88 c 0
 383.998 32 209.498 -42 83.498 -42 c 1
 87.998 16.5 110.498 79.5 146.498 132 c 1
 248.498 150 338 177 417.5 240 c 1
 414.5 315 404 361.5 360.5 397.5 c 0
 326.75 425.431 240.5 459 151 468 c 1
 128 415.5 146.498 403.5 221.498 360 c 1
 209.498 310.5 179.498 240 140.998 205 c 1
 60.998 241.5 10 293 10 366 c 0
 10 463.5 66.998 561 153.998 631.5 c 1
EndSplineSet
Validated: 33
Comment: "+AAoA%DiaToBase1+AD0A-320+AAoA%DiaToBase2+AD0A-300+AAoA%DiaToBase3+AD0A-320+AAoA%DiaToBase4+AD0A-300+AAoA%DiaToBaseO+AD0A-120+AAoA%DiaToBaseU+AD0A-295+AAoA%RafeToBase+AD0A-350" 
EndChar

StartChar: afii57685
Encoding: 1509 1509 135
Width: 625
VWidth: 1000
Flags: HMW
AnchorPoint: "DiaToBaseD" 292 226 basechar 0
LayerCount: 2
Back
SplineSet
82 639 m 1
 155.211 471.843 238 426 314.459 344.581 c 1
 365 394 385.477 453.181 359 531 c 1
 374.04 574.3 396.823 609.396 428 639 c 1
 508 513 445.95 385.016 359 302 c 1
 417 219 464.171 92.8291 464.095 -81.2744 c 1
 449.097 -138.285 416.649 -179.177 388.898 -200.222 c 1
 394.793 -117.377 387.538 111.577 270.58 251.183 c 0
 185.089 353.229 61 436 17 534 c 1
 28 573 52 611 82 639 c 1
EndSplineSet
Fore
SplineSet
74.5801 639 m 1
 147.791 471.843 244.121 413.419 320.58 332 c 1
 371.121 381.419 353.58 431 312.58 476 c 1
 349.58 542 394.58 594 444.58 639 c 1
 582.58 469 466.53 343.016 379.58 260 c 1
 430.58 169 468.656 92.8291 468.58 -81.2744 c 1
 441.485 -133 408.485 -166 358.485 -203 c 1
 354.58 -52 323.58 71 222.58 193 c 0
 137.688 295.544 13 377.817 -31 475.817 c 1
 -7.41992 540 24.5801 590 74.5801 639 c 1
EndSplineSet
Validated: 33
EndChar

StartChar: afii57686
Encoding: 1510 1510 136
Width: 578
VWidth: 1000
Flags: HMW
AnchorPoint: "CtxAnchors_D3Narrow_M" 300 0 basechar 0
AnchorPoint: "CtxAnchors_D1_M" 300 0 basechar 0
AnchorPoint: "CtxAnchors_D2_M" 320 0 basechar 0
AnchorPoint: "CtxAnchors_D2Narrow_M" 320 0 basechar 0
AnchorPoint: "CtxAnchors_M_D2" 320 0 basechar 0
AnchorPoint: "CtxAnchors_M_D1" 300 0 basechar 0
AnchorPoint: "CtxAnchors_M_D3Narrow" 300 0 basechar 0
AnchorPoint: "CtxAnchors_M_D2Narrow" 320 0 basechar 0
AnchorPoint: "DiaToBaseD" 183 -77 basechar 0
AnchorPoint: "DiaToBaseU" 290 0 basechar 0
AnchorPoint: "DiaToBase4" 300 0 basechar 0
AnchorPoint: "DiaToBase3" 320 0 basechar 0
AnchorPoint: "DiaToBase2" 300 0 basechar 0
AnchorPoint: "DiaToBase1" 290 0 basechar 0
AnchorPoint: "RafeToBase" 370 0 basechar 0
AnchorPoint: "DiaToBaseO" 60 0 basechar 0
LayerCount: 2
Back
SplineSet
103 639 m 5
 130 519.499 273 439 369 389 c 5
 399 447 360 458 314 482 c 5
 337 532 378 600 413 639 c 5
 549 576 519 442 457 345 c 5
 491 329 521 308 524 280 c 4
 528.823 234.981 496.504 155.504 462 121 c 4
 389 48 165 -28 69 -36 c 5
 72 8 121.5 107 151.5 138 c 5
 342.5 182 393 194 394 214 c 4
 394.699 227.982 368 230.5 337 240 c 4
 256.227 264.753 166 301.5 105 339.501 c 4
 49.4277 374.12 2.03613 431.373 -5 456 c 5
 18 521.5 57 587 103 639 c 5
EndSplineSet
Fore
SplineSet
92 639 m 1
 119 519.499 262 439 358 389 c 1
 388 447 349 458 303 482 c 1
 326 532 367 600 402 639 c 1
 538 576 508 442 446 345 c 1
 480 329 510 308 513 280 c 0
 517.823 234.981 485.504 155.504 451 121 c 0
 378 48 169 -25 29 -44 c 1
 32 0 81.5 99 111.5 130 c 1
 283 170 382 194 383 214 c 0
 383.699 227.982 357 230.5 326 240 c 0
 245.227 264.753 155 301.5 94 339.501 c 0
 38.4277 374.12 -8.96387 431.373 -16 456 c 1
 7 521.5 46 587 92 639 c 1
EndSplineSet
Validated: 33
Comment: "+AAoA%DiaToBase1+AD0A-290+AAoA%DiaToBase2+AD0A-300+AAoA%DiaToBase3+AD0A-320+AAoA%DiaToBase4+AD0A-300+AAoA%DiaToBaseO+AD0A-60+AAoA%DiaToBaseU+AD0A-290+AAoA%RafeToBase+AD0A-370" 
EndChar

StartChar: afii57687
Encoding: 1511 1511 137
Width: 664
VWidth: 1000
Flags: HMW
AnchorPoint: "CtxAnchors_D3Narrow_M" 570 0 basechar 0
AnchorPoint: "CtxAnchors_D1_M" 480 0 basechar 0
AnchorPoint: "CtxAnchors_D2_M" 535 0 basechar 0
AnchorPoint: "CtxAnchors_D2Narrow_M" 535 0 basechar 0
AnchorPoint: "CtxAnchors_M_D2" 535 0 basechar 0
AnchorPoint: "CtxAnchors_M_D1" 480 0 basechar 0
AnchorPoint: "CtxAnchors_M_D3Narrow" 570 0 basechar 0
AnchorPoint: "CtxAnchors_M_D2Narrow" 535 0 basechar 0
AnchorPoint: "DiaToBaseD" 370.5 6 basechar 0
AnchorPoint: "DiaToBaseU" 510 0 basechar 0
AnchorPoint: "DiaToBase4" 570 0 basechar 0
AnchorPoint: "DiaToBase3" 535 0 basechar 0
AnchorPoint: "DiaToBase2" 480 0 basechar 0
AnchorPoint: "DiaToBase1" 400 0 basechar 0
AnchorPoint: "RafeToBase" 370 0 basechar 0
AnchorPoint: "DiaToBaseO" 30 0 basechar 0
LayerCount: 2
Back
SplineSet
101 632 m 1
 260 604 472.852 573.495 537 556 c 0
 592 541 660.576 441.431 663 347 c 1
 634 269 580.401 195.803 566 167 c 0
 558 151 566 130 560 88 c 1
 538 40 495.65 -4.00152 446 -24 c 1
 416 11 392.522 110.224 433 178 c 16
 476 250 489 263 525 320 c 1
 516 365 497 386 484 397 c 0
 467.77 410.733 328 439 209 453 c 1
 283 263 329 154 373 -38 c 1
 342 -110 323 -131 264 -186 c 1
 228 -25 193.37 142.509 64 468 c 1
 37.5 471.5 18.1689 473.333 -8 477 c 1
 21 537 54 586 101 632 c 1
EndSplineSet
Fore
SplineSet
68.334 291 m 1
 86.334 340 119.334 386 160.389 417 c 1
 226.294 248.508 269.188 141.544 310.334 -38 c 1
 279.334 -110 260.334 -131 201.334 -186 c 1
 171.365 -51.9727 136.334 102 68.334 291 c 1
146.334 453 m 0
 119.834 456.5 -23.8311 470.666 -50 474.333 c 1
 -21 534.333 12 583.333 59 629.333 c 1
 220.334 614 366.334 589 474.334 556 c 0
 528.855 539.341 597.91 441.431 600.334 347 c 1
 571.334 269 517.735 195.803 503.334 167 c 0
 495.334 151 503.334 130 497.334 88 c 1
 475.334 40 432.984 -4.00195 383.334 -24 c 1
 353.334 11 329.856 110.224 370.334 178 c 16
 413.334 250 426.334 263 462.334 320 c 1
 453.334 365 434.334 386 421.334 397 c 0
 405.104 410.733 265.334 439 146.334 453 c 0
EndSplineSet
Validated: 33
Comment: "+AAoA%DiaToBase1+AD0A-400+AAoA%DiaToBase2+AD0A-480+AAoA%DiaToBase3+AD0A-535+AAoA%DiaToBase4+AD0A-570+AAoA%DiaToBaseO+AD0A-30+AAoA%DiaToBaseU+AD0A-510+AAoA%RafeToBase+AD0A-370" 
EndChar

StartChar: afii57688
Encoding: 1512 1512 138
Width: 566
VWidth: 1000
Flags: HMW
AnchorPoint: "CtxAnchors_D3Narrow_M" 330 0 basechar 0
AnchorPoint: "CtxAnchors_D1_M" 400 0 basechar 0
AnchorPoint: "CtxAnchors_D2_M" 390 0 basechar 0
AnchorPoint: "CtxAnchors_D2Narrow_M" 390 0 basechar 0
AnchorPoint: "CtxAnchors_M_D2" 390 0 basechar 0
AnchorPoint: "CtxAnchors_M_D1" 400 0 basechar 0
AnchorPoint: "CtxAnchors_M_D3Narrow" 330 0 basechar 0
AnchorPoint: "CtxAnchors_M_D2Narrow" 390 0 basechar 0
AnchorPoint: "DiaToBaseD" 256.5 -27 basechar 0
AnchorPoint: "DiaToBaseU" 350 0 basechar 0
AnchorPoint: "DiaToBase4" 330 0 basechar 0
AnchorPoint: "DiaToBase3" 390 0 basechar 0
AnchorPoint: "DiaToBase2" 400 0 basechar 0
AnchorPoint: "DiaToBase1" 440 0 basechar 0
AnchorPoint: "RafeToBase" 320 0 basechar 0
AnchorPoint: "DiaToBaseO" 45 0 basechar 0
LayerCount: 2
Back
SplineSet
124.667 632.997 m 1
 230.667 608.997 388.986 578.987 462 504 c 0
 536 428 559 223.5 566.5 105 c 1
 547 57 488.5 0 454 -25 c 1
 449 32 438.427 103.919 421 183.5 c 0
 406 252 374.5 324 329.5 367.5 c 0
 255.475 439.058 102.167 455.997 9.16699 470.997 c 1
 42.167 535.497 82.667 593.997 124.667 632.997 c 1
EndSplineSet
Fore
SplineSet
76.167 632.997 m 1
 182.167 608.997 340.486 578.987 413.5 504 c 0
 487.5 428 510.5 223.5 518 105 c 1
 498.5 57 440 0 405.5 -25 c 1
 400.5 32 389.927 103.919 372.5 183.5 c 0
 357.5 252 326.5 336 281.5 379.5 c 0
 207.475 451.058 61 469.5 -32 484.5 c 1
 1 549 34.167 593.997 76.167 632.997 c 1
EndSplineSet
Validated: 1
Substitution2: "jaltWideLetters subtable" uniFB27
Comment: "+AAoA%DiaToBase1+AD0A-440+AAoA%DiaToBase2+AD0A-400+AAoA%DiaToBase3+AD0A-390+AAoA%DiaToBase4+AD0A-330+AAoA%DiaToBaseO+AD0A-45+AAoA%DiaToBaseU+AD0A-350+AAoA%RafeToBase+AD0A-320" 
EndChar

StartChar: afii57689
Encoding: 1513 1513 139
Width: 746
VWidth: 1000
Flags: HMW
AnchorPoint: "CtxAnchors_D3Narrow_M" 410 0 basechar 0
AnchorPoint: "CtxAnchors_D1_M" 405 0 basechar 0
AnchorPoint: "CtxAnchors_D2_M" 410 0 basechar 0
AnchorPoint: "CtxAnchors_D2Narrow_M" 410 0 basechar 0
AnchorPoint: "CtxAnchors_M_D2" 410 0 basechar 0
AnchorPoint: "CtxAnchors_M_D1" 405 0 basechar 0
AnchorPoint: "CtxAnchors_M_D3Narrow" 410 0 basechar 0
AnchorPoint: "CtxAnchors_M_D2Narrow" 410 0 basechar 0
AnchorPoint: "DiaToBaseD" 502.5 -7.5 basechar 0
AnchorPoint: "DiaToBaseU" 370 0 basechar 0
AnchorPoint: "DiaToBase4" 410 0 basechar 0
AnchorPoint: "DiaToBase3" 410 0 basechar 0
AnchorPoint: "DiaToBase2" 405 0 basechar 0
AnchorPoint: "DiaToBase1" 375 0 basechar 0
AnchorPoint: "RafeToBase" 430 0 basechar 0
AnchorPoint: "DiaToBaseO" 50 0 basechar 0
LayerCount: 2
Back
SplineSet
105 639 m 1
 176 527.499 236.5 381 266.5 283 c 1
 314.775 305.781 351.5 358.5 347.5 401.5 c 0
 343.592 443.509 303 498.003 276 526.5 c 1
 295.244 579.614 330.5 616.497 367.5 639 c 1
 404.66 577.066 428.511 509.27 432.238 442.5 c 0
 435 393 420.655 349.492 406.082 324 c 0
 379.5 277.5 339 237 286.5 210 c 1
 303 151.5 319 92 363 93 c 0
 403.002 93.9092 518 181 570 252 c 1
 593 342 572 421 510 531 c 1
 530 583 563 613.495 594 639 c 1
 637.5 582 680.602 473.52 670 362 c 24
 658.972 245.989 590 139 542 92 c 8
 482.924 34.1553 413 -21 362 -20 c 0
 279.01 -18.373 243.318 76.666 208 163 c 16
 172 251 147 334.5 111 402 c 0
 82.997 454.506 54 491 22 525 c 1
 40.5 571.5 66 607.5 105 639 c 1
EndSplineSet
Fore
SplineSet
79.3525 639 m 1
 149.592 529.5 203.121 435 242.121 327 c 1
 299.324 373.5 282.621 422 239.921 478.5 c 1
 266.697 540 308.553 600 354.509 639 c 1
 387.621 600 413.938 557.951 426.621 492 c 0
 434.121 453 435.816 407.195 413.121 363 c 0
 384.621 307.5 325.506 264 274.421 237 c 1
 288.621 195 309.173 152 353.121 153 c 4
 393.075 153.909 471.621 204 525.621 274.5 c 1
 528.928 351.698 512.07 419.742 473.121 481.5 c 1
 497.134 538.5 547.396 600 589.167 633 c 1
 635.654 576 673.966 473.907 665.16 366 c 24
 655.67 249.706 590.557 139 545.02 92 c 8
 486.122 31.2109 410.173 -21 359.121 -20 c 0
 276.046 -18.373 240.27 30 187.71 117 c 0
 137.416 200.249 108.983 283.5 69.4463 351 c 0
 38.6914 403.506 7.78223 440 -26 474 c 1
 -5.30176 537 34.8965 600 79.3525 639 c 1
EndSplineSet
Validated: 33
Comment: "+AAoA%DiaToBase1+AD0A-375+AAoA%DiaToBase2+AD0A-405+AAoA%DiaToBase3+AD0A-410+AAoA%DiaToBase4+AD0A-410+AAoA%DiaToBaseO+AD0A-50+AAoA%DiaToBaseU+AD0A-370+AAoA%RafeToBase+AD0A-430" 
EndChar

StartChar: afii57690
Encoding: 1514 1514 140
Width: 684
VWidth: 1000
Flags: HMW
AnchorPoint: "CtxAnchors_D3Narrow_M" 370 0 basechar 0
AnchorPoint: "CtxAnchors_D1_M" 360 0 basechar 0
AnchorPoint: "CtxAnchors_D2_M" 390 0 basechar 0
AnchorPoint: "CtxAnchors_D2Narrow_M" 390 0 basechar 0
AnchorPoint: "CtxAnchors_M_D2" 390 0 basechar 0
AnchorPoint: "CtxAnchors_M_D1" 360 0 basechar 0
AnchorPoint: "CtxAnchors_M_D3Narrow" 370 0 basechar 0
AnchorPoint: "CtxAnchors_M_D2Narrow" 390 0 basechar 0
AnchorPoint: "DiaToBaseD" 451.5 -52.5 basechar 0
AnchorPoint: "DiaToBaseU" 355 0 basechar 0
AnchorPoint: "DiaToBase4" 370 0 basechar 0
AnchorPoint: "DiaToBase3" 390 0 basechar 0
AnchorPoint: "DiaToBase2" 360 0 basechar 0
AnchorPoint: "DiaToBase1" 365 0 basechar 0
AnchorPoint: "RafeToBase" 450 0 basechar 0
AnchorPoint: "DiaToBaseO" 70 0 basechar 0
LayerCount: 2
Back
SplineSet
146 634 m 1
 265.5 624 382.5 592.5 484 543 c 0
 522.236 524.353 586.368 481.657 616 408 c 0
 651 321 670.5 207 679 93 c 1
 669 45 652.5 9 616.5 -25 c 1
 595.5 148.5 565.5 324 511.5 388.5 c 0
 448.849 463.333 365 478 291 500 c 1
 326 367 345 237 341 201 c 0
 339.419 186.77 320.838 131.848 296 94 c 16
 275 62 149 -4 105 -20 c 1
 91 11 105 71 117 101 c 1
 165 123 217 147 264 184 c 1
 242 300 218.5 403 187.5 519 c 1
 144.5 527 108.5 532 56.5 538 c 1
 70.5 580 98 607 146 634 c 1
EndSplineSet
Fore
SplineSet
116.5 634 m 5
 236 624 353 592.5 454.5 543 c 4
 492.736 524.354 556.868 481.657 586.5 408 c 4
 621.5 321 641 207 649.5 93 c 5
 626 48 582.5 4.5 542 -26.5 c 5
 521 147 494.479 276.659 441.5 342 c 4
 396.5 397.5 350.5 416 276.5 438 c 5
 294.5 358.5 315 258 311 222 c 4
 309.419 207.77 282.416 131.157 249.5 81 c 20
 228.5 49 116 0 30.5 -25 c 5
 21.5 27 24.5 90 39.5 140 c 5
 86 158 144.5 178 186.5 211.5 c 5
 164.5 327.5 160.5 347.5 129.5 463.5 c 5
 86.5 471.5 60 477 8 483 c 5
 22 525 68.5 607 116.5 634 c 5
EndSplineSet
Validated: 33
Substitution2: "jaltWideLetters subtable" uniFB28
Comment: "+AAoA%DiaToBase1+AD0A-365+AAoA%DiaToBase2+AD0A-360+AAoA%DiaToBase3+AD0A-390+AAoA%DiaToBase4+AD0A-370+AAoA%DiaToBaseO+AD0A-70+AAoA%DiaToBaseU+AD0A-355+AAoA%RafeToBase+AD0A-450" 
EndChar

StartChar: afii57636
Encoding: 8362 8362 150
Width: 1041
VWidth: 1000
Flags: HMW
LayerCount: 2
Back
SplineSet
790 431 m 4
 824.876 352.944 843 294 848 230 c 5
 827.612 197.49 753 156 685 129 c 4
 635.582 109.378 584 95 539 88.7012 c 4
 506.412 84.1397 482.004 94.1217 476.046 121.147 c 4
 458 203 431.61 326.515 416 399 c 5
 383 379 357 356 336 317 c 5
 365.66 170.68 393.416 57.2324 405.834 33.3857 c 4
 427.311 -7.85547 463.68 -26.6846 512 -20 c 5
 606.326 -8.14884 705 19 797 64 c 5
 825 78 842.408 92.416 858 121 c 20
 888 176 902 214 920 272 c 4
 924.686 287.101 924.25 298.363 922 315 c 20
 915.625 362.145 909.705 402.905 898 440 c 4
 886.188 477.433 868.52 511.15 846 548 c 4
 824 584 812 604.494 789 639 c 5
 762 613.494 732 566.494 728 523.494 c 5
 758 485.494 769 478 790 431 c 4
169 491.074 m 1
 208 411.534 233 272.133 227 87.832 c 1
 215.239 38.3486 183 -8.51074 149 -25 c 1
 142 62.2998 143.629 112.06 136 199.383 c 16
 126 313.843 107 382.435 71 481.374 c 8
 64.0322 500.524 40 510.475 36 520.174 c 1
 57 568.674 81 607.475 114 639 c 1
 138 624.935 162.938 612.804 197 604.564 c 24
 310.894 577.015 402 581.564 492.001 547.564 c 0
 582.677 513.31 635.059 450 667.059 370 c 0
 675.831 348.069 683.357 326.37 689.745 305 c 1
 679 263 657 233 617.782 209 c 1
 601.959 267.574 578.33 333.143 553.059 368 c 0
 524.059 408 483.269 437.303 434 451.564 c 0
 358 473.564 293 487.074 169 491.074 c 1
EndSplineSet
Fore
SplineSet
830 264 m 1
 809 347.5 779 418 742.5 472.5 c 1
 768 537 802 587 846 639 c 1
 890 579 910 533 926.5 476 c 0
 937.316 438.637 946 394 950.5 351 c 0
 952.247 334.303 953.186 323.101 948.5 308 c 0
 930.5 250 922 226 892 171 c 8
 873.833 137.693 851.051 118.088 825.5 100 c 0
 724.5 28.5 599.166 -34.8857 505.166 -47.3857 c 0
 456.812 -53.8154 420.477 -35.2412 399 6 c 0
 386.582 29.8467 369.326 90.7939 339.666 237.114 c 1
 367.5 274.5 409.5 313.5 453 339 c 1
 468.61 266.515 474.954 238.854 493 157 c 0
 498.958 129.976 524.851 113.812 555.954 124.555 c 0
 647 156 746 205 830 264 c 1
123 639 m 1
 147 624.935 155.699 604.355 201 600 c 0
 279 592.5 443.332 586.899 534 554.518 c 0
 618 524.518 684 451.018 715.5 373.018 c 1
 690 319 659 279 608.758 242 c 1
 581.839 309.452 539.607 364.97 478.5 403.018 c 0
 434.126 430.647 267 451.5 211.5 453 c 1
 261 378 282 265.5 282 132 c 1
 255 64.5 211.5 10.5 158 -25 c 1
 151 62.2998 144.5 133.617 138 199.5 c 0
 129.87 281.899 109.5 366 67.5 432 c 0
 56.5586 449.193 29 470.101 25 479.8 c 1
 46.5 540 84 600 123 639 c 1
EndSplineSet
Validated: 33
EndChar

StartChar: SF110000
Encoding: 9474 9474 151
Width: 610
VWidth: 1000
Flags: HMW
LayerCount: 2
Fore
SplineSet
320 960 m 1
 320 -300 l 1
 200 -300 l 1
 200 960 l 1
 320 960 l 1
EndSplineSet
Validated: 1
EndChar

StartChar: uniFB1E
Encoding: 64286 64286 156
Width: 0
VWidth: 1000
Flags: HMW
VStem: -149.36 292.192
AnchorPoint: "CtxAnchors_Rafe" 0 0 mark 0
AnchorPoint: "RafeToBase" 0 0 mark 0
LayerCount: 2
Back
SplineSet
-5.50586 679.994 m 5
 -262 679.986 l 5
 -257.883 711.986 -247 740.994 -230.496 769.864 c 5
 24.1172 769.864 l 5
 19.8145 734.75 11.5 708.494 -5.50586 679.994 c 5
EndSplineSet
Fore
SplineSet
24 703 m 5
 -48.7676 626.047 -197.117 646.197 -268.192 719.286 c 5
 -255.768 750.847 -235.643 778.797 -208.617 804.146 c 5
 -156.867 760.597 -85.5674 716.396 21.3828 811.297 c 5
 29.4326 776.197 29.4326 744.347 24 703 c 5
EndSplineSet
Validated: 33
EndChar

StartChar: afii57705
Encoding: 64287 64287 157
Width: 738
VWidth: 1000
Flags: HMW
LayerCount: 2
Back
SplineSet
468 639 m 5
 596 575 702 505 704 336 c 5
 680 272 649 231 601 190 c 5
 593 242 584 290 562 342 c 4
 530.104 417.39 452 437 363 478 c 5
 381 520 429 607.499 468 639 c 5
117 639 m 5
 245 575 351 505 353 336 c 5
 329 272 298 231 250 190 c 5
 242 242 233 290 211 342 c 4
 179.104 417.39 101 437 12 478 c 5
 30 520 78 607.499 117 639 c 5
580 26.9971 m 1
 304.5 26.9971 l 1
 308.801 62.1104 318.498 91.1943 336.121 121.867 c 1
 611.623 121.867 l 1
 607.32 86.7529 597.625 57.6689 580 26.9971 c 1
EndSplineSet
Fore
Refer: 101 1463 N 1 0 0 1 370 182.5 2
Refer: 123 1497 N 1 0 0 1 0 0 2
Refer: 123 1497 N 1 0 0 1 369 0 2
Validated: 1
Ligature2: "ccmpYiddish3 subtable" afii57673 afii57673 afii57798
Ligature2: "ccmpYiddish3 subtable" afii57718 afii57798
Ligature2: "ccmpYiddish_dflt subtable" afii57718 afii57798
LCarets2: 2 0 0 
EndChar

StartChar: uniFB20
Encoding: 64288 64288 158
Width: 621
VWidth: 1000
Flags: HMW
AnchorPoint: "CtxAnchors_D3Narrow_M" 300 0 basechar 0
AnchorPoint: "CtxAnchors_D1_M" 310 0 basechar 0
AnchorPoint: "CtxAnchors_D2_M" 335 0 basechar 0
AnchorPoint: "CtxAnchors_D2Narrow_M" 335 0 basechar 0
AnchorPoint: "CtxAnchors_M_D2" 335 0 basechar 0
AnchorPoint: "CtxAnchors_M_D1" 310 0 basechar 0
AnchorPoint: "CtxAnchors_M_D3Narrow" 300 0 basechar 0
AnchorPoint: "CtxAnchors_M_D2Narrow" 335 0 basechar 0
AnchorPoint: "DiaToBaseD" 398 12 basechar 0
AnchorPoint: "DiaToBaseU" 310 0 basechar 0
AnchorPoint: "DiaToBase4" 300 0 basechar 0
AnchorPoint: "DiaToBase3" 335 0 basechar 0
AnchorPoint: "DiaToBase2" 310 0 basechar 0
AnchorPoint: "DiaToBase1" 300 0 basechar 0
AnchorPoint: "RafeToBase" 340 0 basechar 0
LayerCount: 2
Back
SplineSet
46.2246 639 m 5
 198 512 257 367 295.248 207.297 c 5
 348.946 218.137 427 241 427 286 c 4
 427 341.5 382 402 332 439.5 c 5
 357.5 516 392 583.5 432.5 639 c 5
 502 568 550 483 550 353 c 4
 550 220 478 114 356 65 c 4
 305.038 44.5312 236.231 35.7051 178 26 c 4
 160 23 154 12 148.477 3.1748 c 4
 121.818 -39.4199 44.5811 -45.7764 -15.5 -42 c 5
 -1.80664 19.5273 -2.73828 74.9258 39.4775 115.821 c 4
 78.0527 153.19 120.482 172.109 189.184 187.412 c 5
 131 306 53 380 -37 447 c 5
 -17.5 520.5 9.5 586.5 46.2246 639 c 5
EndSplineSet
Fore
SplineSet
46.2246 639 m 5
 198 512 262 361 299.656 182.297 c 5
 353.354 193.137 431.408 215 431.408 271 c 4
 431.408 342 382 402 332 439.5 c 5
 357.5 516 392 583.5 432.5 639 c 5
 502 568 550 483 550 353 c 4
 550 205 493 92 360.408 40 c 4
 309.281 19.9487 240.64 10.7051 182.408 1 c 4
 164.408 -2 158.408 -13 152.885 -21.8252 c 4
 126.227 -64.4199 48.9893 -70.7764 -11.0918 -67 c 5
 2.60156 -5.47266 1.66992 49.9258 43.8857 90.8213 c 4
 82.4609 128.19 124.891 147.109 193.592 162.412 c 5
 136 302 53 380 -37 447 c 5
 -17.5 520.5 9.5 586.5 46.2246 639 c 5
EndSplineSet
Validated: 33
Comment: "+AAoA%DiaToBase1+AD0A-300+AAoA%DiaToBase2+AD0A-310+AAoA%DiaToBase3+AD0A-335+AAoA%DiaToBase4+AD0A-300+AAoA%DiaToBaseU+AD0A-310+AAoA%RafeToBase+AD0A-340" 
EndChar

StartChar: uniFB29
Encoding: 64297 64297 159
Width: 733
VWidth: 1068
Flags: HMW
LayerCount: 2
Back
SplineSet
100 265.37 m 5
 108.799 311.191 116.517 355.047 142.781 394.729 c 5
 311.8 394.729 l 5
 281.651 565.719 l 5
 320.839 574.666 360.644 577.666 403.213 575 c 5
 435 394.729 l 5
 633.5 394.729 l 5
 623.755 345.624 612.551 302.185 589.219 265.37 c 5
 100 265.37 l 5
EndSplineSet
Fore
SplineSet
75 280.37 m 5
 83.7988 326.191 91.5166 370.047 117.781 409.729 c 5
 286.8 409.729 l 5
 256.651 580.719 l 5
 295.839 589.666 335.644 592.666 378.213 590 c 5
 410 409.729 l 5
 608.5 409.729 l 5
 598.755 360.624 587.551 317.185 564.219 280.37 c 5
 75 280.37 l 5
EndSplineSet
Validated: 33
EndChar

StartChar: uniFB4F
Encoding: 64335 64335 192
Width: 697
VWidth: 1000
Flags: HMW
LayerCount: 2
Back
SplineSet
73 819 m 1
 37 802 7 772 -10 740 c 1
 5.84338 607.389 42.6299 506.903 110.207 388 c 1
 261 369 385 328 469 248 c 0
 558.08 163.162 602 60 627 -25 c 1
 652 9 668 36 681 70 c 1
 648 161 593 261 520 328 c 1
 583 426 621 548 546 639 c 1
 513 613 492 586 471 550 c 1
 506 501 511 423 473 363 c 1
 382 426 292 463 176 491 c 1
 127 600 95 688 73 819 c 1
EndSplineSet
Fore
SplineSet
172.5 448.5 m 1
 266 438 367.5 411 448 361.5 c 1
 470.5 412.5 464.5 441 397 491 c 1
 425.5 547.5 466 591 508 639 c 1
 628 531 596.5 402 518.5 307.5 c 1
 578.318 246.434 612.962 196.118 649 109 c 1
 626.5 60 591.202 11.2314 550 -25 c 1
 516.85 87.7109 461.774 180.149 369 241.5 c 0
 276 303 163.5 322.5 55.209 325.5 c 1
 4.5 439.5 -27 538 -53 654 c 1
 -23 714 22 776 72 823.5 c 1
 97.5 690 124.5 573 172.5 448.5 c 1
EndSplineSet
Validated: 33
Ligature2: "dligAlephLamed subtable" afii57664 afii57676
Ligature2: "ccmpAlephLamed subtable" afii57664 afii57676
LCarets2: 1 0 
EndChar

StartChar: uni25CC
Encoding: 9676 9676 194
Width: 636
VWidth: 1000
Flags: HMW
AnchorPoint: "CtxAnchors_Rafe" 500 0 basechar 0
AnchorPoint: "CtxAnchors_D3Narrow_M" 365 0 basechar 0
AnchorPoint: "CtxAnchors_D2Narrow_M" 365 0 basechar 0
AnchorPoint: "CtxAnchors_D2_M" 365 0 basechar 0
AnchorPoint: "CtxAnchors_D1_M" 365 0 basechar 0
AnchorPoint: "CtxAnchors_M_D3Narrow" 365 0 basechar 0
AnchorPoint: "CtxAnchors_M_D2Narrow" 365 0 basechar 0
AnchorPoint: "CtxAnchors_M_D2" 365 0 basechar 0
AnchorPoint: "CtxAnchors_M_D1" 365 0 basechar 0
AnchorPoint: "DiaToBaseU" 365 0 basechar 0
AnchorPoint: "DiaToBase4" 365 0 basechar 0
AnchorPoint: "DiaToBase3" 365 0 basechar 0
AnchorPoint: "DiaToBase2" 365 0 basechar 0
AnchorPoint: "DiaToBase1" 365 0 basechar 0
AnchorPoint: "RafeToBase" 365 0 basechar 0
AnchorPoint: "DiaToBaseO" 64 0 basechar 0
AnchorPoint: "DiaToBaseD" 365 0 basechar 0
LayerCount: 2
Back
SplineSet
135.829 232.913 m 0x1c
 151.259 232.913 165.992 220.39 168.713 204.96 c 0
 171.434 189.529 161.117 177.007 145.688 177.007 c 0
 130.257 177.007 115.526 189.529 112.806 204.96 c 0
 110.085 220.39 120.399 232.913 135.829 232.913 c 0x1c
294.027 98.4277 m 0
 309.459 98.4277 324.188 85.9043 326.909 70.4746 c 0
 329.63 55.0439 319.316 42.5215 303.886 42.5215 c 0x5c
 288.456 42.5215 273.725 55.0439 271.004 70.4746 c 0
 268.283 85.9043 278.599 98.4277 294.027 98.4277 c 0
484.107 98.4277 m 0
 499.537 98.4277 514.269 85.9043 516.989 70.4746 c 0
 519.71 55.0439 509.396 42.5215 493.965 42.5215 c 0
 478.534 42.5215 463.806 55.0439 461.084 70.4746 c 0
 458.363 85.9043 468.677 98.4277 484.107 98.4277 c 0
594.879 232.913 m 0
 610.31 232.913 625.04 220.39 627.761 204.96 c 0
 630.482 189.529 620.167 177.007 604.737 177.007 c 0
 589.308 177.007 574.575 189.529 571.854 204.96 c 0
 569.133 220.39 579.45 232.913 594.879 232.913 c 0
561.363 422.993 m 0
 576.793 422.993 591.524 410.47 594.245 395.039 c 0
 596.966 379.609 586.65 367.086 571.221 367.086 c 0
 555.792 367.086 541.059 379.609 538.338 395.039 c 0
 535.617 410.47 545.934 422.993 561.363 422.993 c 0
403.165 557.477 m 0
 418.595 557.477 433.326 544.955 436.047 529.525 c 0
 438.768 514.095 428.452 501.571 413.022 501.571 c 0x1d
 397.592 501.571 382.862 514.095 380.142 529.525 c 0
 377.421 544.955 387.733 557.477 403.165 557.477 c 0
213.085 557.477 m 0
 228.516 557.477 243.246 544.955 245.967 529.525 c 0
 248.688 514.095 238.373 501.571 222.942 501.571 c 0
 207.514 501.571 192.781 514.095 190.061 529.525 c 0
 187.34 544.955 197.656 557.477 213.085 557.477 c 0
102.313 422.993 m 0
 117.743 422.993 132.476 410.47 135.197 395.039 c 0
 137.918 379.609 127.601 367.086 112.171 367.086 c 0
 96.7402 367.086 82.0098 379.609 79.2891 395.039 c 0
 76.5684 410.47 86.8828 422.993 102.313 422.993 c 0
100.125 327.953 m 0
 115.556 327.953 130.287 315.429 133.007 300 c 0
 135.728 284.57 125.414 272.046 109.983 272.046 c 0
 94.5537 272.046 79.8223 284.57 77.1016 300 c 0
 74.3818 315.429 84.6953 327.953 100.125 327.953 c 0
141.928 503.642 m 0
 157.358 503.642 172.09 491.119 174.811 475.688 c 0
 177.531 460.259 167.216 447.735 151.785 447.735 c 0x1e
 136.356 447.735 121.625 460.259 118.904 475.688 c 0
 116.184 491.119 126.498 503.642 141.928 503.642 c 0
203.885 152.264 m 0
 219.315 152.264 234.047 139.74 236.768 124.311 c 0
 239.488 108.88 229.174 96.3574 213.742 96.3574 c 0x3c
 198.313 96.3574 183.582 108.88 180.861 124.311 c 0
 178.141 139.74 188.456 152.264 203.885 152.264 c 0
555.265 152.264 m 0
 570.694 152.264 585.425 139.74 588.146 124.311 c 0
 590.866 108.88 580.553 96.3574 565.123 96.3574 c 0
 549.691 96.3574 534.962 108.88 532.24 124.311 c 0
 529.521 139.74 539.834 152.264 555.265 152.264 c 0
493.308 503.642 m 0
 508.737 503.642 523.468 491.119 526.188 475.688 c 0
 528.909 460.259 518.596 447.735 503.165 447.735 c 0x1e
 487.734 447.735 473.004 460.259 470.283 475.688 c 0
 467.562 491.119 477.876 503.642 493.308 503.642 c 0
304.784 576.424 m 0
 320.214 576.424 334.945 563.9 337.666 548.471 c 0
 340.387 533.04 330.071 520.518 314.642 520.518 c 0x1c80
 299.211 520.518 284.481 533.04 281.761 548.471 c 0
 279.04 563.9 289.353 576.424 304.784 576.424 c 0
392.408 79.4805 m 0
 407.839 79.4805 422.569 66.959 425.29 51.5283 c 0
 428.011 36.0986 417.696 23.5762 402.266 23.5762 c 0x9c
 386.835 23.5762 372.105 36.0986 369.385 51.5283 c 0
 366.664 66.959 376.978 79.4805 392.408 79.4805 c 0
597.068 327.953 m 0
 612.498 327.953 627.229 315.429 629.949 300 c 0
 632.67 284.57 622.355 272.046 606.926 272.046 c 0
 591.496 272.046 576.763 284.57 574.042 300 c 0
 571.321 315.429 581.638 327.953 597.068 327.953 c 0
EndSplineSet
Fore
SplineSet
483.526 454.412 m 0
 503.82 454.412 523.195 437.94 526.773 417.646 c 0
 530.352 397.354 516.786 380.883 496.492 380.883 c 0
 476.197 380.883 456.823 397.354 453.245 417.646 c 0
 449.667 437.94 463.232 454.412 483.526 454.412 c 0
454.114 133.039 m 0
 474.408 133.039 493.784 116.568 497.363 96.2744 c 0
 500.941 75.9805 487.373 59.5098 467.079 59.5098 c 0
 446.785 59.5098 427.412 75.9805 423.834 96.2744 c 0
 420.256 116.568 433.82 133.039 454.114 133.039 c 0
117.564 219.117 m 0
 137.858 219.117 157.232 202.646 160.811 182.354 c 0
 164.389 162.06 150.823 145.588 130.53 145.588 c 0
 110.235 145.588 90.8604 162.06 87.2822 182.354 c 0
 83.7041 202.646 97.2715 219.117 117.564 219.117 c 0
146.976 540.49 m 0
 167.27 540.49 186.645 524.02 190.224 503.726 c 0
 193.802 483.432 180.235 466.961 159.94 466.961 c 0
 139.646 466.961 120.273 483.432 116.695 503.726 c 0
 113.117 524.02 126.682 540.49 146.976 540.49 c 0
76.0762 454.412 m 0
 96.3691 454.412 115.744 437.94 119.322 417.646 c 0
 122.9 397.354 109.335 380.883 89.041 380.883 c 0
 68.7471 380.883 49.3721 397.354 45.7939 417.646 c 0
 42.2158 437.94 55.7822 454.412 76.0762 454.412 c 0
218.82 133.039 m 0
 239.114 133.039 258.489 116.568 262.068 96.2744 c 0
 265.646 75.9805 252.079 59.5098 231.785 59.5098 c 0
 211.491 59.5098 192.118 75.9805 188.54 96.2744 c 0
 184.962 116.568 198.526 133.039 218.82 133.039 c 0
525.016 219.117 m 0
 545.31 219.117 564.684 202.646 568.262 182.354 c 0
 571.84 162.06 558.274 145.588 537.98 145.588 c 0
 517.688 145.588 498.312 162.06 494.733 182.354 c 0
 491.155 202.646 504.722 219.117 525.016 219.117 c 0
382.27 540.49 m 0
 402.562 540.49 421.939 524.02 425.519 503.726 c 0
 429.097 483.432 415.529 466.961 395.235 466.961 c 0
 374.94 466.961 355.567 483.432 351.989 503.726 c 0
 348.411 524.02 361.976 540.49 382.27 540.49 c 0
342.034 101.471 m 0
 362.329 101.471 381.702 85 385.28 64.7061 c 0
 388.858 44.4121 375.294 27.9404 355 27.9404 c 0
 334.706 27.9404 315.331 44.4121 311.752 64.7061 c 0
 308.174 85 321.74 101.471 342.034 101.471 c 0
535.84 336.766 m 0
 556.135 336.766 575.508 320.294 579.087 300 c 0
 582.665 279.706 569.101 263.234 548.806 263.234 c 0
 528.512 263.234 509.136 279.706 505.558 300 c 0
 501.979 320.294 515.546 336.766 535.84 336.766 c 0
259.057 572.06 m 0
 279.352 572.06 298.725 555.588 302.303 535.294 c 0
 305.881 515 292.316 498.529 272.022 498.529 c 0
 251.729 498.529 232.354 515 228.775 535.294 c 0
 225.196 555.588 238.763 572.06 259.057 572.06 c 0
65.252 336.766 m 0
 85.5459 336.766 104.919 320.294 108.498 300 c 0
 112.076 279.706 98.5117 263.234 78.2168 263.234 c 0
 57.9229 263.234 38.5469 279.706 34.9688 300 c 0
 31.3906 320.294 44.958 336.766 65.252 336.766 c 0
EndSplineSet
Validated: 33
Comment: "%DiaToBase1+AD0A-365+AAoA%DiaToBase2+AD0A-365+AAoA%DiaToBase3+AD0A-365+AAoA%DiaToBase4+AD0A-365+AAoA%DiaToBaseO+AD0A-64+AAoA%DiaToBaseU+AD0A-365+AAoA%DiaToBaseD+AD0A-365+AAoA%RafeToBase+AD0A-365+AAoA" 
EndChar

StartChar: sterling
Encoding: 163 163 195
Width: 614
VWidth: 1000
Flags: HMW
LayerCount: 2
Back
SplineSet
129 255 m 1
 70.3428 232.088 l 1
 66 266.5 64 302.5 69.3408 337.088 c 1
 94.7803 346.346 l 1
 13 577.5 197.074 739.58 397.579 757.276 c 1
 396 704 388.5 657 369 606 c 1
 163.613 588.521 181.5 530 233 392.5 c 1
 278 409 312.799 423.02 352 442.5 c 1
 359 406.5 359 369.5 353 337.5 c 1
 325.5 328 303.5 317.5 266 302.5 c 1
 287 235 291 169 283 114 c 1
 330 117 454.333 210.533 551 269 c 1
 559 210 556 154 543.898 92.8896 c 1
 427 31 236 -54 155 -25 c 1
 182 85 164.622 181.118 129 255 c 1
EndSplineSet
Fore
SplineSet
132.745 249.9 m 1
 74.0068 227.446 l 1
 69.7852 261.17 67.9121 296.45 73.375 330.347 c 1
 98.8477 339.419 l 1
 17.8818 565.95 202.529 724.788 403.097 742.131 c 1
 401.328 689.92 393.663 643.86 373.983 593.88 c 1
 168.534 576.751 186.215 519.4 237.229 384.65 c 1
 282.288 400.82 317.138 414.56 356.407 433.65 c 1
 363.28 398.37 363.149 362.11 357.036 330.75 c 1
 329.502 321.44 307.466 311.15 269.912 296.45 c 1
 290.675 230.3 294.442 165.62 286.248 111.72 c 1
 333.259 114.66 457.921 206.322 554.794 263.62 c 1
 562.586 205.8 559.39 150.92 547.072 91.0322 c 1
 429.955 30.3799 238.656 -52.9199 157.758 -24.5 c 1
 185.146 83.2998 168.107 177.496 132.745 249.9 c 1
EndSplineSet
Validated: 33
EndChar

StartChar: uni0000
Encoding: 0 0 197
Width: 950
VWidth: 1000
Flags: W
HStem: -150 150<225 725> 600 150<225 725>
VStem: 75 150<0 600> 725 150<0 600>
LayerCount: 2
Fore
SplineSet
75 750 m 1
 875 750 l 1
 875 -150 l 1
 75 -150 l 1
 75 750 l 1
225 600 m 1
 225 0 l 5
 725 0 l 5
 725 600 l 1
 225 600 l 1
EndSplineSet
Validated: 1
EndChar

StartChar: Euro
Encoding: 8364 8364 198
Width: 572
VWidth: 1000
Flags: HMW
LayerCount: 2
Back
SplineSet
442.384 726.213 m 1
 433.613 673 419.619 626 388.374 585.992 c 1
 291.219 608 229.015 589.654 207.923 554.502 c 0
 189.179 523.261 189.641 489.458 201 435.502 c 2
 201.468 433.288 l 1
 407.006 499.539 l 1
 407.5 468.5 402.5 440.5 393.006 411.54 c 1
 220.525 354.761 l 1
 224.904 338.47 229.563 322.044 234.376 305.97 c 1
 402 360 l 1
 401 329 397 301 388 272 c 1
 259.52 229.705 l 1
 262.587 221.502 l 2
 281.587 171.502 305.512 136.842 341 146 c 0
 403 162 467.07 193.14 527.236 224.321 c 1
 530.57 173.14 525.07 124.14 511 72 c 1
 463 37 409.221 3.60277 330.887 -17.4307 c 0
 274.827 -32.4832 248.438 -14.5518 223.947 14.8213 c 0
 197.006 47.1341 161.518 113.658 132.279 187.819 c 1
 71.1543 167.697 l 1
 71.2295 199.869 77.7295 230.369 87.2119 258.534 c 1
 105.408 264.399 l 1
 100.455 280.584 96.0084 296.708 92.2084 312.52 c 1
 76.1602 307.237 l 1
 77.2321 326.326 79.0374 344.647 82.3785 362.068 c 1
 79.3033 382.382 77.7232 401.6 78 419.072 c 0
 78.7666 467.428 81.6173 495.744 96.8994 541.628 c 0
 124.271 623.809 185.911 713.909 268.194 735.621 c 0
 361.251 760.173 442.348 726.213 442.384 726.213 c 1
EndSplineSet
Fore
SplineSet
433.199 711.688 m 1
 424.24 659.54 410.08 613.48 378.694 574.271 c 1
 281.617 595.84 219.349 577.861 198.133 543.412 c 0
 179.278 512.796 179.621 479.669 190.79 426.792 c 2
 191.25 424.622 l 1
 397.021 489.548 l 1
 397.406 459.13 392.308 431.69 382.711 403.31 c 1
 210.03 347.666 l 1
 214.352 331.7 218.952 315.604 223.709 299.851 c 1
 391.523 352.8 l 1
 390.414 322.42 386.315 294.98 377.213 266.56 c 1
 248.584 225.111 l 1
 251.622 217.072 l 2
 270.445 168.072 294.248 134.105 329.769 143.08 c 0
 391.825 158.76 456.005 189.277 516.281 219.835 c 1
 519.435 169.677 513.762 121.657 499.508 70.5596 c 1
 451.385 36.2598 397.487 3.53027 319.079 -17.082 c 0
 262.967 -31.834 236.641 -14.2607 212.253 14.5244 c 0
 185.426 46.1914 150.173 111.385 121.195 184.062 c 1
 60 164.343 l 1
 60.1885 195.872 66.7959 225.762 76.3779 253.363 c 1
 94.5947 259.111 l 1
 89.6982 274.973 85.3086 290.773 81.5645 306.27 c 1
 65.498 301.092 l 1
 66.6367 319.8 68.5068 337.754 71.9092 354.826 c 1
 68.9053 374.734 67.3936 393.568 67.7314 410.69 c 0
 68.6689 458.079 71.6191 485.829 87.0635 530.796 c 0
 114.725 611.333 176.683 699.631 259.042 720.908 c 0
 352.186 744.97 433.163 711.688 433.199 711.688 c 1
EndSplineSet
Validated: 33
EndChar

StartChar: endash
Encoding: 8211 8211 199
Width: 663
VWidth: 1000
Flags: HMW
LayerCount: 2
Back
SplineSet
17.6602 320.46 m 5
 518.66 320.46 l 5
 508.348 268.484 491.194 222.509 466.5 183.54 c 5
 -34.5 183.54 l 5
 -25.1875 232.039 -10.1396 278.458 17.6602 320.46 c 5
EndSplineSet
Fore
SplineSet
82 368 m 5
 583 368 l 5
 573 316 556 271 531 232 c 5
 30 232 l 5
 39 280 54 326 82 368 c 5
EndSplineSet
Validated: 1
EndChar

StartChar: emdash
Encoding: 8212 8212 200
Width: 963
VWidth: 1048
Flags: HMW
LayerCount: 2
Back
SplineSet
16.1602 320.46 m 5
 817.16 320.46 l 5
 806.848 268.484 789.694 222.509 765 183.54 c 5
 -36 183.54 l 5
 -26.6875 232.039 -11.6396 278.458 16.1602 320.46 c 5
EndSplineSet
Fore
SplineSet
82 368 m 5
 883 368 l 5
 873 316 856 271 831 232 c 5
 30 232 l 5
 39 280 54 326 82 368 c 5
EndSplineSet
Validated: 1
EndChar

StartChar: afii00208
Encoding: 8213 8213 201
Width: 1163
VWidth: 1048
Flags: HMW
LayerCount: 2
Back
SplineSet
17.6602 320.46 m 1
 1018.66 320.46 l 1
 1008.35 268.484 991.19 222.509 966.5 183.54 c 1
 -34.5 183.54 l 1
 -25.1875 232.039 -10.1396 278.458 17.6602 320.46 c 1
EndSplineSet
Fore
SplineSet
82 368 m 1
 1083 368 l 1
 1073 316 1056 271 1031 232 c 1
 30 232 l 1
 39 280 54 326 82 368 c 1
EndSplineSet
Validated: 1
EndChar

StartChar: quotesinglbase
Encoding: 8218 8218 203
Width: 245
VWidth: 1000
Flags: HMW
LayerCount: 2
Back
SplineSet
147.005 179.476 m 5
 201.276 45.876 213.804 -88.96 191.92 -236.317 c 5
 164.249 -266.173 128.474 -287.645 92.1279 -299.646 c 5
 86.6016 -181.18 61.8945 -49.291 7 47.2051 c 5
 38.998 107.072 90.2178 149.14 147.005 179.476 c 5
EndSplineSet
Fore
Refer: 6 39 S 1 0 0 1 108.97 -618 2
Validated: 1
EndChar

StartChar: quotedblbase
Encoding: 8222 8222 205
Width: 492
VWidth: 1000
Flags: HMW
LayerCount: 2
Back
SplineSet
393.07 179.476 m 5
 447.341 45.876 459.87 -88.96 437.985 -236.317 c 5
 410.315 -266.173 374.539 -287.645 338.194 -299.646 c 5
 332.667 -181.18 307.96 -49.291 253.064 47.2051 c 5
 285.063 107.072 336.283 149.14 393.07 179.476 c 5
145.505 179.476 m 5
 199.775 45.876 212.305 -88.96 190.42 -236.317 c 5
 162.749 -266.173 126.974 -287.645 90.6279 -299.646 c 5
 85.1016 -181.18 60.3945 -49.291 5.5 47.2051 c 5
 37.498 107.072 88.7178 149.14 145.505 179.476 c 5
EndSplineSet
Fore
Refer: 1 34 N 1 0 0 1 108.97 -618 2
Validated: 1
EndChar

StartChar: uni05BA
Encoding: 1466 1466 208
Width: 0
VWidth: 1000
Flags: W
HStem: 629.408 127
VStem: -135.088 126
LayerCount: 2
Fore
SplineSet
-135.088 692.408 m 5
 -124.025 720.408 -107.376 739.408 -83.373 756.408 c 5
 -53.376 739.408 -30.0254 720.408 -9.08789 692.408 c 5
 -20.3271 665.408 -36.8008 645.408 -60.9785 629.408 c 5
 -90.8008 645.408 -114.327 665.408 -135.088 692.408 c 5
EndSplineSet
Validated: 1
EndChar

StartChar: uni05C5
Encoding: 1477 1477 209
Width: 0
VWidth: 1000
Flags: W
HStem: -157.002 127
VStem: -46.4229 126
LayerCount: 2
Fore
SplineSet
-46.4229 -94.002 m 1
 -35.3604 -66.002 -18.71 -47.002 5.29199 -30.002 c 1
 35.29 -47.002 58.6396 -66.002 79.5771 -94.002 c 1
 68.3379 -121.002 51.8643 -141.002 27.6855 -157.002 c 1
 -2.13574 -141.002 -25.6621 -121.002 -46.4229 -94.002 c 1
EndSplineSet
Validated: 1
EndChar

StartChar: uni05C7
Encoding: 1479 1479 210
Width: 0
VWidth: 1000
Flags: W
HStem: -144 94.8701<-88.6914 -32.04 62.8311 122.991>
VStem: -116.328 266.953
AnchorPoint: "CtxAnchors_M_D2" -78.2451 0 mark 0
AnchorPoint: "ColumnToBaseMark" -142.328 -93.5 basemark 0
AnchorPoint: "DotToBaseMark" -157.328 -93.5 basemark 0
AnchorPoint: "BarToBaseMark" 150.625 -93.5 mark 0
AnchorPoint: "DiaToBase2" 0 0 mark 0
LayerCount: 2
Fore
SplineSet
-32.04 -144 m 1
 -116.328 -144 l 1
 -112.026 -108.887 -102.331 -79.8027 -84.7041 -49.1299 c 1
 150.625 -49.1299 l 1
 146.323 -84.2441 136.629 -113.328 119.004 -144 c 9
 62.8311 -144 l 1
 89.5771 -295.684 l 1
 73.5498 -298.455 59.585 -299.636 42.8389 -299.636 c 0
 26.0918 -299.636 11.71 -298.455 -5.29492 -295.684 c 1
 -32.04 -144 l 1
EndSplineSet
Validated: 1
EndChar

StartChar: uniE806
Encoding: 59398 59398 216
Width: 0
VWidth: 1000
Flags: W
HStem: -299.998 275.002
AnchorPoint: "ColumnToBaseMark" -259.478 -93.5 basemark 0
AnchorPoint: "DotToBaseNarrowMark" -283.478 -93.5 basemark 0
AnchorPoint: "BarToBaseNarrowMark" -283.478 -93.5 basemark 0
AnchorPoint: "2DotsToBaseNarrowMark" 319.959 -93.5 mark 0
AnchorPoint: "DiaToBase4" 0 0 mark 0
LayerCount: 2
Fore
SplineSet
171.605 -287 m 5
 155.577 -289.771 141.613 -290.952 124.867 -290.952 c 4
 108.12 -290.952 93.7383 -289.771 76.7334 -287 c 5
 32.8281 -38 l 5
 48.8555 -35.2285 62.8213 -34.0479 79.5684 -34.0479 c 4
 96.3145 -34.0479 110.694 -35.2285 127.7 -38 c 5
 171.605 -287 l 5
-262.478 -88.9961 m 1
 -251.415 -60.9961 -234.765 -41.9961 -210.763 -24.9961 c 1
 -180.765 -41.9961 -157.415 -60.9961 -136.478 -88.9961 c 1
 -147.717 -115.996 -164.19 -135.996 -188.369 -151.996 c 1
 -218.19 -135.996 -241.717 -115.996 -262.478 -88.9961 c 1
-115.134 -88.998 m 1
 -104.071 -60.998 -87.4219 -41.998 -63.4189 -24.998 c 1
 -33.4219 -41.998 -10.0713 -60.998 10.8652 -88.998 c 1
 -0.373047 -115.998 -16.8467 -135.998 -41.0254 -151.998 c 1
 -70.8467 -135.998 -94.373 -115.998 -115.134 -88.998 c 1
-162.709 -236.998 m 1
 -151.646 -208.998 -134.996 -189.998 -110.994 -172.998 c 1
 -80.9961 -189.998 -57.6465 -208.998 -36.709 -236.998 c 1
 -47.9482 -263.998 -64.4219 -283.998 -88.6006 -299.998 c 1
 -118.422 -283.998 -141.948 -263.998 -162.709 -236.998 c 1
167.862 -88.998 m 1
 178.926 -60.998 195.575 -41.998 219.578 -24.998 c 1
 249.575 -41.998 272.926 -60.998 293.862 -88.998 c 1
 282.624 -115.998 266.15 -135.998 241.972 -151.998 c 1
 212.15 -135.998 188.624 -115.998 167.862 -88.998 c 1
193.959 -236.998 m 1
 205.022 -208.998 221.672 -189.998 245.674 -172.998 c 1
 275.672 -189.998 299.022 -208.998 319.959 -236.998 c 1
 308.72 -263.998 292.246 -283.998 268.067 -299.998 c 1
 238.246 -283.998 214.72 -263.998 193.959 -236.998 c 1
EndSplineSet
Validated: 1
Ligature2: "ccmpCustomPrecomp subtable" afii57801 afii301 afii57839
EndChar

StartChar: uniE807
Encoding: 59399 59399 217
Width: 0
VWidth: 1000
Flags: W
HStem: -144.003 94.8702<-237.581 -12.4158>
AnchorPoint: "ColumnToBaseMark" -252.163 -93.5 basemark 0
AnchorPoint: "2DotsToBaseNarrowMark" 316.932 -93.5 mark 0
AnchorPoint: "DiaToBase4" 0 0 mark 0
LayerCount: 2
Fore
SplineSet
168.605 -287 m 1
 152.577 -289.771 138.613 -290.952 121.867 -290.952 c 0
 105.12 -290.952 90.7383 -289.771 73.7334 -287 c 1
 29.8281 -38 l 1
 45.8555 -35.2285 59.8213 -34.0479 76.5684 -34.0479 c 0
 93.3145 -34.0479 107.694 -35.2285 124.7 -38 c 1
 168.605 -287 l 1
164.836 -88.998 m 5
 175.898 -60.998 192.549 -41.998 216.551 -24.998 c 5
 246.549 -41.998 269.898 -60.998 290.836 -88.998 c 5
 279.597 -115.998 263.123 -135.998 238.944 -151.998 c 5
 209.123 -135.998 185.597 -115.998 164.836 -88.998 c 5
190.933 -236.998 m 5
 201.995 -208.998 218.645 -189.998 242.647 -172.998 c 5
 272.645 -189.998 295.995 -208.998 316.932 -236.998 c 5
 305.693 -263.998 289.22 -283.998 265.041 -299.998 c 5
 235.22 -283.998 211.693 -263.998 190.933 -236.998 c 5
-15.1396 -144.003 m 1
 -249.751 -144.003 l 1
 -251.642 -108.89 -247.074 -79.8057 -234.857 -49.1328 c 1
 -0.246094 -49.1328 l 1
 1.64355 -84.2471 -2.92285 -113.331 -15.1396 -144.003 c 1
EndSplineSet
Validated: 33
Ligature2: "ccmpCustomPrecomp subtable" afii57800 afii301 afii57839
EndChar

StartChar: uniE808
Encoding: 59400 59400 218
Width: 0
VWidth: 1000
Flags: W
HStem: -144 94.8701<-242.582 -164.072 -69.2002 -7.41603>
AnchorPoint: "ColumnToBaseMark" -257.165 -93.5 basemark 0
AnchorPoint: "2DotsToBaseNarrowMark" 321.935 -93.5 mark 0
AnchorPoint: "DiaToBase4" 0 0 mark 0
LayerCount: 2
Fore
SplineSet
173.605 -287 m 1
 157.577 -289.771 143.613 -290.952 126.867 -290.952 c 0
 110.12 -290.952 95.7383 -289.771 78.7334 -287 c 1
 34.8281 -38 l 1
 50.8555 -35.2285 64.8213 -34.0479 81.5684 -34.0479 c 0
 98.3145 -34.0479 112.694 -35.2285 129.7 -38 c 1
 173.605 -287 l 1
-254.754 -144 m 1
 -256.644 -108.887 -252.074 -79.8027 -239.858 -49.1299 c 1
 4.75293 -49.1299 l 1
 6.64258 -84.2441 2.07617 -113.328 -10.1396 -144 c 9
 -69.2002 -144 l 1
 -49.6836 -254.684 l 1
 -65.71 -257.455 -79.6748 -258.636 -96.4209 -258.636 c 0
 -113.168 -258.636 -127.551 -257.455 -144.556 -254.684 c 1
 -164.072 -144 l 1
 -254.754 -144 l 1
169.838 -88.998 m 5
 180.9 -60.998 197.551 -41.998 221.553 -24.998 c 5
 251.551 -41.998 274.9 -60.998 295.838 -88.998 c 5
 284.599 -115.998 268.125 -135.998 243.946 -151.998 c 5
 214.125 -135.998 190.599 -115.998 169.838 -88.998 c 5
195.935 -236.998 m 5
 206.997 -208.998 223.646 -189.998 247.649 -172.998 c 5
 277.646 -189.998 300.997 -208.998 321.935 -236.998 c 5
 310.695 -263.998 294.222 -283.998 270.043 -299.998 c 5
 240.222 -283.998 216.695 -263.998 195.935 -236.998 c 5
EndSplineSet
Validated: 33
Ligature2: "ccmpCustomPrecomp subtable" afii57802 afii301 afii57839
EndChar

StartChar: hatafsegol.narrow
Encoding: 65573 -1 232
Width: 0
VWidth: 0
Flags: W
HStem: -299.998 275
AnchorPoint: "CtxAnchors_M_D3Narrow" -63.7452 0 mark 0
AnchorPoint: "ColumnToBaseMark" -217 -93.5 basemark 0
AnchorPoint: "DotToBaseNarrowMark" -241 -93.5 basemark 0
AnchorPoint: "BarToBaseNarrowMark" -241 -93.5 basemark 0
AnchorPoint: "2DotsToBaseNarrowMark" 220.742 -93.5 mark 0
LayerCount: 2
Fore
SplineSet
94.7422 -236.998 m 0
 105.806 -208.998 122.456 -189.998 146.458 -172.998 c 0
 176.456 -189.998 199.806 -208.998 220.742 -236.998 c 0
 209.504 -263.998 193.029 -283.998 168.851 -299.998 c 0
 139.029 -283.998 115.504 -263.998 94.7422 -236.998 c 0
68.6455 -88.998 m 0
 79.71 -60.998 96.3584 -41.998 120.361 -24.998 c 0
 150.358 -41.998 173.71 -60.998 194.646 -88.998 c 0
 183.407 -115.998 166.934 -135.998 142.756 -151.998 c 0
 112.934 -135.998 89.4072 -115.998 68.6455 -88.998 c 0
-72.6562 -88.998 m 0
 -61.5928 -60.998 -44.9443 -41.998 -20.9404 -24.998 c 0
 9.05566 -41.998 32.4062 -60.998 53.3428 -88.998 c 0
 42.1045 -115.998 25.6309 -135.998 1.45215 -151.998 c 0
 -28.3691 -135.998 -51.8945 -115.998 -72.6562 -88.998 c 0
-120.231 -236.998 m 0
 -109.168 -208.998 -92.5176 -189.998 -68.5156 -172.998 c 0
 -38.5186 -189.998 -15.1689 -208.998 5.76855 -236.998 c 0
 -5.46973 -263.998 -21.9443 -283.998 -46.123 -299.998 c 0
 -75.9443 -283.998 -99.4697 -263.998 -120.231 -236.998 c 0
-220 -88.9961 m 0
 -208.937 -60.9961 -192.287 -41.9961 -168.285 -24.9961 c 0
 -138.287 -41.9961 -114.937 -60.9961 -94 -88.9961 c 0
 -105.239 -115.996 -121.712 -135.996 -145.891 -151.996 c 0
 -175.712 -135.996 -199.239 -115.996 -220 -88.9961 c 0
EndSplineSet
Validated: 1
EndChar

StartChar: hatafpatah.narrow
Encoding: 65574 -1 233
Width: 0
VWidth: 0
Flags: W
HStem: -144.003 94.8702<-199.418 25.747>
AnchorPoint: "CtxAnchors_M_D3Narrow" -66.2451 0 mark 0
AnchorPoint: "ColumnToBaseMark" -214 -93.5 basemark 0
AnchorPoint: "2DotsToBaseNarrowMark" 213.426 -93.5 mark 0
LayerCount: 2
Fore
SplineSet
87.4268 -236.998 m 0
 98.4893 -208.998 115.14 -189.998 139.142 -172.998 c 0
 169.139 -189.998 192.489 -208.998 213.426 -236.998 c 0
 202.188 -263.998 185.714 -283.998 161.535 -299.998 c 0
 131.714 -283.998 108.188 -263.998 87.4268 -236.998 c 0
61.3301 -88.998 m 0
 72.3926 -60.998 89.043 -41.998 113.045 -24.998 c 0
 143.043 -41.998 166.393 -60.998 187.33 -88.998 c 0
 176.091 -115.998 159.617 -135.998 135.438 -151.998 c 0
 105.617 -135.998 82.0908 -115.998 61.3301 -88.998 c 0
23.0234 -144.003 m 0
 -211.589 -144.003 l 0
 -213.479 -108.89 -208.911 -79.8057 -196.694 -49.1328 c 0
 37.916 -49.1328 l 0
 39.8057 -84.2471 35.2393 -113.331 23.0234 -144.003 c 0
EndSplineSet
Validated: 33
EndChar

StartChar: hatafqamats.narrow
Encoding: 65575 -1 234
Width: 0
VWidth: 0
Flags: W
HStem: -144 94.8701<-204.417 -125.907 -31.0352 30.749>
AnchorPoint: "CtxAnchors_M_D3Narrow" -66.2451 0 mark 0
AnchorPoint: "ColumnToBaseMark" -219 -93.5 basemark 0
AnchorPoint: "2DotsToBaseNarrowMark" 218.43 -93.5 mark 0
LayerCount: 2
Fore
SplineSet
92.4297 -236.998 m 0
 103.492 -208.998 120.141 -189.998 144.145 -172.998 c 0
 174.141 -189.998 197.492 -208.998 218.43 -236.998 c 0
 207.19 -263.998 190.717 -283.998 166.538 -299.998 c 0
 136.717 -283.998 113.19 -263.998 92.4297 -236.998 c 0
66.333 -88.998 m 0
 77.3955 -60.998 94.0459 -41.998 118.048 -24.998 c 0
 148.046 -41.998 171.396 -60.998 192.333 -88.998 c 0
 181.094 -115.998 164.62 -135.998 140.441 -151.998 c 0
 110.62 -135.998 87.0938 -115.998 66.333 -88.998 c 0
-216.589 -144 m 0
 -218.479 -108.887 -213.909 -79.8027 -201.693 -49.1299 c 0
 42.918 -49.1299 l 0
 44.8076 -84.2441 40.2412 -113.328 28.0254 -144 c 0
 -31.0352 -144 l 0
 -11.5186 -254.684 l 0
 -27.5449 -257.455 -41.5098 -258.636 -58.2559 -258.636 c 0
 -75.0029 -258.636 -89.3857 -257.455 -106.391 -254.684 c 0
 -125.907 -144 l 0
 -216.589 -144 l 0
EndSplineSet
Validated: 33
EndChar

StartChar: segol.narrow
Encoding: 65576 -1 235
Width: 0
VWidth: 0
Flags: W
HStem: -299.998 275
VStem: -136 273.343
AnchorPoint: "CtxAnchors_M_D2Narrow" -63.7452 0 mark 0
AnchorPoint: "ColumnToBaseMark" -133 -93.5 basemark 0
AnchorPoint: "DotToBaseNarrowMark" -157 -93.5 basemark 0
AnchorPoint: "BarToBaseNarrowMark" -157 -93.5 basemark 0
AnchorPoint: "DotToBaseNarrowMark" 137.343 -93.5 mark 0
LayerCount: 2
Fore
SplineSet
11.3438 -88.998 m 0
 22.4072 -60.998 39.0557 -41.998 63.0596 -24.998 c 0
 93.0557 -41.998 116.406 -60.998 137.343 -88.998 c 0
 126.104 -115.998 109.631 -135.998 85.4521 -151.998 c 0
 55.6309 -135.998 32.1055 -115.998 11.3438 -88.998 c 0
-36.2314 -236.998 m 0
 -25.168 -208.998 -8.51758 -189.998 15.4844 -172.998 c 0
 45.4814 -189.998 68.8311 -208.998 89.7686 -236.998 c 0
 78.5303 -263.998 62.0557 -283.998 37.877 -299.998 c 0
 8.05566 -283.998 -15.4697 -263.998 -36.2314 -236.998 c 0
-136 -88.9961 m 0
 -124.937 -60.9961 -108.287 -41.9961 -84.2852 -24.9961 c 0
 -54.2871 -41.9961 -30.9365 -60.9961 -10 -88.9961 c 0
 -21.2393 -115.996 -37.7119 -135.996 -61.8906 -151.996 c 0
 -91.7119 -135.996 -115.239 -115.996 -136 -88.9961 c 0
EndSplineSet
Validated: 1
EndChar

StartChar: tsere.narrow
Encoding: 65577 -1 236
Width: 0
VWidth: 0
Flags: W
HStem: -151.998 127
VStem: -136 273.343
AnchorPoint: "CtxAnchors_M_D2Narrow" -63.7452 0 mark 0
AnchorPoint: "ColumnToBaseMark" -133 -93.5 basemark 0
AnchorPoint: "DotToBaseNarrowMark" -157 -93.5 basemark 0
AnchorPoint: "BarToBaseNarrowMark" -157 -93.5 basemark 0
AnchorPoint: "DotToBaseNarrowMark" 137.343 -93.5 mark 0
LayerCount: 2
Fore
SplineSet
11.3438 -88.998 m 0
 22.4072 -60.998 39.0557 -41.998 63.0596 -24.998 c 0
 93.0557 -41.998 116.406 -60.998 137.343 -88.998 c 0
 126.104 -115.998 109.631 -135.998 85.4521 -151.998 c 0
 55.6309 -135.998 32.1055 -115.998 11.3438 -88.998 c 0
-136 -88.9961 m 0
 -124.937 -60.9961 -108.287 -41.9961 -84.2852 -24.9961 c 0
 -54.2871 -41.9961 -30.9365 -60.9961 -10 -88.9961 c 0
 -21.2393 -115.996 -37.7119 -135.996 -61.8906 -151.996 c 0
 -91.7119 -135.996 -115.239 -115.996 -136 -88.9961 c 0
EndSplineSet
Validated: 1
Comment: "+AAoA%BarToBaseNarrowMark+AD0A-21+AAoA%ColumnToBaseMark+AD0A--3+AAoA%DotToBaseNarrowMark+AD0A-21" 
EndChar

StartChar: patah.narrow
Encoding: 65578 -1 237
Width: 0
VWidth: 0
Flags: W
HStem: -144.003 94.8702<-112.418 112.747>
VStem: -124.589 249.505
AnchorPoint: "CtxAnchors_M_D2Narrow" -66.2451 0 mark 0
AnchorPoint: "ColumnToBaseMark" -127 -93.5 basemark 0
AnchorPoint: "BarToBaseNarrowMark" 125.327 -93.5 mark 0
LayerCount: 2
Fore
SplineSet
110.023 -144.003 m 0
 -124.589 -144.003 l 0
 -126.479 -108.89 -121.911 -79.8057 -109.694 -49.1328 c 0
 124.916 -49.1328 l 0
 126.806 -84.2471 122.239 -113.331 110.023 -144.003 c 0
EndSplineSet
Validated: 33
Comment: "+AAoA%ColumnToBaseMark+AD0A-2" 
EndChar

StartChar: qamats.narrow
Encoding: 65579 -1 238
Width: 0
VWidth: 0
Flags: W
HStem: -144 94.8701<-117.417 -38.9072 55.9648 117.749>
VStem: -129.589 259.507
AnchorPoint: "CtxAnchors_M_D2Narrow" -66.2451 0 mark 0
AnchorPoint: "ColumnToBaseMark" -132 -93.5 basemark 0
AnchorPoint: "BarToBaseNarrowMark" 130.329 -93.5 mark 0
LayerCount: 2
Fore
SplineSet
-129.589 -144 m 0
 -131.479 -108.887 -126.909 -79.8027 -114.693 -49.1299 c 0
 129.918 -49.1299 l 0
 131.808 -84.2441 127.241 -113.328 115.025 -144 c 0
 55.9648 -144 l 0
 75.4814 -254.684 l 0
 59.4551 -257.455 45.4902 -258.636 28.7441 -258.636 c 0
 11.9971 -258.636 -2.38574 -257.455 -19.3906 -254.684 c 0
 -38.9072 -144 l 0
 -129.589 -144 l 0
EndSplineSet
Validated: 33
EndChar

StartChar: uniE809
Encoding: 59401 59401 239
Width: 0
VWidth: 1000
Flags: W
HStem: -272.06 73.5303<-19.0765 47.2891> -192.06 73.5303<-113.183 -46.8168 46.817 113.183> -112.06 73.5303<-47.2893 19.0767>
VStem: -116.764 73.5273<-188.035 -122.553> 43.2363 73.5273<-188.035 -122.553>
CounterMasks: 1 e0
AnchorPoint: "CtxAnchors_Rafe" 0 0 mark 0
AnchorPoint: "CtxAnchors_D3Narrow_M" 0 0 mark 0
AnchorPoint: "CtxAnchors_D2Narrow_M" 0 0 mark 0
AnchorPoint: "CtxAnchors_D2_M" 0 0 mark 0
AnchorPoint: "CtxAnchors_D1_M" 0 0 mark 0
AnchorPoint: "CtxAnchors_M_D3Narrow" 0 0 mark 0
AnchorPoint: "CtxAnchors_M_D2Narrow" 0 0 mark 0
AnchorPoint: "CtxAnchors_M_D2" 0 0 mark 0
AnchorPoint: "CtxAnchors_M_D1" 0 0 mark 0
LayerCount: 2
Fore
SplineSet
-86.4814 -118.529 m 4
 -66.1875 -118.529 -46.8145 -135 -43.2363 -155.294 c 4
 -39.6582 -175.588 -53.2227 -192.06 -73.5166 -192.06 c 4
 -93.8105 -192.06 -113.186 -175.588 -116.764 -155.294 c 4
 -120.343 -135 -106.775 -118.529 -86.4814 -118.529 c 4
7.62402 -198.529 m 4
 27.918 -198.529 47.291 -215 50.8701 -235.294 c 4
 54.4482 -255.588 40.8838 -272.06 20.5898 -272.06 c 4
 0.295898 -272.06 -19.0791 -255.588 -22.6572 -235.294 c 4
 -26.2363 -215 -12.6699 -198.529 7.62402 -198.529 c 4
73.5186 -118.529 m 4
 93.8125 -118.529 113.186 -135 116.764 -155.294 c 4
 120.342 -175.588 106.777 -192.06 86.4834 -192.06 c 4
 66.1895 -192.06 46.8145 -175.588 43.2363 -155.294 c 4
 39.6582 -135 53.2246 -118.529 73.5186 -118.529 c 4
-20.5879 -38.5293 m 4
 -0.293945 -38.5293 19.0791 -55 22.6572 -75.2939 c 4
 26.2354 -95.5879 12.6719 -112.06 -7.62207 -112.06 c 4
 -27.916 -112.06 -47.292 -95.5879 -50.8701 -75.2939 c 4
 -54.4482 -55 -40.8818 -38.5293 -20.5879 -38.5293 c 4
EndSplineSet
Validated: 33
EndChar

